<?xml version="1.0" encoding="UTF-8" standalone="no"?>
<!DOCTYPE svg PUBLIC "-//W3C//DTD SVG 1.1//EN"
 "http://www.w3.org/Graphics/SVG/1.1/DTD/svg11.dtd">
<!-- Generated by graphviz version 2.38.0 (20140413.2041)
 -->
<!-- Title: Pinknose.DistributedWorkers.MessageQueues.ReadableMessageQueue.BeginFullConsume Pages: 1 -->
<svg width="437pt" height="100pt"
 viewBox="0.00 0.00 437.00 99.50" xmlns="http://www.w3.org/2000/svg" xmlns:xlink="http://www.w3.org/1999/xlink">
<g id="graph0" class="graph" transform="scale(1 1) rotate(0) translate(4 95.5)">
<title>Pinknose.DistributedWorkers.MessageQueues.ReadableMessageQueue.BeginFullConsume</title>
<polygon fill="white" stroke="none" points="-4,4 -4,-95.5 433,-95.5 433,4 -4,4"/>
<!-- Node1 -->
<g id="node1" class="node"><title>Node1</title>
<g id="a_node1"><a xlink:title="Begin consuming messages as they come in (not rate limited).">
<polygon fill="#bfbfbf" stroke="black" points="224,-27.5 224,-68.5 429,-68.5 429,-27.5 224,-27.5"/>
<text text-anchor="start" x="232" y="-56.5" font-family="Helvetica,sans-Serif" font-size="10.00">Pinknose.DistributedWorkers.</text>
<text text-anchor="start" x="232" y="-45.5" font-family="Helvetica,sans-Serif" font-size="10.00">MessageQueues.ReadableMessageQueue.</text>
<text text-anchor="middle" x="326.5" y="-34.5" font-family="Helvetica,sans-Serif" font-size="10.00">BeginFullConsume</text>
</a>
</g>
</g>
<!-- Node2 -->
<g id="node2" class="node"><title>Node2</title>
<g id="a_node2"><a xlink:href="class_pinknose_1_1_distributed_workers_1_1_clients_1_1_message_client.html#a750f22349fdb1db7a28858544fa1285e" target="_top" xlink:title=" ">
<polygon fill="white" stroke="black" points="17.5,-61 17.5,-91 170.5,-91 170.5,-61 17.5,-61"/>
<text text-anchor="start" x="25.5" y="-79" font-family="Helvetica,sans-Serif" font-size="10.00">Pinknose.DistributedWorkers.</text>
<text text-anchor="middle" x="94" y="-68" font-family="Helvetica,sans-Serif" font-size="10.00">Clients.MessageClient.Connect</text>
</a>
</g>
</g>
<!-- Node1&#45;&gt;Node2 -->
<g id="edge1" class="edge"><title>Node1&#45;&gt;Node2</title>
<path fill="none" stroke="midnightblue" d="M213.654,-61.5865C199.068,-63.3583 184.41,-65.139 170.614,-66.8148"/>
<polygon fill="midnightblue" stroke="midnightblue" points="214.223,-65.0431 223.728,-60.3627 213.379,-58.0942 214.223,-65.0431"/>
</g>
<!-- Node3 -->
<g id="node3" class="node"><title>Node3</title>
<g id="a_node3"><a xlink:href="class_pinknose_1_1_distributed_workers_1_1_clients_1_1_message_client_base.html#af87b6b124d241c687ba271dec13a595e" target="_top" xlink:title=" ">
<polygon fill="white" stroke="black" points="0,-0.5 0,-41.5 188,-41.5 188,-0.5 0,-0.5"/>
<text text-anchor="start" x="8" y="-29.5" font-family="Helvetica,sans-Serif" font-size="10.00">Pinknose.DistributedWorkers.</text>
<text text-anchor="start" x="8" y="-18.5" font-family="Helvetica,sans-Serif" font-size="10.00">Clients.MessageClientBase</text>
<text text-anchor="middle" x="94" y="-7.5" font-family="Helvetica,sans-Serif" font-size="10.00">&lt; MessageQueue &gt;::SetupConnections</text>
</a>
</g>
</g>
<!-- Node1&#45;&gt;Node3 -->
<g id="edge2" class="edge"><title>Node1&#45;&gt;Node3</title>
<path fill="none" stroke="midnightblue" d="M213.722,-34.9067C205.178,-33.9059 196.609,-32.9022 188.203,-31.9175"/>
<polygon fill="midnightblue" stroke="midnightblue" points="213.389,-38.3915 223.728,-36.0788 214.204,-31.4391 213.389,-38.3915"/>
</g>
</g>
</svg>
