<?xml version="1.0" encoding="UTF-8" standalone="no"?>
<!DOCTYPE svg PUBLIC "-//W3C//DTD SVG 1.1//EN"
 "http://www.w3.org/Graphics/SVG/1.1/DTD/svg11.dtd">
<!-- Generated by graphviz version 2.38.0 (20140413.2041)
 -->
<!-- Title: Pinknose.DistributedWorkers.Configuration.MessageClientConfigurationBase Pages: 1 -->
<svg width="635pt" height="420pt"
 viewBox="0.00 0.00 635.00 420.00" xmlns="http://www.w3.org/2000/svg" xmlns:xlink="http://www.w3.org/1999/xlink">
<g id="graph0" class="graph" transform="scale(1 1) rotate(0) translate(4 416)">
<title>Pinknose.DistributedWorkers.Configuration.MessageClientConfigurationBase</title>
<polygon fill="white" stroke="none" points="-4,4 -4,-416 631,-416 631,4 -4,4"/>
<!-- Node1 -->
<g id="node1" class="node"><title>Node1</title>
<g id="a_node1"><a xlink:title=" ">
<polygon fill="#bfbfbf" stroke="black" points="204,-343.5 204,-411.5 423,-411.5 423,-343.5 204,-343.5"/>
<text text-anchor="start" x="212" y="-399.5" font-family="Helvetica,sans-Serif" font-size="10.00">Pinknose.DistributedWorkers.</text>
<text text-anchor="middle" x="313.5" y="-388.5" font-family="Helvetica,sans-Serif" font-size="10.00">Configuration.MessageClientConfigurationBase</text>
<polyline fill="none" stroke="black" points="204,-381.5 423,-381.5 "/>
<text text-anchor="middle" x="313.5" y="-369.5" font-family="Helvetica,sans-Serif" font-size="10.00"> </text>
<polyline fill="none" stroke="black" points="204,-362.5 423,-362.5 "/>
<text text-anchor="middle" x="313.5" y="-350.5" font-family="Helvetica,sans-Serif" font-size="10.00"> </text>
</a>
</g>
</g>
<!-- Node2 -->
<g id="node2" class="node"><title>Node2</title>
<g id="a_node2"><a xlink:href="class_pinknose_1_1_distributed_workers_1_1_configuration_1_1_message_client_configuration_base.html" target="_top" xlink:title=" ">
<polygon fill="white" stroke="black" points="0,-139.5 0,-295.5 197,-295.5 197,-139.5 0,-139.5"/>
<text text-anchor="start" x="8" y="-283.5" font-family="Helvetica,sans-Serif" font-size="10.00">Pinknose.DistributedWorkers.</text>
<text text-anchor="start" x="8" y="-272.5" font-family="Helvetica,sans-Serif" font-size="10.00">Configuration.MessageClientConfiguration</text>
<text text-anchor="middle" x="98.5" y="-261.5" font-family="Helvetica,sans-Serif" font-size="10.00">Base&lt; TConfigType &gt;</text>
<polyline fill="none" stroke="black" points="0,-254.5 197,-254.5 "/>
<text text-anchor="start" x="8" y="-242.5" font-family="Helvetica,sans-Serif" font-size="10.00"># _userName</text>
<text text-anchor="start" x="8" y="-231.5" font-family="Helvetica,sans-Serif" font-size="10.00"># _password</text>
<text text-anchor="start" x="8" y="-220.5" font-family="Helvetica,sans-Serif" font-size="10.00"># _rabbitMQServerName</text>
<text text-anchor="start" x="8" y="-209.5" font-family="Helvetica,sans-Serif" font-size="10.00"># _queuesAreDurable</text>
<text text-anchor="start" x="8" y="-198.5" font-family="Helvetica,sans-Serif" font-size="10.00"># _autoDeleteQueuesOnClose</text>
<polyline fill="none" stroke="black" points="0,-191.5 197,-191.5 "/>
<text text-anchor="start" x="8" y="-179.5" font-family="Helvetica,sans-Serif" font-size="10.00">+ Credentials()</text>
<text text-anchor="start" x="8" y="-168.5" font-family="Helvetica,sans-Serif" font-size="10.00">+ RabbitMQServer()</text>
<text text-anchor="start" x="8" y="-157.5" font-family="Helvetica,sans-Serif" font-size="10.00">+ AutoDeleteQueuesOnClose()</text>
<text text-anchor="start" x="8" y="-146.5" font-family="Helvetica,sans-Serif" font-size="10.00">+ QueuesAreDurable()</text>
</a>
</g>
</g>
<!-- Node1&#45;&gt;Node2 -->
<g id="edge1" class="edge"><title>Node1&#45;&gt;Node2</title>
<path fill="none" stroke="midnightblue" d="M260.155,-337.298C241.034,-323.246 218.818,-306.92 197.091,-290.953"/>
<polygon fill="none" stroke="midnightblue" points="258.298,-340.277 268.429,-343.378 262.443,-334.636 258.298,-340.277"/>
</g>
<!-- Node3 -->
<g id="node3" class="node"><title>Node3</title>
<g id="a_node3"><a xlink:href="class_pinknose_1_1_distributed_workers_1_1_configuration_1_1_message_client_configuration_base.html" target="_top" xlink:title=" ">
<polygon fill="white" stroke="black" points="215,-178 215,-257 412,-257 412,-178 215,-178"/>
<text text-anchor="start" x="223" y="-245" font-family="Helvetica,sans-Serif" font-size="10.00">Pinknose.DistributedWorkers.</text>
<text text-anchor="start" x="223" y="-234" font-family="Helvetica,sans-Serif" font-size="10.00">Configuration.MessageClientConfiguration</text>
<text text-anchor="middle" x="313.5" y="-223" font-family="Helvetica,sans-Serif" font-size="10.00">Base&lt; MessageServerConfiguration &gt;</text>
<polyline fill="none" stroke="black" points="215,-216 412,-216 "/>
<text text-anchor="middle" x="313.5" y="-204" font-family="Helvetica,sans-Serif" font-size="10.00"> </text>
<polyline fill="none" stroke="black" points="215,-197 412,-197 "/>
<text text-anchor="middle" x="313.5" y="-185" font-family="Helvetica,sans-Serif" font-size="10.00"> </text>
</a>
</g>
</g>
<!-- Node1&#45;&gt;Node3 -->
<g id="edge2" class="edge"><title>Node1&#45;&gt;Node3</title>
<path fill="none" stroke="orange" d="M313.5,-333.214C313.5,-309.424 313.5,-280.162 313.5,-257.146"/>
<polygon fill="orange" stroke="orange" points="310,-333.378 313.5,-343.378 317,-333.378 310,-333.378"/>
<text text-anchor="middle" x="386" y="-317" font-family="Helvetica,sans-Serif" font-size="10.00"> &lt; MessageServerConfiguration &gt;</text>
</g>
<!-- Node5 -->
<g id="node5" class="node"><title>Node5</title>
<g id="a_node5"><a xlink:href="class_pinknose_1_1_distributed_workers_1_1_configuration_1_1_message_client_configuration_base.html" target="_top" xlink:title=" ">
<polygon fill="white" stroke="black" points="430,-178 430,-257 627,-257 627,-178 430,-178"/>
<text text-anchor="start" x="438" y="-245" font-family="Helvetica,sans-Serif" font-size="10.00">Pinknose.DistributedWorkers.</text>
<text text-anchor="start" x="438" y="-234" font-family="Helvetica,sans-Serif" font-size="10.00">Configuration.MessageClientConfiguration</text>
<text text-anchor="middle" x="528.5" y="-223" font-family="Helvetica,sans-Serif" font-size="10.00">Base&lt; MessageClientConfiguration &gt;</text>
<polyline fill="none" stroke="black" points="430,-216 627,-216 "/>
<text text-anchor="middle" x="528.5" y="-204" font-family="Helvetica,sans-Serif" font-size="10.00"> </text>
<polyline fill="none" stroke="black" points="430,-197 627,-197 "/>
<text text-anchor="middle" x="528.5" y="-185" font-family="Helvetica,sans-Serif" font-size="10.00"> </text>
</a>
</g>
</g>
<!-- Node1&#45;&gt;Node5 -->
<g id="edge4" class="edge"><title>Node1&#45;&gt;Node5</title>
<path fill="none" stroke="orange" d="M432.233,-344.121C443.014,-338.673 453.314,-332.343 462.5,-325 484.757,-307.207 501.518,-279.736 512.58,-257.152"/>
<polygon fill="orange" stroke="orange" points="430.593,-341.026 423.077,-348.494 433.61,-347.342 430.593,-341.026"/>
<text text-anchor="middle" x="543.5" y="-317" font-family="Helvetica,sans-Serif" font-size="10.00"> &lt; MessageClientConfiguration &gt;</text>
</g>
<!-- Node4 -->
<g id="node4" class="node"><title>Node4</title>
<g id="a_node4"><a xlink:href="class_pinknose_1_1_distributed_workers_1_1_configuration_1_1_message_server_configuration.html" target="_top" xlink:title=" ">
<polygon fill="white" stroke="black" points="213,-0.5 213,-101.5 412,-101.5 412,-0.5 213,-0.5"/>
<text text-anchor="start" x="221" y="-89.5" font-family="Helvetica,sans-Serif" font-size="10.00">Pinknose.DistributedWorkers.</text>
<text text-anchor="middle" x="312.5" y="-78.5" font-family="Helvetica,sans-Serif" font-size="10.00">Configuration.MessageServerConfiguration</text>
<polyline fill="none" stroke="black" points="213,-71.5 412,-71.5 "/>
<text text-anchor="middle" x="312.5" y="-59.5" font-family="Helvetica,sans-Serif" font-size="10.00"> </text>
<polyline fill="none" stroke="black" points="213,-52.5 412,-52.5 "/>
<text text-anchor="start" x="221" y="-40.5" font-family="Helvetica,sans-Serif" font-size="10.00">+ AddClientInfo()</text>
<text text-anchor="start" x="221" y="-29.5" font-family="Helvetica,sans-Serif" font-size="10.00">+ AddClientInfoRange()</text>
<text text-anchor="start" x="221" y="-18.5" font-family="Helvetica,sans-Serif" font-size="10.00">+ ServerInfo()</text>
<text text-anchor="start" x="221" y="-7.5" font-family="Helvetica,sans-Serif" font-size="10.00">+ CreateMessageServer()</text>
</a>
</g>
</g>
<!-- Node3&#45;&gt;Node4 -->
<g id="edge3" class="edge"><title>Node3&#45;&gt;Node4</title>
<path fill="none" stroke="midnightblue" d="M313.203,-167.688C313.076,-146.827 312.929,-122.507 312.801,-101.565"/>
<polygon fill="none" stroke="midnightblue" points="309.705,-167.954 313.266,-177.932 316.705,-167.911 309.705,-167.954"/>
</g>
<!-- Node6 -->
<g id="node6" class="node"><title>Node6</title>
<g id="a_node6"><a xlink:href="class_pinknose_1_1_distributed_workers_1_1_configuration_1_1_message_client_configuration.html" target="_top" xlink:title=" ">
<polygon fill="white" stroke="black" points="430,-6 430,-96 627,-96 627,-6 430,-6"/>
<text text-anchor="start" x="438" y="-84" font-family="Helvetica,sans-Serif" font-size="10.00">Pinknose.DistributedWorkers.</text>
<text text-anchor="middle" x="528.5" y="-73" font-family="Helvetica,sans-Serif" font-size="10.00">Configuration.MessageClientConfiguration</text>
<polyline fill="none" stroke="black" points="430,-66 627,-66 "/>
<text text-anchor="middle" x="528.5" y="-54" font-family="Helvetica,sans-Serif" font-size="10.00"> </text>
<polyline fill="none" stroke="black" points="430,-47 627,-47 "/>
<text text-anchor="start" x="438" y="-35" font-family="Helvetica,sans-Serif" font-size="10.00">+ ClientInfo()</text>
<text text-anchor="start" x="438" y="-24" font-family="Helvetica,sans-Serif" font-size="10.00">+ ServerInfo()</text>
<text text-anchor="start" x="438" y="-13" font-family="Helvetica,sans-Serif" font-size="10.00">+ CreateMessageClient()</text>
</a>
</g>
</g>
<!-- Node5&#45;&gt;Node6 -->
<g id="edge5" class="edge"><title>Node5&#45;&gt;Node6</title>
<path fill="none" stroke="midnightblue" d="M528.5,-167.816C528.5,-145.099 528.5,-118.258 528.5,-96.1387"/>
<polygon fill="none" stroke="midnightblue" points="525,-167.932 528.5,-177.932 532,-167.932 525,-167.932"/>
</g>
</g>
</svg>
