<?xml version="1.0" encoding="UTF-8" standalone="no"?>
<!DOCTYPE svg PUBLIC "-//W3C//DTD SVG 1.1//EN"
 "http://www.w3.org/Graphics/SVG/1.1/DTD/svg11.dtd">
<!-- Generated by graphviz version 2.38.0 (20140413.2041)
 -->
<!-- Title: Pinknose.DistributedWorkers.Messages.HeartbeatMessage Pages: 1 -->
<svg width="154pt" height="226pt"
 viewBox="0.00 0.00 154.00 226.00" xmlns="http://www.w3.org/2000/svg" xmlns:xlink="http://www.w3.org/1999/xlink">
<g id="graph0" class="graph" transform="scale(1 1) rotate(0) translate(4 222)">
<title>Pinknose.DistributedWorkers.Messages.HeartbeatMessage</title>
<polygon fill="white" stroke="none" points="-4,4 -4,-222 150,-222 150,4 -4,4"/>
<!-- Node1 -->
<g id="node1" class="node"><title>Node1</title>
<g id="a_node1"><a xlink:title=" ">
<polygon fill="#bfbfbf" stroke="black" points="0,-0.5 0,-68.5 146,-68.5 146,-0.5 0,-0.5"/>
<text text-anchor="start" x="8" y="-56.5" font-family="Helvetica,sans-Serif" font-size="10.00">Pinknose.DistributedWorkers.</text>
<text text-anchor="middle" x="73" y="-45.5" font-family="Helvetica,sans-Serif" font-size="10.00">Messages.HeartbeatMessage</text>
<polyline fill="none" stroke="black" points="0,-38.5 146,-38.5 "/>
<text text-anchor="start" x="8" y="-26.5" font-family="Helvetica,sans-Serif" font-size="10.00">+ MessageTypeGuid</text>
<polyline fill="none" stroke="black" points="0,-19.5 146,-19.5 "/>
<text text-anchor="start" x="8" y="-7.5" font-family="Helvetica,sans-Serif" font-size="10.00">+ HeartbeatMessage()</text>
</a>
</g>
</g>
<!-- Node2 -->
<g id="node2" class="node"><title>Node2</title>
<g id="a_node2"><a xlink:href="class_pinknose_1_1_distributed_workers_1_1_messages_1_1_message_base.html" target="_top" xlink:title="A message which is passed between client and server.">
<polygon fill="white" stroke="black" points="1.5,-105.5 1.5,-217.5 144.5,-217.5 144.5,-105.5 1.5,-105.5"/>
<text text-anchor="middle" x="73" y="-205.5" font-family="Helvetica,sans-Serif" font-size="10.00">MessageBase</text>
<polyline fill="none" stroke="black" points="1.5,-198.5 144.5,-198.5 "/>
<text text-anchor="start" x="9.5" y="-186.5" font-family="Helvetica,sans-Serif" font-size="10.00">+ MessageText</text>
<text text-anchor="start" x="9.5" y="-175.5" font-family="Helvetica,sans-Serif" font-size="10.00">+ MessageTypeGuid</text>
<text text-anchor="start" x="9.5" y="-164.5" font-family="Helvetica,sans-Serif" font-size="10.00">+ SignatureVerificationStatus</text>
<polyline fill="none" stroke="black" points="1.5,-157.5 144.5,-157.5 "/>
<text text-anchor="start" x="9.5" y="-145.5" font-family="Helvetica,sans-Serif" font-size="10.00">+ MessageBase()</text>
<text text-anchor="start" x="9.5" y="-134.5" font-family="Helvetica,sans-Serif" font-size="10.00">~ ReverifySignature()</text>
<text text-anchor="start" x="9.5" y="-123.5" font-family="Helvetica,sans-Serif" font-size="10.00">~ Serialize()</text>
<text text-anchor="start" x="9.5" y="-112.5" font-family="Helvetica,sans-Serif" font-size="10.00">~ Deserialize()</text>
</a>
</g>
</g>
<!-- Node2&#45;&gt;Node1 -->
<g id="edge1" class="edge"><title>Node2&#45;&gt;Node1</title>
<path fill="none" stroke="midnightblue" d="M73,-95.2571C73,-85.9867 73,-76.797 73,-68.5058"/>
<polygon fill="none" stroke="midnightblue" points="69.5001,-95.3093 73,-105.309 76.5001,-95.3094 69.5001,-95.3093"/>
</g>
</g>
</svg>
