<?xml version="1.0" encoding="UTF-8" standalone="no"?>
<!DOCTYPE svg PUBLIC "-//W3C//DTD SVG 1.1//EN"
 "http://www.w3.org/Graphics/SVG/1.1/DTD/svg11.dtd">
<!-- Generated by graphviz version 2.38.0 (20140413.2041)
 -->
<!-- Title: Pinknose.DistributedWorkers.Clients.MessageClientInfo Pages: 1 -->
<svg width="162pt" height="292pt"
 viewBox="0.00 0.00 162.00 292.00" xmlns="http://www.w3.org/2000/svg" xmlns:xlink="http://www.w3.org/1999/xlink">
<g id="graph0" class="graph" transform="scale(1 1) rotate(0) translate(4 288)">
<title>Pinknose.DistributedWorkers.Clients.MessageClientInfo</title>
<polygon fill="white" stroke="none" points="-4,4 -4,-288 158,-288 158,4 -4,4"/>
<!-- Node1 -->
<g id="node1" class="node"><title>Node1</title>
<g id="a_node1"><a xlink:title=" ">
<polygon fill="#bfbfbf" stroke="black" points="3.5,-0.5 3.5,-189.5 149.5,-189.5 149.5,-0.5 3.5,-0.5"/>
<text text-anchor="start" x="11.5" y="-177.5" font-family="Helvetica,sans-Serif" font-size="10.00">Pinknose.DistributedWorkers.</text>
<text text-anchor="middle" x="76.5" y="-166.5" font-family="Helvetica,sans-Serif" font-size="10.00">Clients.MessageClientInfo</text>
<polyline fill="none" stroke="black" points="3.5,-159.5 149.5,-159.5 "/>
<text text-anchor="start" x="11.5" y="-147.5" font-family="Helvetica,sans-Serif" font-size="10.00">+ Dsa</text>
<text text-anchor="start" x="11.5" y="-136.5" font-family="Helvetica,sans-Serif" font-size="10.00">+ ECKey</text>
<text text-anchor="start" x="11.5" y="-125.5" font-family="Helvetica,sans-Serif" font-size="10.00">+ Name</text>
<text text-anchor="start" x="11.5" y="-114.5" font-family="Helvetica,sans-Serif" font-size="10.00">+ SystemName</text>
<text text-anchor="start" x="11.5" y="-103.5" font-family="Helvetica,sans-Serif" font-size="10.00">~ DedicatedQueueName</text>
<polyline fill="none" stroke="black" points="3.5,-96.5 149.5,-96.5 "/>
<text text-anchor="start" x="11.5" y="-84.5" font-family="Helvetica,sans-Serif" font-size="10.00">+ Dispose()</text>
<text text-anchor="start" x="11.5" y="-73.5" font-family="Helvetica,sans-Serif" font-size="10.00">+ GetObjectData()</text>
<text text-anchor="start" x="11.5" y="-62.5" font-family="Helvetica,sans-Serif" font-size="10.00">+ CreateClientInfo()</text>
<text text-anchor="start" x="11.5" y="-51.5" font-family="Helvetica,sans-Serif" font-size="10.00">+ CreateServerInfo()</text>
<text text-anchor="start" x="11.5" y="-40.5" font-family="Helvetica,sans-Serif" font-size="10.00">~ MessageClientInfo()</text>
<text text-anchor="start" x="11.5" y="-29.5" font-family="Helvetica,sans-Serif" font-size="10.00">~ MessageClientInfo()</text>
<text text-anchor="start" x="11.5" y="-18.5" font-family="Helvetica,sans-Serif" font-size="10.00"># MessageClientInfo()</text>
<text text-anchor="start" x="11.5" y="-7.5" font-family="Helvetica,sans-Serif" font-size="10.00"># Dispose()</text>
</a>
</g>
</g>
<!-- Node2 -->
<g id="node2" class="node"><title>Node2</title>
<g id="a_node2"><a xlink:title=" ">
<polygon fill="white" stroke="#bfbfbf" points="0,-226.5 0,-283.5 67,-283.5 67,-226.5 0,-226.5"/>
<text text-anchor="middle" x="33.5" y="-271.5" font-family="Helvetica,sans-Serif" font-size="10.00">IDisposable</text>
<polyline fill="none" stroke="#bfbfbf" points="0,-264.5 67,-264.5 "/>
<text text-anchor="middle" x="33.5" y="-252.5" font-family="Helvetica,sans-Serif" font-size="10.00"> </text>
<polyline fill="none" stroke="#bfbfbf" points="0,-245.5 67,-245.5 "/>
<text text-anchor="middle" x="33.5" y="-233.5" font-family="Helvetica,sans-Serif" font-size="10.00"> </text>
</a>
</g>
</g>
<!-- Node2&#45;&gt;Node1 -->
<g id="edge1" class="edge"><title>Node2&#45;&gt;Node1</title>
<path fill="none" stroke="midnightblue" d="M43.6331,-216.767C45.9053,-208.418 48.4152,-199.195 51.0052,-189.678"/>
<polygon fill="none" stroke="midnightblue" points="40.2389,-215.91 40.99,-226.479 46.9933,-217.749 40.2389,-215.91"/>
</g>
<!-- Node3 -->
<g id="node3" class="node"><title>Node3</title>
<g id="a_node3"><a xlink:title=" ">
<polygon fill="white" stroke="#bfbfbf" points="85,-226.5 85,-283.5 154,-283.5 154,-226.5 85,-226.5"/>
<text text-anchor="middle" x="119.5" y="-271.5" font-family="Helvetica,sans-Serif" font-size="10.00">ISerializable</text>
<polyline fill="none" stroke="#bfbfbf" points="85,-264.5 154,-264.5 "/>
<text text-anchor="middle" x="119.5" y="-252.5" font-family="Helvetica,sans-Serif" font-size="10.00"> </text>
<polyline fill="none" stroke="#bfbfbf" points="85,-245.5 154,-245.5 "/>
<text text-anchor="middle" x="119.5" y="-233.5" font-family="Helvetica,sans-Serif" font-size="10.00"> </text>
</a>
</g>
</g>
<!-- Node3&#45;&gt;Node1 -->
<g id="edge2" class="edge"><title>Node3&#45;&gt;Node1</title>
<path fill="none" stroke="midnightblue" d="M109.367,-216.767C107.095,-208.418 104.585,-199.195 101.995,-189.678"/>
<polygon fill="none" stroke="midnightblue" points="106.007,-217.749 112.01,-226.479 112.761,-215.91 106.007,-217.749"/>
</g>
</g>
</svg>
