<?xml version="1.0" encoding="UTF-8" standalone="no"?>
<!DOCTYPE svg PUBLIC "-//W3C//DTD SVG 1.1//EN"
 "http://www.w3.org/Graphics/SVG/1.1/DTD/svg11.dtd">
<!-- Generated by graphviz version 2.38.0 (20140413.2041)
 -->
<!-- Title: Pinknose.DistributedWorkers.Exceptions.AsynchronousExceptionEventArgs Pages: 1 -->
<svg width="182pt" height="106pt"
 viewBox="0.00 0.00 182.00 106.00" xmlns="http://www.w3.org/2000/svg" xmlns:xlink="http://www.w3.org/1999/xlink">
<g id="graph0" class="graph" transform="scale(1 1) rotate(0) translate(4 102)">
<title>Pinknose.DistributedWorkers.Exceptions.AsynchronousExceptionEventArgs</title>
<polygon fill="white" stroke="none" points="-4,4 -4,-102 178,-102 178,4 -4,4"/>
<!-- Node1 -->
<g id="node1" class="node"><title>Node1</title>
<g id="a_node1"><a xlink:title=" ">
<polygon fill="#bfbfbf" stroke="black" points="0,-0.5 0,-41.5 174,-41.5 174,-0.5 0,-0.5"/>
<text text-anchor="start" x="8" y="-29.5" font-family="Helvetica,sans-Serif" font-size="10.00">Pinknose.DistributedWorkers.</text>
<text text-anchor="start" x="8" y="-18.5" font-family="Helvetica,sans-Serif" font-size="10.00">Exceptions.AsynchronousException</text>
<text text-anchor="middle" x="87" y="-7.5" font-family="Helvetica,sans-Serif" font-size="10.00">EventArgs</text>
</a>
</g>
</g>
<!-- Node2 -->
<g id="node2" class="node"><title>Node2</title>
<g id="a_node2"><a xlink:title=" ">
<polygon fill="white" stroke="#bfbfbf" points="56.5,-78.5 56.5,-97.5 117.5,-97.5 117.5,-78.5 56.5,-78.5"/>
<text text-anchor="middle" x="87" y="-85.5" font-family="Helvetica,sans-Serif" font-size="10.00">EventArgs</text>
</a>
</g>
</g>
<!-- Node2&#45;&gt;Node1 -->
<g id="edge1" class="edge"><title>Node2&#45;&gt;Node1</title>
<path fill="none" stroke="midnightblue" d="M87,-68.037C87,-59.7084 87,-49.9358 87,-41.5421"/>
<polygon fill="midnightblue" stroke="midnightblue" points="83.5001,-68.2338 87,-78.2338 90.5001,-68.2338 83.5001,-68.2338"/>
</g>
</g>
</svg>
