<?xml version="1.0" encoding="UTF-8" standalone="no"?>
<!DOCTYPE svg PUBLIC "-//W3C//DTD SVG 1.1//EN"
 "http://www.w3.org/Graphics/SVG/1.1/DTD/svg11.dtd">
<!-- Generated by graphviz version 2.38.0 (20140413.2041)
 -->
<!-- Title: Pinknose.DistributedWorkers.Messages.MessageBase Pages: 1 -->
<svg width="1274pt" height="592pt"
 viewBox="0.00 0.00 1274.00 592.00" xmlns="http://www.w3.org/2000/svg" xmlns:xlink="http://www.w3.org/1999/xlink">
<g id="graph0" class="graph" transform="scale(1 1) rotate(0) translate(4 588)">
<title>Pinknose.DistributedWorkers.Messages.MessageBase</title>
<polygon fill="white" stroke="none" points="-4,4 -4,-588 1270,-588 1270,4 -4,4"/>
<!-- Node1 -->
<g id="node1" class="node"><title>Node1</title>
<g id="a_node1"><a xlink:title="A message which is passed between client and server.">
<polygon fill="#bfbfbf" stroke="black" points="596.5,-460.5 596.5,-583.5 742.5,-583.5 742.5,-460.5 596.5,-460.5"/>
<text text-anchor="start" x="604.5" y="-571.5" font-family="Helvetica,sans-Serif" font-size="10.00">Pinknose.DistributedWorkers.</text>
<text text-anchor="middle" x="669.5" y="-560.5" font-family="Helvetica,sans-Serif" font-size="10.00">Messages.MessageBase</text>
<polyline fill="none" stroke="black" points="596.5,-553.5 742.5,-553.5 "/>
<text text-anchor="start" x="604.5" y="-541.5" font-family="Helvetica,sans-Serif" font-size="10.00">+ MessageText</text>
<text text-anchor="start" x="604.5" y="-530.5" font-family="Helvetica,sans-Serif" font-size="10.00">+ MessageTypeGuid</text>
<text text-anchor="start" x="604.5" y="-519.5" font-family="Helvetica,sans-Serif" font-size="10.00">+ SignatureVerificationStatus</text>
<polyline fill="none" stroke="black" points="596.5,-512.5 742.5,-512.5 "/>
<text text-anchor="start" x="604.5" y="-500.5" font-family="Helvetica,sans-Serif" font-size="10.00">+ MessageBase()</text>
<text text-anchor="start" x="604.5" y="-489.5" font-family="Helvetica,sans-Serif" font-size="10.00">~ ReverifySignature()</text>
<text text-anchor="start" x="604.5" y="-478.5" font-family="Helvetica,sans-Serif" font-size="10.00">~ Serialize()</text>
<text text-anchor="start" x="604.5" y="-467.5" font-family="Helvetica,sans-Serif" font-size="10.00">~ Deserialize()</text>
</a>
</g>
</g>
<!-- Node2 -->
<g id="node2" class="node"><title>Node2</title>
<g id="a_node2"><a xlink:title=" ">
<polygon fill="white" stroke="#bfbfbf" points="0,-316 0,-395 173,-395 173,-316 0,-316"/>
<text text-anchor="start" x="8" y="-383" font-family="Helvetica,sans-Serif" font-size="10.00">Pinknose.DistributedWorkers.</text>
<text text-anchor="middle" x="86.5" y="-372" font-family="Helvetica,sans-Serif" font-size="10.00">Messages.ClientAnnounceMessage</text>
<polyline fill="none" stroke="#bfbfbf" points="0,-365 173,-365 "/>
<text text-anchor="start" x="8" y="-353" font-family="Helvetica,sans-Serif" font-size="10.00">+ MessageTypeGuid</text>
<text text-anchor="start" x="8" y="-342" font-family="Helvetica,sans-Serif" font-size="10.00">+ PublicKey</text>
<polyline fill="none" stroke="#bfbfbf" points="0,-335 173,-335 "/>
<text text-anchor="start" x="8" y="-323" font-family="Helvetica,sans-Serif" font-size="10.00">~ ClientAnnounceMessage()</text>
</a>
</g>
</g>
<!-- Node1&#45;&gt;Node2 -->
<g id="edge1" class="edge"><title>Node1&#45;&gt;Node2</title>
<path fill="none" stroke="midnightblue" d="M586.431,-514.767C486.777,-504.963 316.291,-480.698 181.5,-423 164.843,-415.87 148.156,-405.534 133.519,-395.128"/>
<polygon fill="none" stroke="midnightblue" points="586.155,-518.257 596.444,-515.727 586.823,-511.288 586.155,-518.257"/>
</g>
<!-- Node3 -->
<g id="node3" class="node"><title>Node3</title>
<g id="a_node3"><a xlink:title=" ">
<polygon fill="white" stroke="#bfbfbf" points="191,-299.5 191,-411.5 374,-411.5 374,-299.5 191,-299.5"/>
<text text-anchor="start" x="199" y="-399.5" font-family="Helvetica,sans-Serif" font-size="10.00">Pinknose.DistributedWorkers.</text>
<text text-anchor="start" x="199" y="-388.5" font-family="Helvetica,sans-Serif" font-size="10.00">Messages.ClientAnnounceResponse</text>
<text text-anchor="middle" x="282.5" y="-377.5" font-family="Helvetica,sans-Serif" font-size="10.00">Message</text>
<polyline fill="none" stroke="#bfbfbf" points="191,-370.5 374,-370.5 "/>
<text text-anchor="start" x="199" y="-358.5" font-family="Helvetica,sans-Serif" font-size="10.00">+ MessageTypeGuid</text>
<text text-anchor="start" x="199" y="-347.5" font-family="Helvetica,sans-Serif" font-size="10.00">+ Response</text>
<text text-anchor="start" x="199" y="-336.5" font-family="Helvetica,sans-Serif" font-size="10.00">+ SystemSharedKey</text>
<text text-anchor="start" x="199" y="-325.5" font-family="Helvetica,sans-Serif" font-size="10.00">+ SystemSharedKeyId</text>
<polyline fill="none" stroke="#bfbfbf" points="191,-318.5 374,-318.5 "/>
<text text-anchor="start" x="199" y="-306.5" font-family="Helvetica,sans-Serif" font-size="10.00">~ ClientAnnounceResponseMessage()</text>
</a>
</g>
</g>
<!-- Node1&#45;&gt;Node3 -->
<g id="edge2" class="edge"><title>Node1&#45;&gt;Node3</title>
<path fill="none" stroke="midnightblue" d="M586.475,-498.601C528.175,-481.433 449.2,-455.24 383.5,-423 376.432,-419.532 369.268,-415.653 362.187,-411.557"/>
<polygon fill="none" stroke="midnightblue" points="585.798,-502.05 596.378,-501.49 587.758,-495.33 585.798,-502.05"/>
</g>
<!-- Node4 -->
<g id="node4" class="node"><title>Node4</title>
<g id="a_node4"><a xlink:title=" ">
<polygon fill="white" stroke="#bfbfbf" points="392.5,-316 392.5,-395 578.5,-395 578.5,-316 392.5,-316"/>
<text text-anchor="start" x="400.5" y="-383" font-family="Helvetica,sans-Serif" font-size="10.00">Pinknose.DistributedWorkers.</text>
<text text-anchor="start" x="400.5" y="-372" font-family="Helvetica,sans-Serif" font-size="10.00">Messages.ClientReannounceRequest</text>
<text text-anchor="middle" x="485.5" y="-361" font-family="Helvetica,sans-Serif" font-size="10.00">Message</text>
<polyline fill="none" stroke="#bfbfbf" points="392.5,-354 578.5,-354 "/>
<text text-anchor="start" x="400.5" y="-342" font-family="Helvetica,sans-Serif" font-size="10.00">+ MessageTypeGuid</text>
<polyline fill="none" stroke="#bfbfbf" points="392.5,-335 578.5,-335 "/>
<text text-anchor="start" x="400.5" y="-323" font-family="Helvetica,sans-Serif" font-size="10.00">+ ClientReannounceRequestMessage()</text>
</a>
</g>
</g>
<!-- Node1&#45;&gt;Node4 -->
<g id="edge3" class="edge"><title>Node1&#45;&gt;Node4</title>
<path fill="none" stroke="midnightblue" d="M594.271,-453.743C571.982,-433.817 548.335,-412.676 528.802,-395.213"/>
<polygon fill="none" stroke="midnightblue" points="591.981,-456.391 601.769,-460.447 596.647,-451.173 591.981,-456.391"/>
</g>
<!-- Node5 -->
<g id="node5" class="node"><title>Node5</title>
<g id="a_node5"><a xlink:href="class_pinknose_1_1_distributed_workers_1_1_messages_1_1_heartbeat_message.html" target="_top" xlink:title=" ">
<polygon fill="white" stroke="black" points="596.5,-321.5 596.5,-389.5 742.5,-389.5 742.5,-321.5 596.5,-321.5"/>
<text text-anchor="start" x="604.5" y="-377.5" font-family="Helvetica,sans-Serif" font-size="10.00">Pinknose.DistributedWorkers.</text>
<text text-anchor="middle" x="669.5" y="-366.5" font-family="Helvetica,sans-Serif" font-size="10.00">Messages.HeartbeatMessage</text>
<polyline fill="none" stroke="black" points="596.5,-359.5 742.5,-359.5 "/>
<text text-anchor="start" x="604.5" y="-347.5" font-family="Helvetica,sans-Serif" font-size="10.00">+ MessageTypeGuid</text>
<polyline fill="none" stroke="black" points="596.5,-340.5 742.5,-340.5 "/>
<text text-anchor="start" x="604.5" y="-328.5" font-family="Helvetica,sans-Serif" font-size="10.00">+ HeartbeatMessage()</text>
</a>
</g>
</g>
<!-- Node1&#45;&gt;Node5 -->
<g id="edge4" class="edge"><title>Node1&#45;&gt;Node5</title>
<path fill="none" stroke="midnightblue" d="M669.5,-450.046C669.5,-429.122 669.5,-407.204 669.5,-389.848"/>
<polygon fill="none" stroke="midnightblue" points="666,-450.214 669.5,-460.214 673,-450.214 666,-450.214"/>
</g>
<!-- Node6 -->
<g id="node6" class="node"><title>Node6</title>
<g id="a_node6"><a xlink:href="class_pinknose_1_1_distributed_workers_1_1_messages_1_1_payload_message.html" target="_top" xlink:title="A message that has a strongly&#45;typed payload. There are a variety of options for compression or serial...">
<polygon fill="white" stroke="black" points="760.5,-288.5 760.5,-422.5 906.5,-422.5 906.5,-288.5 760.5,-288.5"/>
<text text-anchor="start" x="768.5" y="-410.5" font-family="Helvetica,sans-Serif" font-size="10.00">Pinknose.DistributedWorkers.</text>
<text text-anchor="start" x="768.5" y="-399.5" font-family="Helvetica,sans-Serif" font-size="10.00">Messages.PayloadMessage</text>
<text text-anchor="middle" x="833.5" y="-388.5" font-family="Helvetica,sans-Serif" font-size="10.00">&lt; TPayload &gt;</text>
<polyline fill="none" stroke="black" points="760.5,-381.5 906.5,-381.5 "/>
<text text-anchor="start" x="768.5" y="-369.5" font-family="Helvetica,sans-Serif" font-size="10.00">+ Payload</text>
<text text-anchor="start" x="768.5" y="-358.5" font-family="Helvetica,sans-Serif" font-size="10.00">+ PayloadTypeName</text>
<text text-anchor="start" x="768.5" y="-347.5" font-family="Helvetica,sans-Serif" font-size="10.00">+ KeepPayloadCompressed</text>
<text text-anchor="start" x="768.5" y="-336.5" font-family="Helvetica,sans-Serif" font-size="10.00">+ PayloadInternal</text>
<text text-anchor="start" x="768.5" y="-325.5" font-family="Helvetica,sans-Serif" font-size="10.00">+ PayloadIsCompressed</text>
<text text-anchor="start" x="768.5" y="-314.5" font-family="Helvetica,sans-Serif" font-size="10.00">+ PayloadIsJsonSerialized</text>
<polyline fill="none" stroke="black" points="760.5,-307.5 906.5,-307.5 "/>
<text text-anchor="start" x="768.5" y="-295.5" font-family="Helvetica,sans-Serif" font-size="10.00">+ PayloadMessage()</text>
</a>
</g>
</g>
<!-- Node1&#45;&gt;Node6 -->
<g id="edge5" class="edge"><title>Node1&#45;&gt;Node6</title>
<path fill="none" stroke="midnightblue" d="M737.335,-452.958C747.352,-442.911 757.659,-432.572 767.635,-422.566"/>
<polygon fill="none" stroke="midnightblue" points="734.683,-450.661 730.102,-460.214 739.641,-455.603 734.683,-450.661"/>
</g>
<!-- Node9 -->
<g id="node9" class="node"><title>Node9</title>
<g id="a_node9"><a xlink:href="class_pinknose_1_1_distributed_workers_1_1_messages_1_1_public_key_update.html" target="_top" xlink:title=" ">
<polygon fill="white" stroke="black" points="924.5,-316 924.5,-395 1070.5,-395 1070.5,-316 924.5,-316"/>
<text text-anchor="start" x="932.5" y="-383" font-family="Helvetica,sans-Serif" font-size="10.00">Pinknose.DistributedWorkers.</text>
<text text-anchor="middle" x="997.5" y="-372" font-family="Helvetica,sans-Serif" font-size="10.00">Messages.PublicKeyUpdate</text>
<polyline fill="none" stroke="black" points="924.5,-365 1070.5,-365 "/>
<text text-anchor="start" x="932.5" y="-353" font-family="Helvetica,sans-Serif" font-size="10.00">+ MessageTypeGuid</text>
<text text-anchor="start" x="932.5" y="-342" font-family="Helvetica,sans-Serif" font-size="10.00">+ ClientInfo</text>
<polyline fill="none" stroke="black" points="924.5,-335 1070.5,-335 "/>
<text text-anchor="start" x="932.5" y="-323" font-family="Helvetica,sans-Serif" font-size="10.00">+ PublicKeyUpdate()</text>
</a>
</g>
</g>
<!-- Node1&#45;&gt;Node9 -->
<g id="edge8" class="edge"><title>Node1&#45;&gt;Node9</title>
<path fill="none" stroke="midnightblue" d="M752.326,-495.053C801.462,-477.965 864.004,-453.189 915.5,-423 928.94,-415.121 942.496,-405.142 954.608,-395.328"/>
<polygon fill="none" stroke="midnightblue" points="751.003,-491.807 742.684,-498.367 753.279,-498.426 751.003,-491.807"/>
</g>
<!-- Node10 -->
<g id="node10" class="node"><title>Node10</title>
<g id="a_node10"><a xlink:href="class_pinknose_1_1_distributed_workers_1_1_messages_1_1_system_shared_key_update.html" target="_top" xlink:title=" ">
<polygon fill="white" stroke="black" points="1089,-316 1089,-395 1266,-395 1266,-316 1089,-316"/>
<text text-anchor="start" x="1097" y="-383" font-family="Helvetica,sans-Serif" font-size="10.00">Pinknose.DistributedWorkers.</text>
<text text-anchor="middle" x="1177.5" y="-372" font-family="Helvetica,sans-Serif" font-size="10.00">Messages.SystemSharedKeyUpdate</text>
<polyline fill="none" stroke="black" points="1089,-365 1266,-365 "/>
<text text-anchor="start" x="1097" y="-353" font-family="Helvetica,sans-Serif" font-size="10.00">+ MessageTypeGuid</text>
<text text-anchor="start" x="1097" y="-342" font-family="Helvetica,sans-Serif" font-size="10.00">+ AesKey</text>
<polyline fill="none" stroke="black" points="1089,-335 1266,-335 "/>
<text text-anchor="start" x="1097" y="-323" font-family="Helvetica,sans-Serif" font-size="10.00">+ SystemSharedKeyUpdate()</text>
</a>
</g>
</g>
<!-- Node1&#45;&gt;Node10 -->
<g id="edge9" class="edge"><title>Node1&#45;&gt;Node10</title>
<path fill="none" stroke="midnightblue" d="M752.889,-510.105C837.795,-496.96 971.882,-470.468 1079.5,-423 1096.24,-415.615 1113.19,-405.327 1128.17,-395.048"/>
<polygon fill="none" stroke="midnightblue" points="752.143,-506.678 742.783,-511.643 753.196,-513.599 752.143,-506.678"/>
</g>
<!-- Node7 -->
<g id="node7" class="node"><title>Node7</title>
<g id="a_node7"><a xlink:href="class_pinknose_1_1_distributed_workers_1_1_messages_1_1_payload_message.html" target="_top" xlink:title=" ">
<polygon fill="white" stroke="black" points="760.5,-106.5 760.5,-240.5 906.5,-240.5 906.5,-106.5 760.5,-106.5"/>
<text text-anchor="start" x="768.5" y="-228.5" font-family="Helvetica,sans-Serif" font-size="10.00">Pinknose.DistributedWorkers.</text>
<text text-anchor="start" x="768.5" y="-217.5" font-family="Helvetica,sans-Serif" font-size="10.00">Messages.PayloadMessage</text>
<text text-anchor="middle" x="833.5" y="-206.5" font-family="Helvetica,sans-Serif" font-size="10.00">&lt; LogEvent &gt;</text>
<polyline fill="none" stroke="black" points="760.5,-199.5 906.5,-199.5 "/>
<text text-anchor="start" x="768.5" y="-187.5" font-family="Helvetica,sans-Serif" font-size="10.00">+ Payload</text>
<text text-anchor="start" x="768.5" y="-176.5" font-family="Helvetica,sans-Serif" font-size="10.00">+ PayloadTypeName</text>
<text text-anchor="start" x="768.5" y="-165.5" font-family="Helvetica,sans-Serif" font-size="10.00">+ KeepPayloadCompressed</text>
<text text-anchor="start" x="768.5" y="-154.5" font-family="Helvetica,sans-Serif" font-size="10.00">+ PayloadInternal</text>
<text text-anchor="start" x="768.5" y="-143.5" font-family="Helvetica,sans-Serif" font-size="10.00">+ PayloadIsCompressed</text>
<text text-anchor="start" x="768.5" y="-132.5" font-family="Helvetica,sans-Serif" font-size="10.00">+ PayloadIsJsonSerialized</text>
<polyline fill="none" stroke="black" points="760.5,-125.5 906.5,-125.5 "/>
<text text-anchor="start" x="768.5" y="-113.5" font-family="Helvetica,sans-Serif" font-size="10.00">+ PayloadMessage()</text>
</a>
</g>
</g>
<!-- Node6&#45;&gt;Node7 -->
<g id="edge6" class="edge"><title>Node6&#45;&gt;Node7</title>
<path fill="none" stroke="orange" d="M833.5,-278.164C833.5,-265.738 833.5,-252.957 833.5,-240.796"/>
<polygon fill="orange" stroke="orange" points="830,-278.497 833.5,-288.497 837,-278.497 830,-278.497"/>
<text text-anchor="middle" x="864" y="-262" font-family="Helvetica,sans-Serif" font-size="10.00"> &lt; LogEvent &gt;</text>
</g>
<!-- Node8 -->
<g id="node8" class="node"><title>Node8</title>
<g id="a_node8"><a xlink:href="class_pinknose_1_1_distributed_workers_1_1_logging_1_1_serilog_event_message.html" target="_top" xlink:title=" ">
<polygon fill="white" stroke="black" points="760,-0.5 760,-68.5 907,-68.5 907,-0.5 760,-0.5"/>
<text text-anchor="start" x="768" y="-56.5" font-family="Helvetica,sans-Serif" font-size="10.00">Pinknose.DistributedWorkers.</text>
<text text-anchor="middle" x="833.5" y="-45.5" font-family="Helvetica,sans-Serif" font-size="10.00">Logging.SerilogEventMessage</text>
<polyline fill="none" stroke="black" points="760,-38.5 907,-38.5 "/>
<text text-anchor="start" x="768" y="-26.5" font-family="Helvetica,sans-Serif" font-size="10.00">+ MessageTypeGuid</text>
<polyline fill="none" stroke="black" points="760,-19.5 907,-19.5 "/>
<text text-anchor="start" x="768" y="-7.5" font-family="Helvetica,sans-Serif" font-size="10.00">+ SerilogEventMessage()</text>
</a>
</g>
</g>
<!-- Node7&#45;&gt;Node8 -->
<g id="edge7" class="edge"><title>Node7&#45;&gt;Node8</title>
<path fill="none" stroke="midnightblue" d="M833.5,-96.2563C833.5,-86.556 833.5,-77.0656 833.5,-68.5765"/>
<polygon fill="none" stroke="midnightblue" points="830,-96.4077 833.5,-106.408 837,-96.4078 830,-96.4077"/>
</g>
</g>
</svg>
