<?xml version="1.0" encoding="UTF-8" standalone="no"?>
<!DOCTYPE svg PUBLIC "-//W3C//DTD SVG 1.1//EN"
 "http://www.w3.org/Graphics/SVG/1.1/DTD/svg11.dtd">
<!-- Generated by graphviz version 2.38.0 (20140413.2041)
 -->
<!-- Title: Pinknose.DistributedWorkers.Logging.SerilogEventMessage Pages: 1 -->
<!--zoomable 559 -->
<svg id="main" version="1.1" xmlns="http://www.w3.org/2000/svg" xmlns:xlink="http://www.w3.org/1999/xlink" xml:space="preserve" onload="init(evt)">
<style type="text/css"><![CDATA[
.edge:hover path { stroke: red; }
.edge:hover polygon { stroke: red; fill: red; }
]]></style>
<script type="text/javascript"><![CDATA[
var edges = document.getElementsByTagName('g');
if (edges && edges.length) {
  for (var i=0;i<edges.length;i++) {
    if (edges[i].id.substr(0,4)=='edge') {
      edges[i].setAttribute('class','edge');
    }
  }
}
]]></script>
        <defs>
                <circle id="rim" cx="0" cy="0" r="7"/>
                <circle id="rim2" cx="0" cy="0" r="3.5"/>
                <g id="zoomPlus">
                        <use xlink:href="#rim" fill="#404040">
                                <set attributeName="fill" to="#808080" begin="zoomplus.mouseover" end="zoomplus.mouseout"/>
                        </use>
                        <path d="M-4,0h8M0,-4v8" fill="none" stroke="white" stroke-width="1.5" pointer-events="none"/>
                </g>
                <g id="zoomMin">
                        <use xlink:href="#rim" fill="#404040">
                                <set attributeName="fill" to="#808080" begin="zoomminus.mouseover" end="zoomminus.mouseout"/>
                        </use>
                        <path d="M-4,0h8" fill="none" stroke="white" stroke-width="1.5" pointer-events="none"/>
                </g>
                <g id="dirArrow">
                        <path fill="none" stroke="white" stroke-width="1.5" d="M0,-3.0v7 M-2.5,-0.5L0,-3.0L2.5,-0.5"/>
                </g>
               <g id="resetDef">
                       <use xlink:href="#rim2" fill="#404040">
                               <set attributeName="fill" to="#808080" begin="reset.mouseover" end="reset.mouseout"/>
                       </use>
               </g>
        </defs>

<script type="text/javascript">
var viewWidth = 157;
var viewHeight = 559;
var sectionId = 'dynsection-1';
</script>
<script xlink:href="svgpan.js"/>
<svg id="graph" class="graph">
<g id="viewport">
<title>Pinknose.DistributedWorkers.Logging.SerilogEventMessage</title>
<polygon fill="white" stroke="none" points="-4,4 -4,-555 153,-555 153,4 -4,4"/>
<!-- Node1 -->
<g id="node1" class="node"><title>Node1</title>
<g id="a_node1"><a xlink:title=" ">
<polygon fill="#bfbfbf" stroke="black" points="1,-0.5 1,-68.5 148,-68.5 148,-0.5 1,-0.5"/>
<text text-anchor="start" x="9" y="-56.5" font-family="Helvetica,sans-Serif" font-size="10.00">Pinknose.DistributedWorkers.</text>
<text text-anchor="middle" x="74.5" y="-45.5" font-family="Helvetica,sans-Serif" font-size="10.00">Logging.SerilogEventMessage</text>
<polyline fill="none" stroke="black" points="1,-38.5 148,-38.5 "/>
<text text-anchor="start" x="9" y="-26.5" font-family="Helvetica,sans-Serif" font-size="10.00">+ MessageTypeGuid</text>
<polyline fill="none" stroke="black" points="1,-19.5 148,-19.5 "/>
<text text-anchor="start" x="9" y="-7.5" font-family="Helvetica,sans-Serif" font-size="10.00">+ SerilogEventMessage()</text>
</a>
</g>
</g>
<!-- Node2 -->
<g id="node2" class="node"><title>Node2</title>
<g id="a_node2"><a xlink:href="class_pinknose_1_1_distributed_workers_1_1_messages_1_1_payload_message.html" target="_top" xlink:title=" ">
<polygon fill="white" stroke="black" points="0,-106.5 0,-218.5 149,-218.5 149,-106.5 0,-106.5"/>
<text text-anchor="middle" x="74.5" y="-206.5" font-family="Helvetica,sans-Serif" font-size="10.00">PayloadMessage&lt; LogEvent &gt;</text>
<polyline fill="none" stroke="black" points="0,-199.5 149,-199.5 "/>
<text text-anchor="start" x="8" y="-187.5" font-family="Helvetica,sans-Serif" font-size="10.00">+ Payload</text>
<text text-anchor="start" x="8" y="-176.5" font-family="Helvetica,sans-Serif" font-size="10.00">+ PayloadTypeName</text>
<text text-anchor="start" x="8" y="-165.5" font-family="Helvetica,sans-Serif" font-size="10.00">+ KeepPayloadCompressed</text>
<text text-anchor="start" x="8" y="-154.5" font-family="Helvetica,sans-Serif" font-size="10.00">+ PayloadInternal</text>
<text text-anchor="start" x="8" y="-143.5" font-family="Helvetica,sans-Serif" font-size="10.00">+ PayloadIsCompressed</text>
<text text-anchor="start" x="8" y="-132.5" font-family="Helvetica,sans-Serif" font-size="10.00">+ PayloadIsJsonSerialized</text>
<polyline fill="none" stroke="black" points="0,-125.5 149,-125.5 "/>
<text text-anchor="start" x="8" y="-113.5" font-family="Helvetica,sans-Serif" font-size="10.00">+ PayloadMessage()</text>
</a>
</g>
</g>
<!-- Node2&#45;&gt;Node1 -->
<g id="edge1" class="edge"><title>Node2&#45;&gt;Node1</title>
<path fill="none" stroke="midnightblue" d="M74.5,-95.9612C74.5,-86.4839 74.5,-77.0833 74.5,-68.6192"/>
<polygon fill="none" stroke="midnightblue" points="71.0001,-96.2345 74.5,-106.235 78.0001,-96.2346 71.0001,-96.2345"/>
</g>
<!-- Node3 -->
<g id="node3" class="node"><title>Node3</title>
<g id="a_node3"><a xlink:href="class_pinknose_1_1_distributed_workers_1_1_messages_1_1_payload_message.html" target="_top" xlink:title="A message that has a strongly&#45;typed payload. There are a variety of options for compression or serial...">
<polygon fill="white" stroke="black" points="1.5,-266.5 1.5,-400.5 147.5,-400.5 147.5,-266.5 1.5,-266.5"/>
<text text-anchor="start" x="9.5" y="-388.5" font-family="Helvetica,sans-Serif" font-size="10.00">Pinknose.DistributedWorkers.</text>
<text text-anchor="start" x="9.5" y="-377.5" font-family="Helvetica,sans-Serif" font-size="10.00">Messages.PayloadMessage</text>
<text text-anchor="middle" x="74.5" y="-366.5" font-family="Helvetica,sans-Serif" font-size="10.00">&lt; TPayload &gt;</text>
<polyline fill="none" stroke="black" points="1.5,-359.5 147.5,-359.5 "/>
<text text-anchor="start" x="9.5" y="-347.5" font-family="Helvetica,sans-Serif" font-size="10.00">+ Payload</text>
<text text-anchor="start" x="9.5" y="-336.5" font-family="Helvetica,sans-Serif" font-size="10.00">+ PayloadTypeName</text>
<text text-anchor="start" x="9.5" y="-325.5" font-family="Helvetica,sans-Serif" font-size="10.00">+ KeepPayloadCompressed</text>
<text text-anchor="start" x="9.5" y="-314.5" font-family="Helvetica,sans-Serif" font-size="10.00">+ PayloadInternal</text>
<text text-anchor="start" x="9.5" y="-303.5" font-family="Helvetica,sans-Serif" font-size="10.00">+ PayloadIsCompressed</text>
<text text-anchor="start" x="9.5" y="-292.5" font-family="Helvetica,sans-Serif" font-size="10.00">+ PayloadIsJsonSerialized</text>
<polyline fill="none" stroke="black" points="1.5,-285.5 147.5,-285.5 "/>
<text text-anchor="start" x="9.5" y="-273.5" font-family="Helvetica,sans-Serif" font-size="10.00">+ PayloadMessage()</text>
</a>
</g>
</g>
<!-- Node3&#45;&gt;Node2 -->
<g id="edge2" class="edge"><title>Node3&#45;&gt;Node2</title>
<path fill="none" stroke="orange" d="M74.5,-256.148C74.5,-243.531 74.5,-230.67 74.5,-218.704"/>
<polygon fill="orange" stroke="orange" points="71.0001,-256.192 74.5,-266.192 78.0001,-256.192 71.0001,-256.192"/>
<text text-anchor="middle" x="105" y="-240" font-family="Helvetica,sans-Serif" font-size="10.00"> &lt; LogEvent &gt;</text>
</g>
<!-- Node4 -->
<g id="node4" class="node"><title>Node4</title>
<g id="a_node4"><a xlink:href="class_pinknose_1_1_distributed_workers_1_1_messages_1_1_message_base.html" target="_top" xlink:title="A message which is passed between client and server.">
<polygon fill="white" stroke="black" points="3,-438.5 3,-550.5 146,-550.5 146,-438.5 3,-438.5"/>
<text text-anchor="middle" x="74.5" y="-538.5" font-family="Helvetica,sans-Serif" font-size="10.00">MessageBase</text>
<polyline fill="none" stroke="black" points="3,-531.5 146,-531.5 "/>
<text text-anchor="start" x="11" y="-519.5" font-family="Helvetica,sans-Serif" font-size="10.00">+ MessageText</text>
<text text-anchor="start" x="11" y="-508.5" font-family="Helvetica,sans-Serif" font-size="10.00">+ MessageTypeGuid</text>
<text text-anchor="start" x="11" y="-497.5" font-family="Helvetica,sans-Serif" font-size="10.00">+ SignatureVerificationStatus</text>
<polyline fill="none" stroke="black" points="3,-490.5 146,-490.5 "/>
<text text-anchor="start" x="11" y="-478.5" font-family="Helvetica,sans-Serif" font-size="10.00">+ MessageBase()</text>
<text text-anchor="start" x="11" y="-467.5" font-family="Helvetica,sans-Serif" font-size="10.00">~ ReverifySignature()</text>
<text text-anchor="start" x="11" y="-456.5" font-family="Helvetica,sans-Serif" font-size="10.00">~ Serialize()</text>
<text text-anchor="start" x="11" y="-445.5" font-family="Helvetica,sans-Serif" font-size="10.00">~ Deserialize()</text>
</a>
</g>
</g>
<!-- Node4&#45;&gt;Node3 -->
<g id="edge3" class="edge"><title>Node4&#45;&gt;Node3</title>
<path fill="none" stroke="midnightblue" d="M74.5,-428.166C74.5,-419.039 74.5,-409.653 74.5,-400.513"/>
<polygon fill="none" stroke="midnightblue" points="71.0001,-428.336 74.5,-438.336 78.0001,-428.336 71.0001,-428.336"/>
</g>
</g>
</svg>
        <g id="navigator" transform="translate(0 0)" fill="#404254">
                <rect fill="#f2f5e9" fill-opacity="0.5" stroke="#606060" stroke-width=".5" x="0" y="0" width="60" height="60"/>
                <use id="zoomplus" xlink:href="#zoomPlus" x="17" y="9" onmousedown="handleZoom(evt,'in')"/>
                <use id="zoomminus" xlink:href="#zoomMin" x="42" y="9" onmousedown="handleZoom(evt,'out')"/>
                <use id="reset" xlink:href="#resetDef" x="30" y="36" onmousedown="handleReset()"/>
                <g id="arrowUp" xlink:href="#dirArrow" transform="translate(30 24)" onmousedown="handlePan(0,-1)">
                  <use xlink:href="#rim" fill="#404040">
                        <set attributeName="fill" to="#808080" begin="arrowUp.mouseover" end="arrowUp.mouseout"/>
                  </use>
                  <path fill="none" stroke="white" stroke-width="1.5" d="M0,-3.0v7 M-2.5,-0.5L0,-3.0L2.5,-0.5"/>
                </g>
                <g id="arrowRight" xlink:href="#dirArrow" transform="rotate(90) translate(36 -43)" onmousedown="handlePan(1,0)">
                  <use xlink:href="#rim" fill="#404040">
                        <set attributeName="fill" to="#808080" begin="arrowRight.mouseover" end="arrowRight.mouseout"/>
                  </use>
                  <path fill="none" stroke="white" stroke-width="1.5" d="M0,-3.0v7 M-2.5,-0.5L0,-3.0L2.5,-0.5"/>
                </g>
                <g id="arrowDown" xlink:href="#dirArrow" transform="rotate(180) translate(-30 -48)" onmousedown="handlePan(0,1)">
                  <use xlink:href="#rim" fill="#404040">
                        <set attributeName="fill" to="#808080" begin="arrowDown.mouseover" end="arrowDown.mouseout"/>
                  </use>
                  <path fill="none" stroke="white" stroke-width="1.5" d="M0,-3.0v7 M-2.5,-0.5L0,-3.0L2.5,-0.5"/>
                </g>
                <g id="arrowLeft" xlink:href="#dirArrow" transform="rotate(270) translate(-36 17)" onmousedown="handlePan(-1,0)">
                  <use xlink:href="#rim" fill="#404040">
                        <set attributeName="fill" to="#808080" begin="arrowLeft.mouseover" end="arrowLeft.mouseout"/>
                  </use>
                  <path fill="none" stroke="white" stroke-width="1.5" d="M0,-3.0v7 M-2.5,-0.5L0,-3.0L2.5,-0.5"/>
                </g>
        </g>
        <svg viewBox="0 0 15 15" width="100%" height="30px" preserveAspectRatio="xMaxYMin meet">
         <g id="arrow_out" transform="scale(0.3 0.3)">
          <a xlink:href="class_pinknose_1_1_distributed_workers_1_1_logging_1_1_serilog_event_message__coll__graph_org.svg" target="_base">
           <rect id="button" ry="5" rx="5" y="6" x="6" height="38" width="38"
                fill="#f2f5e9" fill-opacity="0.5" stroke="#606060" stroke-width="1.0"/>
           <path id="arrow"
             d="M 11.500037,31.436501 C 11.940474,20.09759 22.043105,11.32322 32.158766,21.979434 L 37.068811,17.246167 C 37.068811,17.246167 37.088388,32 37.088388,32 L 22.160133,31.978069 C 22.160133,31.978069 26.997745,27.140456 26.997745,27.140456 C 18.528582,18.264221 13.291696,25.230495 11.500037,31.436501 z"
             style="fill:#404040;"/>
          </a>
         </g>
        </svg>
</svg>
