<?xml version="1.0" encoding="UTF-8" standalone="no"?>
<!DOCTYPE svg PUBLIC "-//W3C//DTD SVG 1.1//EN"
 "http://www.w3.org/Graphics/SVG/1.1/DTD/svg11.dtd">
<!-- Generated by graphviz version 2.38.0 (20140413.2041)
 -->
<!-- Title: Pinknose.DistributedWorkers.MessageTags.SystemTags Pages: 1 -->
<!--zoomable 107 -->
<svg id="main" version="1.1" xmlns="http://www.w3.org/2000/svg" xmlns:xlink="http://www.w3.org/1999/xlink" xml:space="preserve" onload="init(evt)">
<style type="text/css"><![CDATA[
.edge:hover path { stroke: red; }
.edge:hover polygon { stroke: red; fill: red; }
]]></style>
<script type="text/javascript"><![CDATA[
var edges = document.getElementsByTagName('g');
if (edges && edges.length) {
  for (var i=0;i<edges.length;i++) {
    if (edges[i].id.substr(0,4)=='edge') {
      edges[i].setAttribute('class','edge');
    }
  }
}
]]></script>
        <defs>
                <circle id="rim" cx="0" cy="0" r="7"/>
                <circle id="rim2" cx="0" cy="0" r="3.5"/>
                <g id="zoomPlus">
                        <use xlink:href="#rim" fill="#404040">
                                <set attributeName="fill" to="#808080" begin="zoomplus.mouseover" end="zoomplus.mouseout"/>
                        </use>
                        <path d="M-4,0h8M0,-4v8" fill="none" stroke="white" stroke-width="1.5" pointer-events="none"/>
                </g>
                <g id="zoomMin">
                        <use xlink:href="#rim" fill="#404040">
                                <set attributeName="fill" to="#808080" begin="zoomminus.mouseover" end="zoomminus.mouseout"/>
                        </use>
                        <path d="M-4,0h8" fill="none" stroke="white" stroke-width="1.5" pointer-events="none"/>
                </g>
                <g id="dirArrow">
                        <path fill="none" stroke="white" stroke-width="1.5" d="M0,-3.0v7 M-2.5,-0.5L0,-3.0L2.5,-0.5"/>
                </g>
               <g id="resetDef">
                       <use xlink:href="#rim2" fill="#404040">
                               <set attributeName="fill" to="#808080" begin="reset.mouseover" end="reset.mouseout"/>
                       </use>
               </g>
        </defs>

<script type="text/javascript">
var viewWidth = 880;
var viewHeight = 107;
var sectionId = 'dynsection-0';
</script>
<script xlink:href="svgpan.js"/>
<svg id="graph" class="graph">
<g id="viewport">
<title>Pinknose.DistributedWorkers.MessageTags.SystemTags</title>
<polygon fill="white" stroke="none" points="-4,4 -4,-103.128 876,-103.128 876,4 -4,4"/>
<!-- Node1 -->
<g id="node1" class="node"><title>Node1</title>
<g id="a_node1"><a xlink:title=" ">
<polygon fill="#bfbfbf" stroke="black" points="726,-29.6275 726,-59.6275 872,-59.6275 872,-29.6275 726,-29.6275"/>
<text text-anchor="start" x="734" y="-47.6275" font-family="Helvetica,sans-Serif" font-size="10.00">Pinknose.DistributedWorkers.</text>
<text text-anchor="middle" x="799" y="-36.6275" font-family="Helvetica,sans-Serif" font-size="10.00">MessageTags.SystemTags</text>
</a>
</g>
</g>
<!-- Node2 -->
<g id="node2" class="node"><title>Node2</title>
<g id="a_node2"><a xlink:href="class_pinknose_1_1_distributed_workers_1_1_message_tags_1_1_message_tag.html" target="_top" xlink:title="Represents a tag that can be used to subscribe to certain messages.">
<polygon fill="white" stroke="black" points="263,-68.6275 263,-98.6275 409,-98.6275 409,-68.6275 263,-68.6275"/>
<text text-anchor="start" x="271" y="-86.6275" font-family="Helvetica,sans-Serif" font-size="10.00">Pinknose.DistributedWorkers.</text>
<text text-anchor="middle" x="336" y="-75.6275" font-family="Helvetica,sans-Serif" font-size="10.00">MessageTags.MessageTag</text>
</a>
</g>
</g>
<!-- Node2&#45;&gt;Node1 -->
<g id="edge1" class="edge"><title>Node2&#45;&gt;Node1</title>
<path fill="none" stroke="#9a32cd" stroke-dasharray="5,2" d="M419.399,-87.0333C494.975,-88.7243 609.747,-87.6746 708,-71.6275 723.939,-69.0244 741.009,-64.3967 755.953,-59.6996"/>
<polygon fill="#9a32cd" stroke="#9a32cd" points="419.084,-83.5246 409.001,-86.7778 418.912,-90.5225 419.084,-83.5246"/>
<text text-anchor="middle" x="507.5" y="-89.6275" font-family="Helvetica,sans-Serif" font-size="10.00"> SerilogAllEvents</text>
</g>
<!-- Node3 -->
<g id="node3" class="node"><title>Node3</title>
<g id="a_node3"><a xlink:title=" ">
<polygon fill="white" stroke="#bfbfbf" points="0,-51.1275 0,-70.1275 136,-70.1275 136,-51.1275 0,-51.1275"/>
<text text-anchor="middle" x="68" y="-58.1275" font-family="Helvetica,sans-Serif" font-size="10.00">IEquatable&lt; MessageTag &gt;</text>
</a>
</g>
</g>
<!-- Node3&#45;&gt;Node2 -->
<g id="edge2" class="edge"><title>Node3&#45;&gt;Node2</title>
<path fill="none" stroke="midnightblue" d="M146.29,-67.3105C183.031,-70.4874 226.695,-74.2628 262.764,-77.3816"/>
<polygon fill="midnightblue" stroke="midnightblue" points="146.387,-63.8059 136.123,-66.4314 145.784,-70.7799 146.387,-63.8059"/>
</g>
<!-- Node5 -->
<g id="node5" class="node"><title>Node5</title>
<g id="a_node5"><a xlink:href="class_pinknose_1_1_distributed_workers_1_1_message_tags_1_1_message_tag.html" target="_top" xlink:title="Represents a tag that can be used to subscribe to certain messages.">
<polygon fill="white" stroke="black" points="173,-27.1275 173,-46.1275 245,-46.1275 245,-27.1275 173,-27.1275"/>
<text text-anchor="middle" x="209" y="-34.1275" font-family="Helvetica,sans-Serif" font-size="10.00">MessageTag</text>
</a>
</g>
</g>
<!-- Node3&#45;&gt;Node5 -->
<g id="edge5" class="edge"><title>Node3&#45;&gt;Node5</title>
<path fill="none" stroke="midnightblue" d="M134.404,-49.3347C147.663,-47.0454 161.122,-44.7216 172.84,-42.6983"/>
<polygon fill="midnightblue" stroke="midnightblue" points="133.595,-45.9226 124.336,-51.0731 134.786,-52.8206 133.595,-45.9226"/>
</g>
<!-- Node4 -->
<g id="node4" class="node"><title>Node4</title>
<g id="a_node4"><a xlink:href="class_pinknose_1_1_distributed_workers_1_1_message_tags_1_1_message_tag_value.html" target="_top" xlink:title=" ">
<polygon fill="white" stroke="black" points="427,-4.62753 427,-34.6275 588,-34.6275 588,-4.62753 427,-4.62753"/>
<text text-anchor="start" x="435" y="-22.6275" font-family="Helvetica,sans-Serif" font-size="10.00">Pinknose.DistributedWorkers.</text>
<text text-anchor="middle" x="507.5" y="-11.6275" font-family="Helvetica,sans-Serif" font-size="10.00">MessageTags.MessageTagValue</text>
</a>
</g>
</g>
<!-- Node4&#45;&gt;Node1 -->
<g id="edge3" class="edge"><title>Node4&#45;&gt;Node1</title>
<path fill="none" stroke="#9a32cd" stroke-dasharray="5,2" d="M594.767,-3.34998C630.151,0.687238 671.333,1.97551 708,-5.62753 730.177,-10.2259 753.603,-20.5729 770.994,-29.4541"/>
<polygon fill="#9a32cd" stroke="#9a32cd" points="593.964,0.0776387 584.468,-4.62 594.821,-6.86974 593.964,0.0776387"/>
<text text-anchor="middle" x="657" y="-63.6275" font-family="Helvetica,sans-Serif" font-size="10.00"> SerilogVerboseEvent</text>
<text text-anchor="middle" x="657" y="-52.6275" font-family="Helvetica,sans-Serif" font-size="10.00">SerilogWarningEvent</text>
<text text-anchor="middle" x="657" y="-41.6275" font-family="Helvetica,sans-Serif" font-size="10.00">SerilogDebugEvent</text>
<text text-anchor="middle" x="657" y="-30.6275" font-family="Helvetica,sans-Serif" font-size="10.00">SerilogErrorEvent</text>
<text text-anchor="middle" x="657" y="-19.6275" font-family="Helvetica,sans-Serif" font-size="10.00">SerilogFatalEvent</text>
<text text-anchor="middle" x="657" y="-8.62753" font-family="Helvetica,sans-Serif" font-size="10.00">SerilogInformationEvent</text>
</g>
<!-- Node5&#45;&gt;Node4 -->
<g id="edge4" class="edge"><title>Node5&#45;&gt;Node4</title>
<path fill="none" stroke="midnightblue" d="M255.325,-34.0288C300.828,-31.4199 371.87,-27.3466 426.806,-24.1968"/>
<polygon fill="midnightblue" stroke="midnightblue" points="254.96,-30.5439 245.177,-34.6106 255.361,-37.5324 254.96,-30.5439"/>
</g>
</g>
</svg>
        <g id="navigator" transform="translate(0 0)" fill="#404254">
                <rect fill="#f2f5e9" fill-opacity="0.5" stroke="#606060" stroke-width=".5" x="0" y="0" width="60" height="60"/>
                <use id="zoomplus" xlink:href="#zoomPlus" x="17" y="9" onmousedown="handleZoom(evt,'in')"/>
                <use id="zoomminus" xlink:href="#zoomMin" x="42" y="9" onmousedown="handleZoom(evt,'out')"/>
                <use id="reset" xlink:href="#resetDef" x="30" y="36" onmousedown="handleReset()"/>
                <g id="arrowUp" xlink:href="#dirArrow" transform="translate(30 24)" onmousedown="handlePan(0,-1)">
                  <use xlink:href="#rim" fill="#404040">
                        <set attributeName="fill" to="#808080" begin="arrowUp.mouseover" end="arrowUp.mouseout"/>
                  </use>
                  <path fill="none" stroke="white" stroke-width="1.5" d="M0,-3.0v7 M-2.5,-0.5L0,-3.0L2.5,-0.5"/>
                </g>
                <g id="arrowRight" xlink:href="#dirArrow" transform="rotate(90) translate(36 -43)" onmousedown="handlePan(1,0)">
                  <use xlink:href="#rim" fill="#404040">
                        <set attributeName="fill" to="#808080" begin="arrowRight.mouseover" end="arrowRight.mouseout"/>
                  </use>
                  <path fill="none" stroke="white" stroke-width="1.5" d="M0,-3.0v7 M-2.5,-0.5L0,-3.0L2.5,-0.5"/>
                </g>
                <g id="arrowDown" xlink:href="#dirArrow" transform="rotate(180) translate(-30 -48)" onmousedown="handlePan(0,1)">
                  <use xlink:href="#rim" fill="#404040">
                        <set attributeName="fill" to="#808080" begin="arrowDown.mouseover" end="arrowDown.mouseout"/>
                  </use>
                  <path fill="none" stroke="white" stroke-width="1.5" d="M0,-3.0v7 M-2.5,-0.5L0,-3.0L2.5,-0.5"/>
                </g>
                <g id="arrowLeft" xlink:href="#dirArrow" transform="rotate(270) translate(-36 17)" onmousedown="handlePan(-1,0)">
                  <use xlink:href="#rim" fill="#404040">
                        <set attributeName="fill" to="#808080" begin="arrowLeft.mouseover" end="arrowLeft.mouseout"/>
                  </use>
                  <path fill="none" stroke="white" stroke-width="1.5" d="M0,-3.0v7 M-2.5,-0.5L0,-3.0L2.5,-0.5"/>
                </g>
        </g>
        <svg viewBox="0 0 15 15" width="100%" height="30px" preserveAspectRatio="xMaxYMin meet">
         <g id="arrow_out" transform="scale(0.3 0.3)">
          <a xlink:href="class_pinknose_1_1_distributed_workers_1_1_message_tags_1_1_system_tags__coll__graph_org.svg" target="_base">
           <rect id="button" ry="5" rx="5" y="6" x="6" height="38" width="38"
                fill="#f2f5e9" fill-opacity="0.5" stroke="#606060" stroke-width="1.0"/>
           <path id="arrow"
             d="M 11.500037,31.436501 C 11.940474,20.09759 22.043105,11.32322 32.158766,21.979434 L 37.068811,17.246167 C 37.068811,17.246167 37.088388,32 37.088388,32 L 22.160133,31.978069 C 22.160133,31.978069 26.997745,27.140456 26.997745,27.140456 C 18.528582,18.264221 13.291696,25.230495 11.500037,31.436501 z"
             style="fill:#404040;"/>
          </a>
         </g>
        </svg>
</svg>
