<?xml version="1.0" encoding="UTF-8" standalone="no"?>
<!DOCTYPE svg PUBLIC "-//W3C//DTD SVG 1.1//EN"
 "http://www.w3.org/Graphics/SVG/1.1/DTD/svg11.dtd">
<!-- Generated by graphviz version 2.38.0 (20140413.2041)
 -->
<!-- Title: Pinknose.DistributedWorkers.Messages.PayloadMessage&lt; TPayload &gt; Pages: 1 -->
<svg width="155pt" height="581pt"
 viewBox="0.00 0.00 155.00 581.00" xmlns="http://www.w3.org/2000/svg" xmlns:xlink="http://www.w3.org/1999/xlink">
<g id="graph0" class="graph" transform="scale(1 1) rotate(0) translate(4 577)">
<title>Pinknose.DistributedWorkers.Messages.PayloadMessage&lt; TPayload &gt;</title>
<polygon fill="white" stroke="none" points="-4,4 -4,-577 151,-577 151,4 -4,4"/>
<!-- Node1 -->
<g id="node1" class="node"><title>Node1</title>
<g id="a_node1"><a xlink:title="A message that has a strongly&#45;typed payload. There are a variety of options for compression or serial...">
<polygon fill="#bfbfbf" stroke="black" points="0.5,-288.5 0.5,-422.5 146.5,-422.5 146.5,-288.5 0.5,-288.5"/>
<text text-anchor="start" x="8.5" y="-410.5" font-family="Helvetica,sans-Serif" font-size="10.00">Pinknose.DistributedWorkers.</text>
<text text-anchor="start" x="8.5" y="-399.5" font-family="Helvetica,sans-Serif" font-size="10.00">Messages.PayloadMessage</text>
<text text-anchor="middle" x="73.5" y="-388.5" font-family="Helvetica,sans-Serif" font-size="10.00">&lt; TPayload &gt;</text>
<polyline fill="none" stroke="black" points="0.5,-381.5 146.5,-381.5 "/>
<text text-anchor="start" x="8.5" y="-369.5" font-family="Helvetica,sans-Serif" font-size="10.00">+ Payload</text>
<text text-anchor="start" x="8.5" y="-358.5" font-family="Helvetica,sans-Serif" font-size="10.00">+ PayloadTypeName</text>
<text text-anchor="start" x="8.5" y="-347.5" font-family="Helvetica,sans-Serif" font-size="10.00">+ KeepPayloadCompressed</text>
<text text-anchor="start" x="8.5" y="-336.5" font-family="Helvetica,sans-Serif" font-size="10.00">+ PayloadInternal</text>
<text text-anchor="start" x="8.5" y="-325.5" font-family="Helvetica,sans-Serif" font-size="10.00">+ PayloadIsCompressed</text>
<text text-anchor="start" x="8.5" y="-314.5" font-family="Helvetica,sans-Serif" font-size="10.00">+ PayloadIsJsonSerialized</text>
<polyline fill="none" stroke="black" points="0.5,-307.5 146.5,-307.5 "/>
<text text-anchor="start" x="8.5" y="-295.5" font-family="Helvetica,sans-Serif" font-size="10.00">+ PayloadMessage()</text>
</a>
</g>
</g>
<!-- Node3 -->
<g id="node3" class="node"><title>Node3</title>
<g id="a_node3"><a xlink:href="class_pinknose_1_1_distributed_workers_1_1_messages_1_1_payload_message.html" target="_top" xlink:title=" ">
<polygon fill="white" stroke="black" points="0.5,-106.5 0.5,-240.5 146.5,-240.5 146.5,-106.5 0.5,-106.5"/>
<text text-anchor="start" x="8.5" y="-228.5" font-family="Helvetica,sans-Serif" font-size="10.00">Pinknose.DistributedWorkers.</text>
<text text-anchor="start" x="8.5" y="-217.5" font-family="Helvetica,sans-Serif" font-size="10.00">Messages.PayloadMessage</text>
<text text-anchor="middle" x="73.5" y="-206.5" font-family="Helvetica,sans-Serif" font-size="10.00">&lt; LogEvent &gt;</text>
<polyline fill="none" stroke="black" points="0.5,-199.5 146.5,-199.5 "/>
<text text-anchor="start" x="8.5" y="-187.5" font-family="Helvetica,sans-Serif" font-size="10.00">+ Payload</text>
<text text-anchor="start" x="8.5" y="-176.5" font-family="Helvetica,sans-Serif" font-size="10.00">+ PayloadTypeName</text>
<text text-anchor="start" x="8.5" y="-165.5" font-family="Helvetica,sans-Serif" font-size="10.00">+ KeepPayloadCompressed</text>
<text text-anchor="start" x="8.5" y="-154.5" font-family="Helvetica,sans-Serif" font-size="10.00">+ PayloadInternal</text>
<text text-anchor="start" x="8.5" y="-143.5" font-family="Helvetica,sans-Serif" font-size="10.00">+ PayloadIsCompressed</text>
<text text-anchor="start" x="8.5" y="-132.5" font-family="Helvetica,sans-Serif" font-size="10.00">+ PayloadIsJsonSerialized</text>
<polyline fill="none" stroke="black" points="0.5,-125.5 146.5,-125.5 "/>
<text text-anchor="start" x="8.5" y="-113.5" font-family="Helvetica,sans-Serif" font-size="10.00">+ PayloadMessage()</text>
</a>
</g>
</g>
<!-- Node1&#45;&gt;Node3 -->
<g id="edge2" class="edge"><title>Node1&#45;&gt;Node3</title>
<path fill="none" stroke="orange" d="M73.5,-278.164C73.5,-265.738 73.5,-252.957 73.5,-240.796"/>
<polygon fill="orange" stroke="orange" points="70.0001,-278.497 73.5,-288.497 77.0001,-278.497 70.0001,-278.497"/>
<text text-anchor="middle" x="104" y="-262" font-family="Helvetica,sans-Serif" font-size="10.00"> &lt; LogEvent &gt;</text>
</g>
<!-- Node2 -->
<g id="node2" class="node"><title>Node2</title>
<g id="a_node2"><a xlink:href="class_pinknose_1_1_distributed_workers_1_1_messages_1_1_message_base.html" target="_top" xlink:title="A message which is passed between client and server.">
<polygon fill="white" stroke="black" points="2,-460.5 2,-572.5 145,-572.5 145,-460.5 2,-460.5"/>
<text text-anchor="middle" x="73.5" y="-560.5" font-family="Helvetica,sans-Serif" font-size="10.00">MessageBase</text>
<polyline fill="none" stroke="black" points="2,-553.5 145,-553.5 "/>
<text text-anchor="start" x="10" y="-541.5" font-family="Helvetica,sans-Serif" font-size="10.00">+ MessageText</text>
<text text-anchor="start" x="10" y="-530.5" font-family="Helvetica,sans-Serif" font-size="10.00">+ MessageTypeGuid</text>
<text text-anchor="start" x="10" y="-519.5" font-family="Helvetica,sans-Serif" font-size="10.00">+ SignatureVerificationStatus</text>
<polyline fill="none" stroke="black" points="2,-512.5 145,-512.5 "/>
<text text-anchor="start" x="10" y="-500.5" font-family="Helvetica,sans-Serif" font-size="10.00">+ MessageBase()</text>
<text text-anchor="start" x="10" y="-489.5" font-family="Helvetica,sans-Serif" font-size="10.00">~ ReverifySignature()</text>
<text text-anchor="start" x="10" y="-478.5" font-family="Helvetica,sans-Serif" font-size="10.00">~ Serialize()</text>
<text text-anchor="start" x="10" y="-467.5" font-family="Helvetica,sans-Serif" font-size="10.00">~ Deserialize()</text>
</a>
</g>
</g>
<!-- Node2&#45;&gt;Node1 -->
<g id="edge1" class="edge"><title>Node2&#45;&gt;Node1</title>
<path fill="none" stroke="midnightblue" d="M73.5,-450.166C73.5,-441.039 73.5,-431.653 73.5,-422.513"/>
<polygon fill="none" stroke="midnightblue" points="70.0001,-450.336 73.5,-460.336 77.0001,-450.336 70.0001,-450.336"/>
</g>
<!-- Node4 -->
<g id="node4" class="node"><title>Node4</title>
<g id="a_node4"><a xlink:href="class_pinknose_1_1_distributed_workers_1_1_logging_1_1_serilog_event_message.html" target="_top" xlink:title=" ">
<polygon fill="white" stroke="black" points="0,-0.5 0,-68.5 147,-68.5 147,-0.5 0,-0.5"/>
<text text-anchor="start" x="8" y="-56.5" font-family="Helvetica,sans-Serif" font-size="10.00">Pinknose.DistributedWorkers.</text>
<text text-anchor="middle" x="73.5" y="-45.5" font-family="Helvetica,sans-Serif" font-size="10.00">Logging.SerilogEventMessage</text>
<polyline fill="none" stroke="black" points="0,-38.5 147,-38.5 "/>
<text text-anchor="start" x="8" y="-26.5" font-family="Helvetica,sans-Serif" font-size="10.00">+ MessageTypeGuid</text>
<polyline fill="none" stroke="black" points="0,-19.5 147,-19.5 "/>
<text text-anchor="start" x="8" y="-7.5" font-family="Helvetica,sans-Serif" font-size="10.00">+ SerilogEventMessage()</text>
</a>
</g>
</g>
<!-- Node3&#45;&gt;Node4 -->
<g id="edge3" class="edge"><title>Node3&#45;&gt;Node4</title>
<path fill="none" stroke="midnightblue" d="M73.5,-96.2563C73.5,-86.556 73.5,-77.0656 73.5,-68.5765"/>
<polygon fill="none" stroke="midnightblue" points="70.0001,-96.4077 73.5,-106.408 77.0001,-96.4078 70.0001,-96.4077"/>
</g>
</g>
</svg>
