<?xml version="1.0" encoding="UTF-8" standalone="no"?>
<!DOCTYPE svg PUBLIC "-//W3C//DTD SVG 1.1//EN"
 "http://www.w3.org/Graphics/SVG/1.1/DTD/svg11.dtd">
<!-- Generated by graphviz version 2.38.0 (20140413.2041)
 -->
<!-- Title: Pinknose.DistributedWorkers.JsonShouldSerializeContractResolver Pages: 1 -->
<svg width="186pt" height="171pt"
 viewBox="0.00 0.00 186.00 171.00" xmlns="http://www.w3.org/2000/svg" xmlns:xlink="http://www.w3.org/1999/xlink">
<g id="graph0" class="graph" transform="scale(1 1) rotate(0) translate(4 167)">
<title>Pinknose.DistributedWorkers.JsonShouldSerializeContractResolver</title>
<polygon fill="white" stroke="none" points="-4,4 -4,-167 182,-167 182,4 -4,4"/>
<!-- Node1 -->
<g id="node1" class="node"><title>Node1</title>
<g id="a_node1"><a xlink:title=" ">
<polygon fill="#bfbfbf" stroke="black" points="0,-0.5 0,-68.5 178,-68.5 178,-0.5 0,-0.5"/>
<text text-anchor="start" x="8" y="-56.5" font-family="Helvetica,sans-Serif" font-size="10.00">Pinknose.DistributedWorkers.</text>
<text text-anchor="middle" x="89" y="-45.5" font-family="Helvetica,sans-Serif" font-size="10.00">JsonShouldSerializeContractResolver</text>
<polyline fill="none" stroke="black" points="0,-38.5 178,-38.5 "/>
<text text-anchor="start" x="8" y="-26.5" font-family="Helvetica,sans-Serif" font-size="10.00">+ Instance</text>
<polyline fill="none" stroke="black" points="0,-19.5 178,-19.5 "/>
<text text-anchor="start" x="8" y="-7.5" font-family="Helvetica,sans-Serif" font-size="10.00"># CreateProperty()</text>
</a>
</g>
</g>
<!-- Node2 -->
<g id="node2" class="node"><title>Node2</title>
<g id="a_node2"><a xlink:title=" ">
<polygon fill="white" stroke="#bfbfbf" points="29,-105.5 29,-162.5 149,-162.5 149,-105.5 29,-105.5"/>
<text text-anchor="middle" x="89" y="-150.5" font-family="Helvetica,sans-Serif" font-size="10.00">DefaultContractResolver</text>
<polyline fill="none" stroke="#bfbfbf" points="29,-143.5 149,-143.5 "/>
<text text-anchor="middle" x="89" y="-131.5" font-family="Helvetica,sans-Serif" font-size="10.00"> </text>
<polyline fill="none" stroke="#bfbfbf" points="29,-124.5 149,-124.5 "/>
<text text-anchor="middle" x="89" y="-112.5" font-family="Helvetica,sans-Serif" font-size="10.00"> </text>
</a>
</g>
</g>
<!-- Node2&#45;&gt;Node1 -->
<g id="edge1" class="edge"><title>Node2&#45;&gt;Node1</title>
<path fill="none" stroke="midnightblue" d="M89,-95.0631C89,-86.3933 89,-77.2431 89,-68.7855"/>
<polygon fill="none" stroke="midnightblue" points="85.5001,-95.3212 89,-105.321 92.5001,-95.3212 85.5001,-95.3212"/>
</g>
</g>
</svg>
