<?xml version="1.0" encoding="UTF-8" standalone="no"?>
<!DOCTYPE svg PUBLIC "-//W3C//DTD SVG 1.1//EN"
 "http://www.w3.org/Graphics/SVG/1.1/DTD/svg11.dtd">
<!-- Generated by graphviz version 2.38.0 (20140413.2041)
 -->
<!-- Title: Pinknose.DistributedWorkers.MessageQueues.MessageQueue.Write Pages: 1 -->
<svg width="686pt" height="100pt"
 viewBox="0.00 0.00 686.00 99.50" xmlns="http://www.w3.org/2000/svg" xmlns:xlink="http://www.w3.org/1999/xlink">
<g id="graph0" class="graph" transform="scale(1 1) rotate(0) translate(4 95.5)">
<title>Pinknose.DistributedWorkers.MessageQueues.MessageQueue.Write</title>
<polygon fill="white" stroke="none" points="-4,4 -4,-95.5 682,-95.5 682,4 -4,4"/>
<!-- Node1 -->
<g id="node1" class="node"><title>Node1</title>
<g id="a_node1"><a xlink:title=" ">
<polygon fill="#bfbfbf" stroke="black" points="490,-33 490,-63 678,-63 678,-33 490,-33"/>
<text text-anchor="start" x="498" y="-51" font-family="Helvetica,sans-Serif" font-size="10.00">Pinknose.DistributedWorkers.</text>
<text text-anchor="middle" x="584" y="-40" font-family="Helvetica,sans-Serif" font-size="10.00">MessageQueues.MessageQueue.Write</text>
</a>
</g>
</g>
<!-- Node2 -->
<g id="node2" class="node"><title>Node2</title>
<g id="a_node2"><a xlink:href="class_pinknose_1_1_distributed_workers_1_1_message_queues_1_1_message_queue.html#a93fd2c32ea9ee2d384ebc2c6f40ee793" target="_top" xlink:title=" ">
<polygon fill="white" stroke="black" points="266,-61 266,-91 454,-91 454,-61 266,-61"/>
<text text-anchor="start" x="274" y="-79" font-family="Helvetica,sans-Serif" font-size="10.00">Pinknose.DistributedWorkers.</text>
<text text-anchor="middle" x="360" y="-68" font-family="Helvetica,sans-Serif" font-size="10.00">MessageQueues.MessageQueue.Write</text>
</a>
</g>
</g>
<!-- Node1&#45;&gt;Node2 -->
<g id="edge1" class="edge"><title>Node1&#45;&gt;Node2</title>
<path fill="none" stroke="midnightblue" d="M479.853,-61.0096C471.33,-62.0845 462.745,-63.1673 454.3,-64.2324"/>
<polygon fill="midnightblue" stroke="midnightblue" points="480.334,-64.4767 489.817,-59.7528 479.458,-57.5318 480.334,-64.4767"/>
</g>
<!-- Node3 -->
<g id="node3" class="node"><title>Node3</title>
<g id="a_node3"><a xlink:href="class_pinknose_1_1_distributed_workers_1_1_message_queues_1_1_message_queue.html#a268b59fdd9979eb83aae9198ca21eb7e" target="_top" xlink:title=" ">
<polygon fill="white" stroke="black" points="266,-0.5 266,-41.5 454,-41.5 454,-0.5 266,-0.5"/>
<text text-anchor="start" x="274" y="-29.5" font-family="Helvetica,sans-Serif" font-size="10.00">Pinknose.DistributedWorkers.</text>
<text text-anchor="start" x="274" y="-18.5" font-family="Helvetica,sans-Serif" font-size="10.00">MessageQueues.MessageQueue.Write</text>
<text text-anchor="middle" x="360" y="-7.5" font-family="Helvetica,sans-Serif" font-size="10.00">ToBoundExchange</text>
</a>
</g>
</g>
<!-- Node1&#45;&gt;Node3 -->
<g id="edge2" class="edge"><title>Node1&#45;&gt;Node3</title>
<path fill="none" stroke="midnightblue" d="M479.853,-35.455C471.33,-34.4185 462.745,-33.3744 454.3,-32.3474"/>
<polygon fill="midnightblue" stroke="midnightblue" points="479.468,-38.9339 489.817,-36.6669 480.313,-31.9851 479.468,-38.9339"/>
</g>
<!-- Node4 -->
<g id="node4" class="node"><title>Node4</title>
<g id="a_node4"><a xlink:href="class_pinknose_1_1_distributed_workers_1_1_clients_1_1_message_client_base.html#a86da9b128c17a7f33dd1cfa84150dddf" target="_top" xlink:title=" ">
<polygon fill="white" stroke="black" points="0,-0.5 0,-41.5 230,-41.5 230,-0.5 0,-0.5"/>
<text text-anchor="start" x="8" y="-29.5" font-family="Helvetica,sans-Serif" font-size="10.00">Pinknose.DistributedWorkers.</text>
<text text-anchor="start" x="8" y="-18.5" font-family="Helvetica,sans-Serif" font-size="10.00">Clients.MessageClientBase</text>
<text text-anchor="middle" x="115" y="-7.5" font-family="Helvetica,sans-Serif" font-size="10.00">&lt; MessageQueue &gt;::WriteToSubscriptionQueues</text>
</a>
</g>
</g>
<!-- Node3&#45;&gt;Node4 -->
<g id="edge3" class="edge"><title>Node3&#45;&gt;Node4</title>
<path fill="none" stroke="midnightblue" d="M255.566,-21C247.165,-21 238.645,-21 230.173,-21"/>
<polygon fill="midnightblue" stroke="midnightblue" points="255.745,-24.5001 265.745,-21 255.745,-17.5001 255.745,-24.5001"/>
</g>
</g>
</svg>
