<?xml version="1.0" encoding="UTF-8" standalone="no"?>
<!DOCTYPE svg PUBLIC "-//W3C//DTD SVG 1.1//EN"
 "http://www.w3.org/Graphics/SVG/1.1/DTD/svg11.dtd">
<!-- Generated by graphviz version 2.38.0 (20140413.2041)
 -->
<!-- Title: Pinknose.DistributedWorkers.Messages.MessageEnvelope.WrapMessage Pages: 1 -->
<svg width="458pt" height="110pt"
 viewBox="0.00 0.00 458.00 110.00" xmlns="http://www.w3.org/2000/svg" xmlns:xlink="http://www.w3.org/1999/xlink">
<g id="graph0" class="graph" transform="scale(1 1) rotate(0) translate(4 106)">
<title>Pinknose.DistributedWorkers.Messages.MessageEnvelope.WrapMessage</title>
<polygon fill="white" stroke="none" points="-4,4 -4,-106 454,-106 454,4 -4,4"/>
<!-- Node1 -->
<g id="node1" class="node"><title>Node1</title>
<g id="a_node1"><a xlink:title=" ">
<polygon fill="#bfbfbf" stroke="black" points="241,-36 241,-66 450,-66 450,-36 241,-36"/>
<text text-anchor="start" x="249" y="-54" font-family="Helvetica,sans-Serif" font-size="10.00">Pinknose.DistributedWorkers.</text>
<text text-anchor="middle" x="345.5" y="-43" font-family="Helvetica,sans-Serif" font-size="10.00">Messages.MessageEnvelope.WrapMessage</text>
</a>
</g>
</g>
<!-- Node2 -->
<g id="node2" class="node"><title>Node2</title>
<g id="a_node2"><a xlink:href="class_pinknose_1_1_distributed_workers_1_1_clients_1_1_message_client_base.html#afcd53706f33c64b117ac63c4f9ac620a" target="_top" xlink:title="Sends the message to all clients.">
<polygon fill="white" stroke="black" points="0,-60.5 0,-101.5 205,-101.5 205,-60.5 0,-60.5"/>
<text text-anchor="start" x="8" y="-89.5" font-family="Helvetica,sans-Serif" font-size="10.00">Pinknose.DistributedWorkers.</text>
<text text-anchor="start" x="8" y="-78.5" font-family="Helvetica,sans-Serif" font-size="10.00">Clients.MessageClientBase</text>
<text text-anchor="middle" x="102.5" y="-67.5" font-family="Helvetica,sans-Serif" font-size="10.00">&lt; MessageQueue &gt;::BroadcastToAllClients</text>
</a>
</g>
</g>
<!-- Node1&#45;&gt;Node2 -->
<g id="edge1" class="edge"><title>Node1&#45;&gt;Node2</title>
<path fill="none" stroke="midnightblue" d="M230.842,-65.1482C222.252,-66.2177 213.614,-67.2929 205.105,-68.352"/>
<polygon fill="midnightblue" stroke="midnightblue" points="231.405,-68.6054 240.896,-63.8968 230.54,-61.659 231.405,-68.6054"/>
</g>
<!-- Node3 -->
<g id="node3" class="node"><title>Node3</title>
<g id="a_node3"><a xlink:href="class_pinknose_1_1_distributed_workers_1_1_message_queues_1_1_message_queue.html#afde0d3f338295d6a1d64f8af9df788f2" target="_top" xlink:title=" ">
<polygon fill="white" stroke="black" points="1,-0.5 1,-41.5 204,-41.5 204,-0.5 1,-0.5"/>
<text text-anchor="start" x="9" y="-29.5" font-family="Helvetica,sans-Serif" font-size="10.00">Pinknose.DistributedWorkers.</text>
<text text-anchor="start" x="9" y="-18.5" font-family="Helvetica,sans-Serif" font-size="10.00">MessageQueues.MessageQueue.Respond</text>
<text text-anchor="middle" x="102.5" y="-7.5" font-family="Helvetica,sans-Serif" font-size="10.00">ToMessage</text>
</a>
</g>
</g>
<!-- Node1&#45;&gt;Node3 -->
<g id="edge2" class="edge"><title>Node1&#45;&gt;Node3</title>
<path fill="none" stroke="midnightblue" d="M230.912,-36.8604C222.041,-35.7561 213.12,-34.6456 204.342,-33.5529"/>
<polygon fill="midnightblue" stroke="midnightblue" points="230.54,-40.341 240.896,-38.1032 231.405,-33.3946 230.54,-40.341"/>
</g>
</g>
</svg>
