<?xml version="1.0" encoding="UTF-8" standalone="no"?>
<!DOCTYPE svg PUBLIC "-//W3C//DTD SVG 1.1//EN"
 "http://www.w3.org/Graphics/SVG/1.1/DTD/svg11.dtd">
<!-- Generated by graphviz version 2.38.0 (20140413.2041)
 -->
<!-- Title: Pinknose.DistributedWorkers.Clients.MessageClient.Connect Pages: 1 -->
<svg width="605pt" height="237pt"
 viewBox="0.00 0.00 605.00 237.00" xmlns="http://www.w3.org/2000/svg" xmlns:xlink="http://www.w3.org/1999/xlink">
<g id="graph0" class="graph" transform="scale(1 1) rotate(0) translate(4 233)">
<title>Pinknose.DistributedWorkers.Clients.MessageClient.Connect</title>
<polygon fill="white" stroke="none" points="-4,4 -4,-233 601,-233 601,4 -4,4"/>
<!-- Node1 -->
<g id="node1" class="node"><title>Node1</title>
<g id="a_node1"><a xlink:title=" ">
<polygon fill="#bfbfbf" stroke="black" points="0,-94 0,-124 153,-124 153,-94 0,-94"/>
<text text-anchor="start" x="8" y="-112" font-family="Helvetica,sans-Serif" font-size="10.00">Pinknose.DistributedWorkers.</text>
<text text-anchor="middle" x="76.5" y="-101" font-family="Helvetica,sans-Serif" font-size="10.00">Clients.MessageClient.Connect</text>
</a>
</g>
</g>
<!-- Node2 -->
<g id="node2" class="node"><title>Node2</title>
<g id="a_node2"><a xlink:href="class_pinknose_1_1_distributed_workers_1_1_message_queues_1_1_readable_message_queue.html#a4794a515329eccd4a24cccc81e45bedd" target="_top" xlink:title="Begin consuming messages as they come in (not rate limited).">
<polygon fill="white" stroke="black" points="189,-187.5 189,-228.5 394,-228.5 394,-187.5 189,-187.5"/>
<text text-anchor="start" x="197" y="-216.5" font-family="Helvetica,sans-Serif" font-size="10.00">Pinknose.DistributedWorkers.</text>
<text text-anchor="start" x="197" y="-205.5" font-family="Helvetica,sans-Serif" font-size="10.00">MessageQueues.ReadableMessageQueue.</text>
<text text-anchor="middle" x="291.5" y="-194.5" font-family="Helvetica,sans-Serif" font-size="10.00">BeginFullConsume</text>
</a>
</g>
</g>
<!-- Node1&#45;&gt;Node2 -->
<g id="edge1" class="edge"><title>Node1&#45;&gt;Node2</title>
<path fill="none" stroke="midnightblue" d="M98.3472,-124.269C120.07,-139.598 155.546,-163.03 189,-178 193.65,-180.081 198.484,-182.063 203.407,-183.943"/>
<polygon fill="midnightblue" stroke="midnightblue" points="202.365,-187.289 212.959,-187.433 204.767,-180.714 202.365,-187.289"/>
</g>
<!-- Node3 -->
<g id="node3" class="node"><title>Node3</title>
<g id="a_node3"><a xlink:href="class_pinknose_1_1_distributed_workers_1_1_clients_1_1_message_client_base.html#ac1d7f74700056901cf455a2d3e0a0bd2" target="_top" xlink:title=" ">
<polygon fill="white" stroke="black" points="197.5,-116 197.5,-168 385.5,-168 385.5,-116 197.5,-116"/>
<text text-anchor="start" x="205.5" y="-156" font-family="Helvetica,sans-Serif" font-size="10.00">Pinknose.DistributedWorkers.</text>
<text text-anchor="start" x="205.5" y="-145" font-family="Helvetica,sans-Serif" font-size="10.00">Clients.MessageClientBase</text>
<text text-anchor="start" x="205.5" y="-134" font-family="Helvetica,sans-Serif" font-size="10.00">&lt; MessageQueue &gt;::FireAsynchronous</text>
<text text-anchor="middle" x="291.5" y="-123" font-family="Helvetica,sans-Serif" font-size="10.00">ExceptionEvent</text>
</a>
</g>
</g>
<!-- Node1&#45;&gt;Node3 -->
<g id="edge2" class="edge"><title>Node1&#45;&gt;Node3</title>
<path fill="none" stroke="midnightblue" d="M153.196,-120.727C164.201,-122.433 175.687,-124.212 187.125,-125.984"/>
<polygon fill="midnightblue" stroke="midnightblue" points="186.732,-129.465 197.15,-127.537 187.804,-122.547 186.732,-129.465"/>
</g>
<!-- Node4 -->
<g id="node4" class="node"><title>Node4</title>
<g id="a_node4"><a xlink:href="class_pinknose_1_1_distributed_workers_1_1_clients_1_1_message_client_base.html#af87b6b124d241c687ba271dec13a595e" target="_top" xlink:title=" ">
<polygon fill="white" stroke="black" points="197.5,-55.5 197.5,-96.5 385.5,-96.5 385.5,-55.5 197.5,-55.5"/>
<text text-anchor="start" x="205.5" y="-84.5" font-family="Helvetica,sans-Serif" font-size="10.00">Pinknose.DistributedWorkers.</text>
<text text-anchor="start" x="205.5" y="-73.5" font-family="Helvetica,sans-Serif" font-size="10.00">Clients.MessageClientBase</text>
<text text-anchor="middle" x="291.5" y="-62.5" font-family="Helvetica,sans-Serif" font-size="10.00">&lt; MessageQueue &gt;::SetupConnections</text>
</a>
</g>
</g>
<!-- Node1&#45;&gt;Node4 -->
<g id="edge3" class="edge"><title>Node1&#45;&gt;Node4</title>
<path fill="none" stroke="midnightblue" d="M153.196,-97.2725C164.201,-95.5674 175.687,-93.7879 187.125,-92.0159"/>
<polygon fill="midnightblue" stroke="midnightblue" points="187.804,-95.4525 197.15,-90.4627 186.732,-88.535 187.804,-95.4525"/>
</g>
<!-- Node5 -->
<g id="node5" class="node"><title>Node5</title>
<g id="a_node5"><a xlink:href="class_pinknose_1_1_distributed_workers_1_1_clients_1_1_message_client.html#ad34d844f8b9bbd1d2a29d0f699ffb981" target="_top" xlink:title=" ">
<polygon fill="white" stroke="black" points="202.5,-6 202.5,-36 380.5,-36 380.5,-6 202.5,-6"/>
<text text-anchor="start" x="210.5" y="-24" font-family="Helvetica,sans-Serif" font-size="10.00">Pinknose.DistributedWorkers.</text>
<text text-anchor="middle" x="291.5" y="-13" font-family="Helvetica,sans-Serif" font-size="10.00">Clients.MessageClient.WriteToServer</text>
</a>
</g>
</g>
<!-- Node1&#45;&gt;Node5 -->
<g id="edge4" class="edge"><title>Node1&#45;&gt;Node5</title>
<path fill="none" stroke="midnightblue" d="M100.072,-93.8005C121.97,-79.6568 156.556,-58.8797 189,-46 195.346,-43.4806 202.02,-41.1617 208.787,-39.0389"/>
<polygon fill="midnightblue" stroke="midnightblue" points="210.16,-42.2817 218.742,-36.0684 208.159,-35.574 210.16,-42.2817"/>
</g>
<!-- Node6 -->
<g id="node6" class="node"><title>Node6</title>
<g id="a_node6"><a xlink:href="class_pinknose_1_1_distributed_workers_1_1_clients_1_1_message_client_base.html#abed3275764e2fbcd3dfaaa9bf4c301fd" target="_top" xlink:title=" ">
<polygon fill="white" stroke="black" points="430,-0.5 430,-41.5 597,-41.5 597,-0.5 430,-0.5"/>
<text text-anchor="start" x="438" y="-29.5" font-family="Helvetica,sans-Serif" font-size="10.00">Pinknose.DistributedWorkers.</text>
<text text-anchor="start" x="438" y="-18.5" font-family="Helvetica,sans-Serif" font-size="10.00">Clients.MessageClientBase</text>
<text text-anchor="middle" x="513.5" y="-7.5" font-family="Helvetica,sans-Serif" font-size="10.00">&lt; MessageQueue &gt;::WriteToClient</text>
</a>
</g>
</g>
<!-- Node5&#45;&gt;Node6 -->
<g id="edge5" class="edge"><title>Node5&#45;&gt;Node6</title>
<path fill="none" stroke="midnightblue" d="M380.715,-21C393.543,-21 406.783,-21 419.699,-21"/>
<polygon fill="midnightblue" stroke="midnightblue" points="419.974,-24.5001 429.974,-21 419.974,-17.5001 419.974,-24.5001"/>
</g>
</g>
</svg>
