<?xml version="1.0" encoding="UTF-8" standalone="no"?>
<!DOCTYPE svg PUBLIC "-//W3C//DTD SVG 1.1//EN"
 "http://www.w3.org/Graphics/SVG/1.1/DTD/svg11.dtd">
<!-- Generated by graphviz version 2.38.0 (20140413.2041)
 -->
<!-- Title: Pinknose.DistributedWorkers.MessageQueues.ReadableMessageQueue Pages: 1 -->
<svg width="210pt" height="485pt"
 viewBox="0.00 0.00 210.00 485.00" xmlns="http://www.w3.org/2000/svg" xmlns:xlink="http://www.w3.org/1999/xlink">
<g id="graph0" class="graph" transform="scale(1 1) rotate(0) translate(4 481)">
<title>Pinknose.DistributedWorkers.MessageQueues.ReadableMessageQueue</title>
<polygon fill="white" stroke="none" points="-4,4 -4,-481 206,-481 206,4 -4,4"/>
<!-- Node1 -->
<g id="node1" class="node"><title>Node1</title>
<g id="a_node1"><a xlink:title="Abstraction of a RabbitMQ queue. This message queue can be written to and can be read from.">
<polygon fill="#bfbfbf" stroke="black" points="0,-0.5 0,-112.5 202,-112.5 202,-0.5 0,-0.5"/>
<text text-anchor="start" x="8" y="-100.5" font-family="Helvetica,sans-Serif" font-size="10.00">Pinknose.DistributedWorkers.</text>
<text text-anchor="middle" x="101" y="-89.5" font-family="Helvetica,sans-Serif" font-size="10.00">MessageQueues.ReadableMessageQueue</text>
<polyline fill="none" stroke="black" points="0,-82.5 202,-82.5 "/>
<text text-anchor="middle" x="101" y="-70.5" font-family="Helvetica,sans-Serif" font-size="10.00"> </text>
<polyline fill="none" stroke="black" points="0,-63.5 202,-63.5 "/>
<text text-anchor="start" x="8" y="-51.5" font-family="Helvetica,sans-Serif" font-size="10.00">+ BeginFullConsume()</text>
<text text-anchor="start" x="8" y="-40.5" font-family="Helvetica,sans-Serif" font-size="10.00">+ BeginLimitedConsume()</text>
<text text-anchor="start" x="8" y="-29.5" font-family="Helvetica,sans-Serif" font-size="10.00">+ Dispose()</text>
<text text-anchor="start" x="8" y="-18.5" font-family="Helvetica,sans-Serif" font-size="10.00">+ StopConsume()</text>
<text text-anchor="start" x="8" y="-7.5" font-family="Helvetica,sans-Serif" font-size="10.00"># Dispose()</text>
</a>
</g>
</g>
<!-- Node2 -->
<g id="node2" class="node"><title>Node2</title>
<g id="a_node2"><a xlink:href="class_pinknose_1_1_distributed_workers_1_1_message_queues_1_1_message_queue.html" target="_top" xlink:title="Abstraction of a RabbitMQ queue. This message queue can be written to, but cannot be read from.">
<polygon fill="white" stroke="black" points="18.5,-149.5 18.5,-382.5 183.5,-382.5 183.5,-149.5 18.5,-149.5"/>
<text text-anchor="middle" x="101" y="-370.5" font-family="Helvetica,sans-Serif" font-size="10.00">MessageQueue</text>
<polyline fill="none" stroke="black" points="18.5,-363.5 183.5,-363.5 "/>
<text text-anchor="start" x="26.5" y="-351.5" font-family="Helvetica,sans-Serif" font-size="10.00">+ Name</text>
<text text-anchor="start" x="26.5" y="-340.5" font-family="Helvetica,sans-Serif" font-size="10.00">+ QueueCount</text>
<text text-anchor="start" x="26.5" y="-329.5" font-family="Helvetica,sans-Serif" font-size="10.00">+ ConsumerCount</text>
<text text-anchor="start" x="26.5" y="-318.5" font-family="Helvetica,sans-Serif" font-size="10.00">+ ParentMessageClient</text>
<text text-anchor="start" x="26.5" y="-307.5" font-family="Helvetica,sans-Serif" font-size="10.00">+ Channel</text>
<polyline fill="none" stroke="black" points="18.5,-300.5 183.5,-300.5 "/>
<text text-anchor="start" x="26.5" y="-288.5" font-family="Helvetica,sans-Serif" font-size="10.00">+ Dispose()</text>
<text text-anchor="start" x="26.5" y="-277.5" font-family="Helvetica,sans-Serif" font-size="10.00">+ Purge()</text>
<text text-anchor="start" x="26.5" y="-266.5" font-family="Helvetica,sans-Serif" font-size="10.00">+ RespondToMessage()</text>
<text text-anchor="start" x="26.5" y="-255.5" font-family="Helvetica,sans-Serif" font-size="10.00">+ Write()</text>
<text text-anchor="start" x="26.5" y="-244.5" font-family="Helvetica,sans-Serif" font-size="10.00">+ Write()</text>
<text text-anchor="start" x="26.5" y="-233.5" font-family="Helvetica,sans-Serif" font-size="10.00">+ WriteToBoundExchange()</text>
<text text-anchor="start" x="26.5" y="-222.5" font-family="Helvetica,sans-Serif" font-size="10.00">~ CreateExchangeBoundMessage</text>
<text text-anchor="start" x="26.5" y="-211.5" font-family="Helvetica,sans-Serif" font-size="10.00">Queue&lt; TQueueType &gt;()</text>
<text text-anchor="start" x="26.5" y="-200.5" font-family="Helvetica,sans-Serif" font-size="10.00">~ CreateExchangeBoundMessage</text>
<text text-anchor="start" x="26.5" y="-189.5" font-family="Helvetica,sans-Serif" font-size="10.00">Queue&lt; TQueueType &gt;()</text>
<text text-anchor="start" x="26.5" y="-178.5" font-family="Helvetica,sans-Serif" font-size="10.00">~ CreateMessageQueue</text>
<text text-anchor="start" x="26.5" y="-167.5" font-family="Helvetica,sans-Serif" font-size="10.00">&lt; TQueueType &gt;()</text>
<text text-anchor="start" x="26.5" y="-156.5" font-family="Helvetica,sans-Serif" font-size="10.00"># Dispose()</text>
</a>
</g>
</g>
<!-- Node2&#45;&gt;Node1 -->
<g id="edge1" class="edge"><title>Node2&#45;&gt;Node1</title>
<path fill="none" stroke="midnightblue" d="M101,-139.325C101,-130.098 101,-121.112 101,-112.68"/>
<polygon fill="none" stroke="midnightblue" points="97.5001,-139.419 101,-149.419 104.5,-139.419 97.5001,-139.419"/>
</g>
<!-- Node3 -->
<g id="node3" class="node"><title>Node3</title>
<g id="a_node3"><a xlink:title=" ">
<polygon fill="white" stroke="#bfbfbf" points="67.5,-419.5 67.5,-476.5 134.5,-476.5 134.5,-419.5 67.5,-419.5"/>
<text text-anchor="middle" x="101" y="-464.5" font-family="Helvetica,sans-Serif" font-size="10.00">IDisposable</text>
<polyline fill="none" stroke="#bfbfbf" points="67.5,-457.5 134.5,-457.5 "/>
<text text-anchor="middle" x="101" y="-445.5" font-family="Helvetica,sans-Serif" font-size="10.00"> </text>
<polyline fill="none" stroke="#bfbfbf" points="67.5,-438.5 134.5,-438.5 "/>
<text text-anchor="middle" x="101" y="-426.5" font-family="Helvetica,sans-Serif" font-size="10.00"> </text>
</a>
</g>
</g>
<!-- Node3&#45;&gt;Node2 -->
<g id="edge2" class="edge"><title>Node3&#45;&gt;Node2</title>
<path fill="none" stroke="midnightblue" d="M101,-409.141C101,-401.029 101,-392.054 101,-382.673"/>
<polygon fill="none" stroke="midnightblue" points="97.5001,-409.269 101,-419.269 104.5,-409.27 97.5001,-409.269"/>
</g>
</g>
</svg>
