<?xml version="1.0" encoding="UTF-8" standalone="no"?>
<!DOCTYPE svg PUBLIC "-//W3C//DTD SVG 1.1//EN"
 "http://www.w3.org/Graphics/SVG/1.1/DTD/svg11.dtd">
<!-- Generated by graphviz version 2.38.0 (20140413.2041)
 -->
<!-- Title: Pinknose.DistributedWorkers.Configuration.MessageClientConfiguration Pages: 1 -->
<svg width="260pt" height="185pt"
 viewBox="0.00 0.00 259.50 185.00" xmlns="http://www.w3.org/2000/svg" xmlns:xlink="http://www.w3.org/1999/xlink">
<g id="graph0" class="graph" transform="scale(1 1) rotate(0) translate(4 181)">
<title>Pinknose.DistributedWorkers.Configuration.MessageClientConfiguration</title>
<polygon fill="white" stroke="none" points="-4,4 -4,-181 255.5,-181 255.5,4 -4,4"/>
<!-- Node1 -->
<g id="node1" class="node"><title>Node1</title>
<g id="a_node1"><a xlink:title=" ">
<polygon fill="#bfbfbf" stroke="black" points="11,-0.5 11,-30.5 208,-30.5 208,-0.5 11,-0.5"/>
<text text-anchor="start" x="19" y="-18.5" font-family="Helvetica,sans-Serif" font-size="10.00">Pinknose.DistributedWorkers.</text>
<text text-anchor="middle" x="109.5" y="-7.5" font-family="Helvetica,sans-Serif" font-size="10.00">Configuration.MessageClientConfiguration</text>
</a>
</g>
</g>
<!-- Node2 -->
<g id="node2" class="node"><title>Node2</title>
<g id="a_node2"><a xlink:href="class_pinknose_1_1_distributed_workers_1_1_configuration_1_1_message_client_configuration_base.html" target="_top" xlink:title=" ">
<polygon fill="white" stroke="black" points="20.5,-68.5 20.5,-98.5 198.5,-98.5 198.5,-68.5 20.5,-68.5"/>
<text text-anchor="start" x="28.5" y="-86.5" font-family="Helvetica,sans-Serif" font-size="10.00">MessageClientConfiguration</text>
<text text-anchor="middle" x="109.5" y="-75.5" font-family="Helvetica,sans-Serif" font-size="10.00">Base&lt; MessageClientConfiguration &gt;</text>
</a>
</g>
</g>
<!-- Node2&#45;&gt;Node1 -->
<g id="edge1" class="edge"><title>Node2&#45;&gt;Node1</title>
<path fill="none" stroke="midnightblue" d="M109.5,-58.0322C109.5,-48.8606 109.5,-38.7449 109.5,-30.7931"/>
<polygon fill="midnightblue" stroke="midnightblue" points="106,-58.1789 109.5,-68.179 113,-58.179 106,-58.1789"/>
</g>
<!-- Node3 -->
<g id="node3" class="node"><title>Node3</title>
<g id="a_node3"><a xlink:href="class_pinknose_1_1_distributed_workers_1_1_configuration_1_1_message_client_configuration_base.html" target="_top" xlink:title=" ">
<polygon fill="white" stroke="black" points="0,-146.5 0,-176.5 219,-176.5 219,-146.5 0,-146.5"/>
<text text-anchor="start" x="8" y="-164.5" font-family="Helvetica,sans-Serif" font-size="10.00">Pinknose.DistributedWorkers.</text>
<text text-anchor="middle" x="109.5" y="-153.5" font-family="Helvetica,sans-Serif" font-size="10.00">Configuration.MessageClientConfigurationBase</text>
</a>
</g>
</g>
<!-- Node3&#45;&gt;Node2 -->
<g id="edge2" class="edge"><title>Node3&#45;&gt;Node2</title>
<path fill="none" stroke="orange" stroke-dasharray="5,2" d="M109.5,-136.09C109.5,-123.757 109.5,-109.224 109.5,-98.7309"/>
<polygon fill="orange" stroke="orange" points="106,-136.205 109.5,-146.205 113,-136.205 106,-136.205"/>
<text text-anchor="middle" x="180.5" y="-120" font-family="Helvetica,sans-Serif" font-size="10.00"> &lt; MessageClientConfiguration &gt;</text>
</g>
</g>
</svg>
