<?xml version="1.0" encoding="UTF-8" standalone="no"?>
<!DOCTYPE svg PUBLIC "-//W3C//DTD SVG 1.1//EN"
 "http://www.w3.org/Graphics/SVG/1.1/DTD/svg11.dtd">
<!-- Generated by graphviz version 2.38.0 (20140413.2041)
 -->
<!-- Title: Pinknose.DistributedWorkers.Logging.DistributedWorkersSerilogSink Pages: 1 -->
<svg width="194pt" height="182pt"
 viewBox="0.00 0.00 194.00 182.00" xmlns="http://www.w3.org/2000/svg" xmlns:xlink="http://www.w3.org/1999/xlink">
<g id="graph0" class="graph" transform="scale(1 1) rotate(0) translate(4 178)">
<title>Pinknose.DistributedWorkers.Logging.DistributedWorkersSerilogSink</title>
<polygon fill="white" stroke="none" points="-4,4 -4,-178 190,-178 190,4 -4,4"/>
<!-- Node1 -->
<g id="node1" class="node"><title>Node1</title>
<g id="a_node1"><a xlink:title=" ">
<polygon fill="#bfbfbf" stroke="black" points="0,-0.5 0,-79.5 186,-79.5 186,-0.5 0,-0.5"/>
<text text-anchor="start" x="8" y="-67.5" font-family="Helvetica,sans-Serif" font-size="10.00">Pinknose.DistributedWorkers.</text>
<text text-anchor="middle" x="93" y="-56.5" font-family="Helvetica,sans-Serif" font-size="10.00">Logging.DistributedWorkersSerilogSink</text>
<polyline fill="none" stroke="black" points="0,-49.5 186,-49.5 "/>
<text text-anchor="middle" x="93" y="-37.5" font-family="Helvetica,sans-Serif" font-size="10.00"> </text>
<polyline fill="none" stroke="black" points="0,-30.5 186,-30.5 "/>
<text text-anchor="start" x="8" y="-18.5" font-family="Helvetica,sans-Serif" font-size="10.00">+ DistributedWorkersSerilogSink()</text>
<text text-anchor="start" x="8" y="-7.5" font-family="Helvetica,sans-Serif" font-size="10.00">+ Emit()</text>
</a>
</g>
</g>
<!-- Node2 -->
<g id="node2" class="node"><title>Node2</title>
<g id="a_node2"><a xlink:title=" ">
<polygon fill="white" stroke="#bfbfbf" points="54,-116.5 54,-173.5 132,-173.5 132,-116.5 54,-116.5"/>
<text text-anchor="middle" x="93" y="-161.5" font-family="Helvetica,sans-Serif" font-size="10.00">ILogEventSink</text>
<polyline fill="none" stroke="#bfbfbf" points="54,-154.5 132,-154.5 "/>
<text text-anchor="middle" x="93" y="-142.5" font-family="Helvetica,sans-Serif" font-size="10.00"> </text>
<polyline fill="none" stroke="#bfbfbf" points="54,-135.5 132,-135.5 "/>
<text text-anchor="middle" x="93" y="-123.5" font-family="Helvetica,sans-Serif" font-size="10.00"> </text>
</a>
</g>
</g>
<!-- Node2&#45;&gt;Node1 -->
<g id="edge1" class="edge"><title>Node2&#45;&gt;Node1</title>
<path fill="none" stroke="midnightblue" d="M93,-106.156C93,-97.4733 93,-88.2318 93,-79.5205"/>
<polygon fill="none" stroke="midnightblue" points="89.5001,-106.398 93,-116.398 96.5001,-106.398 89.5001,-106.398"/>
</g>
</g>
</svg>
