<?xml version="1.0" encoding="UTF-8" standalone="no"?>
<!DOCTYPE svg PUBLIC "-//W3C//DTD SVG 1.1//EN"
 "http://www.w3.org/Graphics/SVG/1.1/DTD/svg11.dtd">
<!-- Generated by graphviz version 2.38.0 (20140413.2041)
 -->
<!-- Title: Pinknose.DistributedWorkers.MessageQueues.MessageQueue.Write Pages: 1 -->
<svg width="420pt" height="39pt"
 viewBox="0.00 0.00 420.00 39.00" xmlns="http://www.w3.org/2000/svg" xmlns:xlink="http://www.w3.org/1999/xlink">
<g id="graph0" class="graph" transform="scale(1 1) rotate(0) translate(4 35)">
<title>Pinknose.DistributedWorkers.MessageQueues.MessageQueue.Write</title>
<polygon fill="white" stroke="none" points="-4,4 -4,-35 416,-35 416,4 -4,4"/>
<!-- Node1 -->
<g id="node1" class="node"><title>Node1</title>
<g id="a_node1"><a xlink:title=" ">
<polygon fill="#bfbfbf" stroke="black" points="0,-0.5 0,-30.5 188,-30.5 188,-0.5 0,-0.5"/>
<text text-anchor="start" x="8" y="-18.5" font-family="Helvetica,sans-Serif" font-size="10.00">Pinknose.DistributedWorkers.</text>
<text text-anchor="middle" x="94" y="-7.5" font-family="Helvetica,sans-Serif" font-size="10.00">MessageQueues.MessageQueue.Write</text>
</a>
</g>
</g>
<!-- Node2 -->
<g id="node2" class="node"><title>Node2</title>
<g id="a_node2"><a xlink:href="class_pinknose_1_1_distributed_workers_1_1_message_queues_1_1_message_queue.html#af92481196347bf2829bb45aa5a44f1f3" target="_top" xlink:title=" ">
<polygon fill="white" stroke="black" points="224,-0.5 224,-30.5 412,-30.5 412,-0.5 224,-0.5"/>
<text text-anchor="start" x="232" y="-18.5" font-family="Helvetica,sans-Serif" font-size="10.00">Pinknose.DistributedWorkers.</text>
<text text-anchor="middle" x="318" y="-7.5" font-family="Helvetica,sans-Serif" font-size="10.00">MessageQueues.MessageQueue.Write</text>
</a>
</g>
</g>
<!-- Node1&#45;&gt;Node2 -->
<g id="edge1" class="edge"><title>Node1&#45;&gt;Node2</title>
<path fill="none" stroke="midnightblue" d="M188.183,-15.5C196.535,-15.5 205.024,-15.5 213.456,-15.5"/>
<polygon fill="midnightblue" stroke="midnightblue" points="213.7,-19.0001 223.7,-15.5 213.699,-12.0001 213.7,-19.0001"/>
</g>
</g>
</svg>
