<?xml version="1.0" encoding="UTF-8" standalone="no"?>
<!DOCTYPE svg PUBLIC "-//W3C//DTD SVG 1.1//EN"
 "http://www.w3.org/Graphics/SVG/1.1/DTD/svg11.dtd">
<!-- Generated by graphviz version 2.38.0 (20140413.2041)
 -->
<!-- Title: Pinknose.DistributedWorkers.JsonShouldSerializeContractResolver Pages: 1 -->
<svg width="244pt" height="96pt"
 viewBox="0.00 0.00 244.00 96.00" xmlns="http://www.w3.org/2000/svg" xmlns:xlink="http://www.w3.org/1999/xlink">
<g id="graph0" class="graph" transform="scale(1 1) rotate(0) translate(4 92)">
<title>Pinknose.DistributedWorkers.JsonShouldSerializeContractResolver</title>
<polygon fill="white" stroke="none" points="-4,4 -4,-92 240,-92 240,4 -4,4"/>
<!-- Node1 -->
<g id="node1" class="node"><title>Node1</title>
<g id="a_node1"><a xlink:title=" ">
<polygon fill="#bfbfbf" stroke="black" points="0,-0.5 0,-30.5 178,-30.5 178,-0.5 0,-0.5"/>
<text text-anchor="start" x="8" y="-18.5" font-family="Helvetica,sans-Serif" font-size="10.00">Pinknose.DistributedWorkers.</text>
<text text-anchor="middle" x="89" y="-7.5" font-family="Helvetica,sans-Serif" font-size="10.00">JsonShouldSerializeContractResolver</text>
</a>
</g>
</g>
<!-- Node1&#45;&gt;Node1 -->
<g id="edge2" class="edge"><title>Node1&#45;&gt;Node1</title>
<path fill="none" stroke="#9a32cd" stroke-dasharray="5,2" d="M188.282,-19.583C193.141,-18.5627 196,-17.2017 196,-15.5 196,-12.8438 189.034,-11.0176 178.367,-10.0215"/>
<polygon fill="#9a32cd" stroke="#9a32cd" points="187.781,-16.1188 178.367,-20.9785 188.757,-23.0505 187.781,-16.1188"/>
<text text-anchor="middle" x="216" y="-13" font-family="Helvetica,sans-Serif" font-size="10.00"> Instance</text>
</g>
<!-- Node2 -->
<g id="node2" class="node"><title>Node2</title>
<g id="a_node2"><a xlink:title=" ">
<polygon fill="white" stroke="#bfbfbf" points="29,-68.5 29,-87.5 149,-87.5 149,-68.5 29,-68.5"/>
<text text-anchor="middle" x="89" y="-75.5" font-family="Helvetica,sans-Serif" font-size="10.00">DefaultContractResolver</text>
</a>
</g>
</g>
<!-- Node2&#45;&gt;Node1 -->
<g id="edge1" class="edge"><title>Node2&#45;&gt;Node1</title>
<path fill="none" stroke="midnightblue" d="M89,-58.2154C89,-49.3565 89,-38.9577 89,-30.7587"/>
<polygon fill="midnightblue" stroke="midnightblue" points="85.5001,-58.3318 89,-68.3318 92.5001,-58.3319 85.5001,-58.3318"/>
</g>
</g>
</svg>
