<?xml version="1.0" encoding="UTF-8" standalone="no"?>
<!DOCTYPE svg PUBLIC "-//W3C//DTD SVG 1.1//EN"
 "http://www.w3.org/Graphics/SVG/1.1/DTD/svg11.dtd">
<!-- Generated by graphviz version 2.38.0 (20140413.2041)
 -->
<!-- Title: Pinknose.DistributedWorkers.MessageTags.MessageTagValue Pages: 1 -->
<svg width="175pt" height="513pt"
 viewBox="0.00 0.00 175.00 513.00" xmlns="http://www.w3.org/2000/svg" xmlns:xlink="http://www.w3.org/1999/xlink">
<g id="graph0" class="graph" transform="scale(1 1) rotate(0) translate(4 509)">
<title>Pinknose.DistributedWorkers.MessageTags.MessageTagValue</title>
<polygon fill="white" stroke="none" points="-4,4 -4,-509 171,-509 171,4 -4,4"/>
<!-- Node1 -->
<g id="node1" class="node"><title>Node1</title>
<g id="a_node1"><a xlink:title=" ">
<polygon fill="#bfbfbf" stroke="black" points="3,-105.5 3,-184.5 164,-184.5 164,-105.5 3,-105.5"/>
<text text-anchor="start" x="11" y="-172.5" font-family="Helvetica,sans-Serif" font-size="10.00">Pinknose.DistributedWorkers.</text>
<text text-anchor="middle" x="83.5" y="-161.5" font-family="Helvetica,sans-Serif" font-size="10.00">MessageTags.MessageTagValue</text>
<polyline fill="none" stroke="black" points="3,-154.5 164,-154.5 "/>
<text text-anchor="start" x="11" y="-142.5" font-family="Helvetica,sans-Serif" font-size="10.00">+ Value</text>
<polyline fill="none" stroke="black" points="3,-135.5 164,-135.5 "/>
<text text-anchor="start" x="11" y="-123.5" font-family="Helvetica,sans-Serif" font-size="10.00">+ MessageTagValue()</text>
<text text-anchor="start" x="11" y="-112.5" font-family="Helvetica,sans-Serif" font-size="10.00">~ GetMangledTagAndValue()</text>
</a>
</g>
</g>
<!-- Node4 -->
<g id="node4" class="node"><title>Node4</title>
<g id="a_node4"><a xlink:href="class_pinknose_1_1_distributed_workers_1_1_message_tags_1_1_message_sender_tag.html" target="_top" xlink:title=" ">
<polygon fill="white" stroke="black" points="0,-0.5 0,-68.5 167,-68.5 167,-0.5 0,-0.5"/>
<text text-anchor="start" x="8" y="-56.5" font-family="Helvetica,sans-Serif" font-size="10.00">Pinknose.DistributedWorkers.</text>
<text text-anchor="middle" x="83.5" y="-45.5" font-family="Helvetica,sans-Serif" font-size="10.00">MessageTags.MessageSenderTag</text>
<polyline fill="none" stroke="black" points="0,-38.5 167,-38.5 "/>
<text text-anchor="middle" x="83.5" y="-26.5" font-family="Helvetica,sans-Serif" font-size="10.00"> </text>
<polyline fill="none" stroke="black" points="0,-19.5 167,-19.5 "/>
<text text-anchor="start" x="8" y="-7.5" font-family="Helvetica,sans-Serif" font-size="10.00">+ MessageSenderTag()</text>
</a>
</g>
</g>
<!-- Node1&#45;&gt;Node4 -->
<g id="edge3" class="edge"><title>Node1&#45;&gt;Node4</title>
<path fill="none" stroke="midnightblue" d="M83.5,-95.3492C83.5,-86.2824 83.5,-77.0048 83.5,-68.5439"/>
<polygon fill="none" stroke="midnightblue" points="80.0001,-95.4414 83.5,-105.441 87.0001,-95.4415 80.0001,-95.4414"/>
</g>
<!-- Node2 -->
<g id="node2" class="node"><title>Node2</title>
<g id="a_node2"><a xlink:href="class_pinknose_1_1_distributed_workers_1_1_message_tags_1_1_message_tag.html" target="_top" xlink:title="Represents a tag that can be used to subscribe to certain messages.">
<polygon fill="white" stroke="black" points="12.5,-221.5 12.5,-410.5 154.5,-410.5 154.5,-221.5 12.5,-221.5"/>
<text text-anchor="middle" x="83.5" y="-398.5" font-family="Helvetica,sans-Serif" font-size="10.00">MessageTag</text>
<polyline fill="none" stroke="black" points="12.5,-391.5 154.5,-391.5 "/>
<text text-anchor="start" x="20.5" y="-379.5" font-family="Helvetica,sans-Serif" font-size="10.00">+ TagName</text>
<polyline fill="none" stroke="black" points="12.5,-372.5 154.5,-372.5 "/>
<text text-anchor="start" x="20.5" y="-360.5" font-family="Helvetica,sans-Serif" font-size="10.00">+ MessageTag()</text>
<text text-anchor="start" x="20.5" y="-349.5" font-family="Helvetica,sans-Serif" font-size="10.00">+ Equals()</text>
<text text-anchor="start" x="20.5" y="-338.5" font-family="Helvetica,sans-Serif" font-size="10.00">+ Equals()</text>
<text text-anchor="start" x="20.5" y="-327.5" font-family="Helvetica,sans-Serif" font-size="10.00">+ GetHashCode()</text>
<text text-anchor="start" x="20.5" y="-316.5" font-family="Helvetica,sans-Serif" font-size="10.00">+ ToString()</text>
<text text-anchor="start" x="20.5" y="-305.5" font-family="Helvetica,sans-Serif" font-size="10.00">+ operator!=()</text>
<text text-anchor="start" x="20.5" y="-294.5" font-family="Helvetica,sans-Serif" font-size="10.00">+ operator==()</text>
<text text-anchor="start" x="20.5" y="-283.5" font-family="Helvetica,sans-Serif" font-size="10.00">+ operator|()</text>
<text text-anchor="start" x="20.5" y="-272.5" font-family="Helvetica,sans-Serif" font-size="10.00">+ operator|()</text>
<text text-anchor="start" x="20.5" y="-261.5" font-family="Helvetica,sans-Serif" font-size="10.00">~ GetMangledTagAndValue()</text>
<text text-anchor="start" x="20.5" y="-250.5" font-family="Helvetica,sans-Serif" font-size="10.00">~ GetMangledTagName()</text>
<text text-anchor="start" x="20.5" y="-239.5" font-family="Helvetica,sans-Serif" font-size="10.00">~ MangleTag()</text>
<text text-anchor="start" x="20.5" y="-228.5" font-family="Helvetica,sans-Serif" font-size="10.00">~ DemangleTag()</text>
</a>
</g>
</g>
<!-- Node2&#45;&gt;Node1 -->
<g id="edge1" class="edge"><title>Node2&#45;&gt;Node1</title>
<path fill="none" stroke="midnightblue" d="M83.5,-211.022C83.5,-201.823 83.5,-192.95 83.5,-184.871"/>
<polygon fill="none" stroke="midnightblue" points="80.0001,-211.11 83.5,-221.11 87.0001,-211.11 80.0001,-211.11"/>
</g>
<!-- Node3 -->
<g id="node3" class="node"><title>Node3</title>
<g id="a_node3"><a xlink:title=" ">
<polygon fill="white" stroke="#bfbfbf" points="15.5,-447.5 15.5,-504.5 151.5,-504.5 151.5,-447.5 15.5,-447.5"/>
<text text-anchor="middle" x="83.5" y="-492.5" font-family="Helvetica,sans-Serif" font-size="10.00">IEquatable&lt; MessageTag &gt;</text>
<polyline fill="none" stroke="#bfbfbf" points="15.5,-485.5 151.5,-485.5 "/>
<text text-anchor="middle" x="83.5" y="-473.5" font-family="Helvetica,sans-Serif" font-size="10.00"> </text>
<polyline fill="none" stroke="#bfbfbf" points="15.5,-466.5 151.5,-466.5 "/>
<text text-anchor="middle" x="83.5" y="-454.5" font-family="Helvetica,sans-Serif" font-size="10.00"> </text>
</a>
</g>
</g>
<!-- Node3&#45;&gt;Node2 -->
<g id="edge2" class="edge"><title>Node3&#45;&gt;Node2</title>
<path fill="none" stroke="midnightblue" d="M83.5,-437.215C83.5,-429.012 83.5,-419.986 83.5,-410.678"/>
<polygon fill="none" stroke="midnightblue" points="80.0001,-437.478 83.5,-447.479 87.0001,-437.479 80.0001,-437.478"/>
</g>
</g>
</svg>
