<?xml version="1.0" encoding="UTF-8" standalone="no"?>
<!DOCTYPE svg PUBLIC "-//W3C//DTD SVG 1.1//EN"
 "http://www.w3.org/Graphics/SVG/1.1/DTD/svg11.dtd">
<!-- Generated by graphviz version 2.38.0 (20140413.2041)
 -->
<!-- Title: Pinknose.DistributedWorkers.Keystore.SharedKeyCollection Pages: 1 -->
<svg width="157pt" height="182pt"
 viewBox="0.00 0.00 157.00 182.00" xmlns="http://www.w3.org/2000/svg" xmlns:xlink="http://www.w3.org/1999/xlink">
<g id="graph0" class="graph" transform="scale(1 1) rotate(0) translate(4 178)">
<title>Pinknose.DistributedWorkers.Keystore.SharedKeyCollection</title>
<polygon fill="white" stroke="none" points="-4,4 -4,-178 153,-178 153,4 -4,4"/>
<!-- Node1 -->
<g id="node1" class="node"><title>Node1</title>
<g id="a_node1"><a xlink:title=" ">
<polygon fill="#bfbfbf" stroke="black" points="0,-0.5 0,-79.5 149,-79.5 149,-0.5 0,-0.5"/>
<text text-anchor="start" x="8" y="-67.5" font-family="Helvetica,sans-Serif" font-size="10.00">Pinknose.DistributedWorkers.</text>
<text text-anchor="middle" x="74.5" y="-56.5" font-family="Helvetica,sans-Serif" font-size="10.00">Keystore.SharedKeyCollection</text>
<polyline fill="none" stroke="black" points="0,-49.5 149,-49.5 "/>
<text text-anchor="start" x="8" y="-37.5" font-family="Helvetica,sans-Serif" font-size="10.00">+ MaxKeyId</text>
<text text-anchor="start" x="8" y="-26.5" font-family="Helvetica,sans-Serif" font-size="10.00">+ this[int keyId]</text>
<polyline fill="none" stroke="black" points="0,-19.5 149,-19.5 "/>
<text text-anchor="start" x="8" y="-7.5" font-family="Helvetica,sans-Serif" font-size="10.00">+ GetEnumerator()</text>
</a>
</g>
</g>
<!-- Node2 -->
<g id="node2" class="node"><title>Node2</title>
<g id="a_node2"><a xlink:title=" ">
<polygon fill="white" stroke="#bfbfbf" points="19.5,-116.5 19.5,-173.5 129.5,-173.5 129.5,-116.5 19.5,-116.5"/>
<text text-anchor="middle" x="74.5" y="-161.5" font-family="Helvetica,sans-Serif" font-size="10.00">IEnumerable&lt; byte[]&gt;</text>
<polyline fill="none" stroke="#bfbfbf" points="19.5,-154.5 129.5,-154.5 "/>
<text text-anchor="middle" x="74.5" y="-142.5" font-family="Helvetica,sans-Serif" font-size="10.00"> </text>
<polyline fill="none" stroke="#bfbfbf" points="19.5,-135.5 129.5,-135.5 "/>
<text text-anchor="middle" x="74.5" y="-123.5" font-family="Helvetica,sans-Serif" font-size="10.00"> </text>
</a>
</g>
</g>
<!-- Node2&#45;&gt;Node1 -->
<g id="edge1" class="edge"><title>Node2&#45;&gt;Node1</title>
<path fill="none" stroke="midnightblue" d="M74.5,-106.156C74.5,-97.4733 74.5,-88.2318 74.5,-79.5205"/>
<polygon fill="none" stroke="midnightblue" points="71.0001,-106.398 74.5,-116.398 78.0001,-106.398 71.0001,-106.398"/>
</g>
</g>
</svg>
