<?xml version="1.0" encoding="UTF-8" standalone="no"?>
<!DOCTYPE svg PUBLIC "-//W3C//DTD SVG 1.1//EN"
 "http://www.w3.org/Graphics/SVG/1.1/DTD/svg11.dtd">
<!-- Generated by graphviz version 2.38.0 (20140413.2041)
 -->
<!-- Title: Pinknose.DistributedWorkers.MessageTags.MessageTagCollection.operator| Pages: 1 -->
<svg width="680pt" height="50pt"
 viewBox="0.00 0.00 680.00 50.00" xmlns="http://www.w3.org/2000/svg" xmlns:xlink="http://www.w3.org/1999/xlink">
<g id="graph0" class="graph" transform="scale(1 1) rotate(0) translate(4 46)">
<title>Pinknose.DistributedWorkers.MessageTags.MessageTagCollection.operator|</title>
<polygon fill="white" stroke="none" points="-4,4 -4,-46 676,-46 676,4 -4,4"/>
<!-- Node1 -->
<g id="node1" class="node"><title>Node1</title>
<g id="a_node1"><a xlink:title=" ">
<polygon fill="#bfbfbf" stroke="black" points="0,-6 0,-36 219,-36 219,-6 0,-6"/>
<text text-anchor="start" x="8" y="-24" font-family="Helvetica,sans-Serif" font-size="10.00">Pinknose.DistributedWorkers.</text>
<text text-anchor="middle" x="109.5" y="-13" font-family="Helvetica,sans-Serif" font-size="10.00">MessageTags.MessageTagCollection.operator|</text>
</a>
</g>
</g>
<!-- Node2 -->
<g id="node2" class="node"><title>Node2</title>
<g id="a_node2"><a xlink:href="class_pinknose_1_1_distributed_workers_1_1_message_tags_1_1_message_tag_collection.html#aed046f0bcb53545769e417eb13ff872c" target="_top" xlink:title=" ">
<polygon fill="white" stroke="black" points="255,-0.5 255,-41.5 437,-41.5 437,-0.5 255,-0.5"/>
<text text-anchor="start" x="263" y="-29.5" font-family="Helvetica,sans-Serif" font-size="10.00">Pinknose.DistributedWorkers.</text>
<text text-anchor="start" x="263" y="-18.5" font-family="Helvetica,sans-Serif" font-size="10.00">MessageTags.MessageTagCollection.</text>
<text text-anchor="middle" x="346" y="-7.5" font-family="Helvetica,sans-Serif" font-size="10.00">AddRange</text>
</a>
</g>
</g>
<!-- Node1&#45;&gt;Node2 -->
<g id="edge1" class="edge"><title>Node1&#45;&gt;Node2</title>
<path fill="none" stroke="midnightblue" d="M219.169,-21C227.687,-21 236.265,-21 244.723,-21"/>
<polygon fill="midnightblue" stroke="midnightblue" points="244.968,-24.5001 254.968,-21 244.968,-17.5001 244.968,-24.5001"/>
</g>
<!-- Node3 -->
<g id="node3" class="node"><title>Node3</title>
<g id="a_node3"><a xlink:href="class_pinknose_1_1_distributed_workers_1_1_message_tags_1_1_message_tag_collection.html#a26749c2e0124096ed3ca833164b2c7f3" target="_top" xlink:title=" ">
<polygon fill="white" stroke="black" points="473,-6 473,-36 672,-36 672,-6 473,-6"/>
<text text-anchor="start" x="481" y="-24" font-family="Helvetica,sans-Serif" font-size="10.00">Pinknose.DistributedWorkers.</text>
<text text-anchor="middle" x="572.5" y="-13" font-family="Helvetica,sans-Serif" font-size="10.00">MessageTags.MessageTagCollection.Add</text>
</a>
</g>
</g>
<!-- Node2&#45;&gt;Node3 -->
<g id="edge2" class="edge"><title>Node2&#45;&gt;Node3</title>
<path fill="none" stroke="midnightblue" d="M437.019,-21C445.524,-21 454.206,-21 462.86,-21"/>
<polygon fill="midnightblue" stroke="midnightblue" points="462.993,-24.5001 472.993,-21 462.993,-17.5001 462.993,-24.5001"/>
</g>
</g>
</svg>
