<?xml version="1.0" encoding="UTF-8" standalone="no"?>
<!DOCTYPE svg PUBLIC "-//W3C//DTD SVG 1.1//EN"
 "http://www.w3.org/Graphics/SVG/1.1/DTD/svg11.dtd">
<!-- Generated by graphviz version 2.38.0 (20140413.2041)
 -->
<!-- Title: Pinknose.DistributedWorkers.MessageTags.MessageTag.operator!= Pages: 1 -->
<svg width="395pt" height="39pt"
 viewBox="0.00 0.00 395.00 39.00" xmlns="http://www.w3.org/2000/svg" xmlns:xlink="http://www.w3.org/1999/xlink">
<g id="graph0" class="graph" transform="scale(1 1) rotate(0) translate(4 35)">
<title>Pinknose.DistributedWorkers.MessageTags.MessageTag.operator!=</title>
<polygon fill="white" stroke="none" points="-4,4 -4,-35 391,-35 391,4 -4,4"/>
<!-- Node1 -->
<g id="node1" class="node"><title>Node1</title>
<g id="a_node1"><a xlink:title=" ">
<polygon fill="#bfbfbf" stroke="black" points="0,-0.5 0,-30.5 182,-30.5 182,-0.5 0,-0.5"/>
<text text-anchor="start" x="8" y="-18.5" font-family="Helvetica,sans-Serif" font-size="10.00">Pinknose.DistributedWorkers.</text>
<text text-anchor="middle" x="91" y="-7.5" font-family="Helvetica,sans-Serif" font-size="10.00">MessageTags.MessageTag.operator!=</text>
</a>
</g>
</g>
<!-- Node2 -->
<g id="node2" class="node"><title>Node2</title>
<g id="a_node2"><a xlink:href="class_pinknose_1_1_distributed_workers_1_1_message_tags_1_1_message_tag.html#a4875a2f0a093ffe06d230b0760c10727" target="_top" xlink:title=" ">
<polygon fill="white" stroke="black" points="218,-0.5 218,-30.5 387,-30.5 387,-0.5 218,-0.5"/>
<text text-anchor="start" x="226" y="-18.5" font-family="Helvetica,sans-Serif" font-size="10.00">Pinknose.DistributedWorkers.</text>
<text text-anchor="middle" x="302.5" y="-7.5" font-family="Helvetica,sans-Serif" font-size="10.00">MessageTags.MessageTag.Equals</text>
</a>
</g>
</g>
<!-- Node1&#45;&gt;Node2 -->
<g id="edge1" class="edge"><title>Node1&#45;&gt;Node2</title>
<path fill="none" stroke="midnightblue" d="M182.063,-15.5C190.499,-15.5 199.065,-15.5 207.536,-15.5"/>
<polygon fill="midnightblue" stroke="midnightblue" points="207.806,-19.0001 217.806,-15.5 207.806,-12.0001 207.806,-19.0001"/>
</g>
</g>
</svg>
