<?xml version="1.0" encoding="UTF-8" standalone="no"?>
<!DOCTYPE svg PUBLIC "-//W3C//DTD SVG 1.1//EN"
 "http://www.w3.org/Graphics/SVG/1.1/DTD/svg11.dtd">
<!-- Generated by graphviz version 2.38.0 (20140413.2041)
 -->
<!-- Title: Pinknose.DistributedWorkers.MessageQueues.MessageQueue Pages: 1 -->
<svg width="210pt" height="162pt"
 viewBox="0.00 0.00 210.00 162.00" xmlns="http://www.w3.org/2000/svg" xmlns:xlink="http://www.w3.org/1999/xlink">
<g id="graph0" class="graph" transform="scale(1 1) rotate(0) translate(4 158)">
<title>Pinknose.DistributedWorkers.MessageQueues.MessageQueue</title>
<polygon fill="white" stroke="none" points="-4,4 -4,-158 206,-158 206,4 -4,4"/>
<!-- Node1 -->
<g id="node1" class="node"><title>Node1</title>
<g id="a_node1"><a xlink:title="Abstraction of a RabbitMQ queue. This message queue can be written to, but cannot be read from.">
<polygon fill="#bfbfbf" stroke="black" points="20.5,-67.5 20.5,-97.5 181.5,-97.5 181.5,-67.5 20.5,-67.5"/>
<text text-anchor="start" x="28.5" y="-85.5" font-family="Helvetica,sans-Serif" font-size="10.00">Pinknose.DistributedWorkers.</text>
<text text-anchor="middle" x="101" y="-74.5" font-family="Helvetica,sans-Serif" font-size="10.00">MessageQueues.MessageQueue</text>
</a>
</g>
</g>
<!-- Node3 -->
<g id="node3" class="node"><title>Node3</title>
<g id="a_node3"><a xlink:href="class_pinknose_1_1_distributed_workers_1_1_message_queues_1_1_readable_message_queue.html" target="_top" xlink:title="Abstraction of a RabbitMQ queue. This message queue can be written to and can be read from.">
<polygon fill="white" stroke="black" points="0,-0.5 0,-30.5 202,-30.5 202,-0.5 0,-0.5"/>
<text text-anchor="start" x="8" y="-18.5" font-family="Helvetica,sans-Serif" font-size="10.00">Pinknose.DistributedWorkers.</text>
<text text-anchor="middle" x="101" y="-7.5" font-family="Helvetica,sans-Serif" font-size="10.00">MessageQueues.ReadableMessageQueue</text>
</a>
</g>
</g>
<!-- Node1&#45;&gt;Node3 -->
<g id="edge2" class="edge"><title>Node1&#45;&gt;Node3</title>
<path fill="none" stroke="midnightblue" d="M101,-57.1081C101,-48.1539 101,-38.3227 101,-30.5765"/>
<polygon fill="midnightblue" stroke="midnightblue" points="97.5001,-57.3959 101,-67.396 104.5,-57.396 97.5001,-57.3959"/>
</g>
<!-- Node2 -->
<g id="node2" class="node"><title>Node2</title>
<g id="a_node2"><a xlink:title=" ">
<polygon fill="white" stroke="#bfbfbf" points="67.5,-134.5 67.5,-153.5 134.5,-153.5 134.5,-134.5 67.5,-134.5"/>
<text text-anchor="middle" x="101" y="-141.5" font-family="Helvetica,sans-Serif" font-size="10.00">IDisposable</text>
</a>
</g>
</g>
<!-- Node2&#45;&gt;Node1 -->
<g id="edge1" class="edge"><title>Node2&#45;&gt;Node1</title>
<path fill="none" stroke="midnightblue" d="M101,-124.235C101,-115.586 101,-105.497 101,-97.523"/>
<polygon fill="midnightblue" stroke="midnightblue" points="97.5001,-124.475 101,-134.475 104.5,-124.475 97.5001,-124.475"/>
</g>
</g>
</svg>
