<?xml version="1.0" encoding="UTF-8" standalone="no"?>
<!DOCTYPE svg PUBLIC "-//W3C//DTD SVG 1.1//EN"
 "http://www.w3.org/Graphics/SVG/1.1/DTD/svg11.dtd">
<!-- Generated by graphviz version 2.38.0 (20140413.2041)
 -->
<!-- Title: Pinknose.DistributedWorkers.MessageQueues.ReadableMessageQueue.BeginFullConsume Pages: 1 -->
<svg width="402pt" height="50pt"
 viewBox="0.00 0.00 402.00 50.00" xmlns="http://www.w3.org/2000/svg" xmlns:xlink="http://www.w3.org/1999/xlink">
<g id="graph0" class="graph" transform="scale(1 1) rotate(0) translate(4 46)">
<title>Pinknose.DistributedWorkers.MessageQueues.ReadableMessageQueue.BeginFullConsume</title>
<polygon fill="white" stroke="none" points="-4,4 -4,-46 398,-46 398,4 -4,4"/>
<!-- Node1 -->
<g id="node1" class="node"><title>Node1</title>
<g id="a_node1"><a xlink:title="Begin consuming messages as they come in (not rate limited).">
<polygon fill="#bfbfbf" stroke="black" points="189,-0.5 189,-41.5 394,-41.5 394,-0.5 189,-0.5"/>
<text text-anchor="start" x="197" y="-29.5" font-family="Helvetica,sans-Serif" font-size="10.00">Pinknose.DistributedWorkers.</text>
<text text-anchor="start" x="197" y="-18.5" font-family="Helvetica,sans-Serif" font-size="10.00">MessageQueues.ReadableMessageQueue.</text>
<text text-anchor="middle" x="291.5" y="-7.5" font-family="Helvetica,sans-Serif" font-size="10.00">BeginFullConsume</text>
</a>
</g>
</g>
<!-- Node2 -->
<g id="node2" class="node"><title>Node2</title>
<g id="a_node2"><a xlink:href="class_pinknose_1_1_distributed_workers_1_1_clients_1_1_message_client.html#a750f22349fdb1db7a28858544fa1285e" target="_top" xlink:title="Connects the server&#39;s queues to the RabbitMQ server and begins processing of messages.">
<polygon fill="white" stroke="black" points="0,-6 0,-36 153,-36 153,-6 0,-6"/>
<text text-anchor="start" x="8" y="-24" font-family="Helvetica,sans-Serif" font-size="10.00">Pinknose.DistributedWorkers.</text>
<text text-anchor="middle" x="76.5" y="-13" font-family="Helvetica,sans-Serif" font-size="10.00">Clients.MessageClient.Connect</text>
</a>
</g>
</g>
<!-- Node1&#45;&gt;Node2 -->
<g id="edge1" class="edge"><title>Node1&#45;&gt;Node2</title>
<path fill="none" stroke="midnightblue" d="M178.768,-21C170.066,-21 161.411,-21 153.036,-21"/>
<polygon fill="midnightblue" stroke="midnightblue" points="178.991,-24.5001 188.991,-21 178.991,-17.5001 178.991,-24.5001"/>
</g>
</g>
</svg>
