<?xml version="1.0" encoding="UTF-8" standalone="no"?>
<!DOCTYPE svg PUBLIC "-//W3C//DTD SVG 1.1//EN"
 "http://www.w3.org/Graphics/SVG/1.1/DTD/svg11.dtd">
<!-- Generated by graphviz version 2.38.0 (20140413.2041)
 -->
<!-- Title: Pinknose.DistributedWorkers.Logging.SerilogEventMessage Pages: 1 -->
<svg width="157pt" height="242pt"
 viewBox="0.00 0.00 157.00 242.00" xmlns="http://www.w3.org/2000/svg" xmlns:xlink="http://www.w3.org/1999/xlink">
<g id="graph0" class="graph" transform="scale(1 1) rotate(0) translate(4 238)">
<title>Pinknose.DistributedWorkers.Logging.SerilogEventMessage</title>
<polygon fill="white" stroke="none" points="-4,4 -4,-238 153,-238 153,4 -4,4"/>
<!-- Node1 -->
<g id="node1" class="node"><title>Node1</title>
<g id="a_node1"><a xlink:title=" ">
<polygon fill="#bfbfbf" stroke="black" points="1,-0.5 1,-30.5 148,-30.5 148,-0.5 1,-0.5"/>
<text text-anchor="start" x="9" y="-18.5" font-family="Helvetica,sans-Serif" font-size="10.00">Pinknose.DistributedWorkers.</text>
<text text-anchor="middle" x="74.5" y="-7.5" font-family="Helvetica,sans-Serif" font-size="10.00">Logging.SerilogEventMessage</text>
</a>
</g>
</g>
<!-- Node2 -->
<g id="node2" class="node"><title>Node2</title>
<g id="a_node2"><a xlink:href="class_pinknose_1_1_distributed_workers_1_1_messages_1_1_payload_message.html" target="_top" xlink:title=" ">
<polygon fill="white" stroke="black" points="0,-68.5 0,-87.5 149,-87.5 149,-68.5 0,-68.5"/>
<text text-anchor="middle" x="74.5" y="-75.5" font-family="Helvetica,sans-Serif" font-size="10.00">PayloadMessage&lt; LogEvent &gt;</text>
</a>
</g>
</g>
<!-- Node2&#45;&gt;Node1 -->
<g id="edge1" class="edge"><title>Node2&#45;&gt;Node1</title>
<path fill="none" stroke="midnightblue" d="M74.5,-58.2154C74.5,-49.3565 74.5,-38.9577 74.5,-30.7587"/>
<polygon fill="midnightblue" stroke="midnightblue" points="71.0001,-58.3318 74.5,-68.3318 78.0001,-58.3319 71.0001,-58.3318"/>
</g>
<!-- Node3 -->
<g id="node3" class="node"><title>Node3</title>
<g id="a_node3"><a xlink:href="class_pinknose_1_1_distributed_workers_1_1_messages_1_1_payload_message.html" target="_top" xlink:title="A message that has a strongly&#45;typed payload. There are a variety of options for compression or serial...">
<polygon fill="white" stroke="black" points="1.5,-135.5 1.5,-176.5 147.5,-176.5 147.5,-135.5 1.5,-135.5"/>
<text text-anchor="start" x="9.5" y="-164.5" font-family="Helvetica,sans-Serif" font-size="10.00">Pinknose.DistributedWorkers.</text>
<text text-anchor="start" x="9.5" y="-153.5" font-family="Helvetica,sans-Serif" font-size="10.00">Messages.PayloadMessage</text>
<text text-anchor="middle" x="74.5" y="-142.5" font-family="Helvetica,sans-Serif" font-size="10.00">&lt; TPayload &gt;</text>
</a>
</g>
</g>
<!-- Node3&#45;&gt;Node2 -->
<g id="edge2" class="edge"><title>Node3&#45;&gt;Node2</title>
<path fill="none" stroke="orange" stroke-dasharray="5,2" d="M74.5,-125.051C74.5,-111.56 74.5,-96.6493 74.5,-87.552"/>
<polygon fill="orange" stroke="orange" points="71.0001,-125.428 74.5,-135.428 78.0001,-125.428 71.0001,-125.428"/>
<text text-anchor="middle" x="105" y="-109" font-family="Helvetica,sans-Serif" font-size="10.00"> &lt; LogEvent &gt;</text>
</g>
<!-- Node4 -->
<g id="node4" class="node"><title>Node4</title>
<g id="a_node4"><a xlink:href="class_pinknose_1_1_distributed_workers_1_1_messages_1_1_message_base.html" target="_top" xlink:title="A message which is passed between client and server.">
<polygon fill="white" stroke="black" points="35,-214.5 35,-233.5 114,-233.5 114,-214.5 35,-214.5"/>
<text text-anchor="middle" x="74.5" y="-221.5" font-family="Helvetica,sans-Serif" font-size="10.00">MessageBase</text>
</a>
</g>
</g>
<!-- Node4&#45;&gt;Node3 -->
<g id="edge3" class="edge"><title>Node4&#45;&gt;Node3</title>
<path fill="none" stroke="midnightblue" d="M74.5,-204.246C74.5,-195.647 74.5,-185.451 74.5,-176.735"/>
<polygon fill="midnightblue" stroke="midnightblue" points="71.0001,-204.372 74.5,-214.372 78.0001,-204.372 71.0001,-204.372"/>
</g>
</g>
</svg>
