<?xml version="1.0" encoding="UTF-8" standalone="no"?>
<!DOCTYPE svg PUBLIC "-//W3C//DTD SVG 1.1//EN"
 "http://www.w3.org/Graphics/SVG/1.1/DTD/svg11.dtd">
<!-- Generated by graphviz version 2.38.0 (20140413.2041)
 -->
<!-- Title: Pinknose.DistributedWorkers.MessageTags.MessageTagCollection.AddRange Pages: 1 -->
<svg width="425pt" height="50pt"
 viewBox="0.00 0.00 425.00 50.00" xmlns="http://www.w3.org/2000/svg" xmlns:xlink="http://www.w3.org/1999/xlink">
<g id="graph0" class="graph" transform="scale(1 1) rotate(0) translate(4 46)">
<title>Pinknose.DistributedWorkers.MessageTags.MessageTagCollection.AddRange</title>
<polygon fill="white" stroke="none" points="-4,4 -4,-46 421,-46 421,4 -4,4"/>
<!-- Node1 -->
<g id="node1" class="node"><title>Node1</title>
<g id="a_node1"><a xlink:title=" ">
<polygon fill="#bfbfbf" stroke="black" points="0,-0.5 0,-41.5 182,-41.5 182,-0.5 0,-0.5"/>
<text text-anchor="start" x="8" y="-29.5" font-family="Helvetica,sans-Serif" font-size="10.00">Pinknose.DistributedWorkers.</text>
<text text-anchor="start" x="8" y="-18.5" font-family="Helvetica,sans-Serif" font-size="10.00">MessageTags.MessageTagCollection.</text>
<text text-anchor="middle" x="91" y="-7.5" font-family="Helvetica,sans-Serif" font-size="10.00">AddRange</text>
</a>
</g>
</g>
<!-- Node2 -->
<g id="node2" class="node"><title>Node2</title>
<g id="a_node2"><a xlink:href="class_pinknose_1_1_distributed_workers_1_1_message_tags_1_1_message_tag_collection.html#a26749c2e0124096ed3ca833164b2c7f3" target="_top" xlink:title=" ">
<polygon fill="white" stroke="black" points="218,-6 218,-36 417,-36 417,-6 218,-6"/>
<text text-anchor="start" x="226" y="-24" font-family="Helvetica,sans-Serif" font-size="10.00">Pinknose.DistributedWorkers.</text>
<text text-anchor="middle" x="317.5" y="-13" font-family="Helvetica,sans-Serif" font-size="10.00">MessageTags.MessageTagCollection.Add</text>
</a>
</g>
</g>
<!-- Node1&#45;&gt;Node2 -->
<g id="edge1" class="edge"><title>Node1&#45;&gt;Node2</title>
<path fill="none" stroke="midnightblue" d="M182.019,-21C190.524,-21 199.206,-21 207.86,-21"/>
<polygon fill="midnightblue" stroke="midnightblue" points="207.993,-24.5001 217.993,-21 207.993,-17.5001 207.993,-24.5001"/>
</g>
</g>
</svg>
