<?xml version="1.0" encoding="UTF-8" standalone="no"?>
<!DOCTYPE svg PUBLIC "-//W3C//DTD SVG 1.1//EN"
 "http://www.w3.org/Graphics/SVG/1.1/DTD/svg11.dtd">
<!-- Generated by graphviz version 2.38.0 (20140413.2041)
 -->
<!-- Title: Pinknose.DistributedWorkers.MessageTags.SystemTags Pages: 1 -->
<svg width="880pt" height="107pt"
 viewBox="0.00 0.00 880.00 107.13" xmlns="http://www.w3.org/2000/svg" xmlns:xlink="http://www.w3.org/1999/xlink">
<g id="graph0" class="graph" transform="scale(1 1) rotate(0) translate(4 103.128)">
<title>Pinknose.DistributedWorkers.MessageTags.SystemTags</title>
<polygon fill="white" stroke="none" points="-4,4 -4,-103.128 876,-103.128 876,4 -4,4"/>
<!-- Node1 -->
<g id="node1" class="node"><title>Node1</title>
<g id="a_node1"><a xlink:title=" ">
<polygon fill="#bfbfbf" stroke="black" points="726,-29.6275 726,-59.6275 872,-59.6275 872,-29.6275 726,-29.6275"/>
<text text-anchor="start" x="734" y="-47.6275" font-family="Helvetica,sans-Serif" font-size="10.00">Pinknose.DistributedWorkers.</text>
<text text-anchor="middle" x="799" y="-36.6275" font-family="Helvetica,sans-Serif" font-size="10.00">MessageTags.SystemTags</text>
</a>
</g>
</g>
<!-- Node2 -->
<g id="node2" class="node"><title>Node2</title>
<g id="a_node2"><a xlink:href="class_pinknose_1_1_distributed_workers_1_1_message_tags_1_1_message_tag.html" target="_top" xlink:title="Represents a tag that can be used to subscribe to certain messages.">
<polygon fill="white" stroke="black" points="263,-68.6275 263,-98.6275 409,-98.6275 409,-68.6275 263,-68.6275"/>
<text text-anchor="start" x="271" y="-86.6275" font-family="Helvetica,sans-Serif" font-size="10.00">Pinknose.DistributedWorkers.</text>
<text text-anchor="middle" x="336" y="-75.6275" font-family="Helvetica,sans-Serif" font-size="10.00">MessageTags.MessageTag</text>
</a>
</g>
</g>
<!-- Node2&#45;&gt;Node1 -->
<g id="edge1" class="edge"><title>Node2&#45;&gt;Node1</title>
<path fill="none" stroke="#9a32cd" stroke-dasharray="5,2" d="M419.399,-87.0333C494.975,-88.7243 609.747,-87.6746 708,-71.6275 723.939,-69.0244 741.009,-64.3967 755.953,-59.6996"/>
<polygon fill="#9a32cd" stroke="#9a32cd" points="419.084,-83.5246 409.001,-86.7778 418.912,-90.5225 419.084,-83.5246"/>
<text text-anchor="middle" x="507.5" y="-89.6275" font-family="Helvetica,sans-Serif" font-size="10.00"> SerilogAllEvents</text>
</g>
<!-- Node3 -->
<g id="node3" class="node"><title>Node3</title>
<g id="a_node3"><a xlink:title=" ">
<polygon fill="white" stroke="#bfbfbf" points="0,-51.1275 0,-70.1275 136,-70.1275 136,-51.1275 0,-51.1275"/>
<text text-anchor="middle" x="68" y="-58.1275" font-family="Helvetica,sans-Serif" font-size="10.00">IEquatable&lt; MessageTag &gt;</text>
</a>
</g>
</g>
<!-- Node3&#45;&gt;Node2 -->
<g id="edge2" class="edge"><title>Node3&#45;&gt;Node2</title>
<path fill="none" stroke="midnightblue" d="M146.29,-67.3105C183.031,-70.4874 226.695,-74.2628 262.764,-77.3816"/>
<polygon fill="midnightblue" stroke="midnightblue" points="146.387,-63.8059 136.123,-66.4314 145.784,-70.7799 146.387,-63.8059"/>
</g>
<!-- Node5 -->
<g id="node5" class="node"><title>Node5</title>
<g id="a_node5"><a xlink:href="class_pinknose_1_1_distributed_workers_1_1_message_tags_1_1_message_tag.html" target="_top" xlink:title="Represents a tag that can be used to subscribe to certain messages.">
<polygon fill="white" stroke="black" points="173,-27.1275 173,-46.1275 245,-46.1275 245,-27.1275 173,-27.1275"/>
<text text-anchor="middle" x="209" y="-34.1275" font-family="Helvetica,sans-Serif" font-size="10.00">MessageTag</text>
</a>
</g>
</g>
<!-- Node3&#45;&gt;Node5 -->
<g id="edge5" class="edge"><title>Node3&#45;&gt;Node5</title>
<path fill="none" stroke="midnightblue" d="M134.404,-49.3347C147.663,-47.0454 161.122,-44.7216 172.84,-42.6983"/>
<polygon fill="midnightblue" stroke="midnightblue" points="133.595,-45.9226 124.336,-51.0731 134.786,-52.8206 133.595,-45.9226"/>
</g>
<!-- Node4 -->
<g id="node4" class="node"><title>Node4</title>
<g id="a_node4"><a xlink:href="class_pinknose_1_1_distributed_workers_1_1_message_tags_1_1_message_tag_value.html" target="_top" xlink:title=" ">
<polygon fill="white" stroke="black" points="427,-4.62753 427,-34.6275 588,-34.6275 588,-4.62753 427,-4.62753"/>
<text text-anchor="start" x="435" y="-22.6275" font-family="Helvetica,sans-Serif" font-size="10.00">Pinknose.DistributedWorkers.</text>
<text text-anchor="middle" x="507.5" y="-11.6275" font-family="Helvetica,sans-Serif" font-size="10.00">MessageTags.MessageTagValue</text>
</a>
</g>
</g>
<!-- Node4&#45;&gt;Node1 -->
<g id="edge3" class="edge"><title>Node4&#45;&gt;Node1</title>
<path fill="none" stroke="#9a32cd" stroke-dasharray="5,2" d="M594.767,-3.34998C630.151,0.687238 671.333,1.97551 708,-5.62753 730.177,-10.2259 753.603,-20.5729 770.994,-29.4541"/>
<polygon fill="#9a32cd" stroke="#9a32cd" points="593.964,0.0776387 584.468,-4.62 594.821,-6.86974 593.964,0.0776387"/>
<text text-anchor="middle" x="657" y="-63.6275" font-family="Helvetica,sans-Serif" font-size="10.00"> SerilogVerboseEvent</text>
<text text-anchor="middle" x="657" y="-52.6275" font-family="Helvetica,sans-Serif" font-size="10.00">SerilogWarningEvent</text>
<text text-anchor="middle" x="657" y="-41.6275" font-family="Helvetica,sans-Serif" font-size="10.00">SerilogDebugEvent</text>
<text text-anchor="middle" x="657" y="-30.6275" font-family="Helvetica,sans-Serif" font-size="10.00">SerilogErrorEvent</text>
<text text-anchor="middle" x="657" y="-19.6275" font-family="Helvetica,sans-Serif" font-size="10.00">SerilogFatalEvent</text>
<text text-anchor="middle" x="657" y="-8.62753" font-family="Helvetica,sans-Serif" font-size="10.00">SerilogInformationEvent</text>
</g>
<!-- Node5&#45;&gt;Node4 -->
<g id="edge4" class="edge"><title>Node5&#45;&gt;Node4</title>
<path fill="none" stroke="midnightblue" d="M255.325,-34.0288C300.828,-31.4199 371.87,-27.3466 426.806,-24.1968"/>
<polygon fill="midnightblue" stroke="midnightblue" points="254.96,-30.5439 245.177,-34.6106 255.361,-37.5324 254.96,-30.5439"/>
</g>
</g>
</svg>
