<?xml version="1.0" encoding="UTF-8" standalone="no"?>
<!DOCTYPE svg PUBLIC "-//W3C//DTD SVG 1.1//EN"
 "http://www.w3.org/Graphics/SVG/1.1/DTD/svg11.dtd">
<!-- Generated by graphviz version 2.38.0 (20140413.2041)
 -->
<!-- Title: Pinknose.DistributedWorkers.MessageTags.MessageTag.Equals Pages: 1 -->
<svg width="399pt" height="88pt"
 viewBox="0.00 0.00 399.00 88.00" xmlns="http://www.w3.org/2000/svg" xmlns:xlink="http://www.w3.org/1999/xlink">
<g id="graph0" class="graph" transform="scale(1 1) rotate(0) translate(4 84)">
<title>Pinknose.DistributedWorkers.MessageTags.MessageTag.Equals</title>
<polygon fill="white" stroke="none" points="-4,4 -4,-84 395,-84 395,4 -4,4"/>
<!-- Node1 -->
<g id="node1" class="node"><title>Node1</title>
<g id="a_node1"><a xlink:title=" ">
<polygon fill="#bfbfbf" stroke="black" points="222,-24.5 222,-54.5 391,-54.5 391,-24.5 222,-24.5"/>
<text text-anchor="start" x="230" y="-42.5" font-family="Helvetica,sans-Serif" font-size="10.00">Pinknose.DistributedWorkers.</text>
<text text-anchor="middle" x="306.5" y="-31.5" font-family="Helvetica,sans-Serif" font-size="10.00">MessageTags.MessageTag.Equals</text>
</a>
</g>
</g>
<!-- Node2 -->
<g id="node2" class="node"><title>Node2</title>
<g id="a_node2"><a xlink:href="class_pinknose_1_1_distributed_workers_1_1_message_tags_1_1_message_tag.html#aaded6cf12a0e917df3b00f8091447191" target="_top" xlink:title=" ">
<polygon fill="white" stroke="black" points="2,-49.5 2,-79.5 184,-79.5 184,-49.5 2,-49.5"/>
<text text-anchor="start" x="10" y="-67.5" font-family="Helvetica,sans-Serif" font-size="10.00">Pinknose.DistributedWorkers.</text>
<text text-anchor="middle" x="93" y="-56.5" font-family="Helvetica,sans-Serif" font-size="10.00">MessageTags.MessageTag.operator!=</text>
</a>
</g>
</g>
<!-- Node1&#45;&gt;Node2 -->
<g id="edge1" class="edge"><title>Node1&#45;&gt;Node2</title>
<path fill="none" stroke="midnightblue" d="M211.695,-50.5881C202.589,-51.6644 193.364,-52.7548 184.294,-53.8269"/>
<polygon fill="midnightblue" stroke="midnightblue" points="212.39,-54.0304 221.91,-49.3807 211.568,-47.0788 212.39,-54.0304"/>
</g>
<!-- Node3 -->
<g id="node3" class="node"><title>Node3</title>
<g id="a_node3"><a xlink:href="class_pinknose_1_1_distributed_workers_1_1_message_tags_1_1_message_tag.html#a32dd0e720e800f0c37c78b8aa6f0c28b" target="_top" xlink:title=" ">
<polygon fill="white" stroke="black" points="0,-0.5 0,-30.5 186,-30.5 186,-0.5 0,-0.5"/>
<text text-anchor="start" x="8" y="-18.5" font-family="Helvetica,sans-Serif" font-size="10.00">Pinknose.DistributedWorkers.</text>
<text text-anchor="middle" x="93" y="-7.5" font-family="Helvetica,sans-Serif" font-size="10.00">MessageTags.MessageTag.operator==</text>
</a>
</g>
</g>
<!-- Node1&#45;&gt;Node3 -->
<g id="edge2" class="edge"><title>Node1&#45;&gt;Node3</title>
<path fill="none" stroke="midnightblue" d="M211.895,-28.8782C203.31,-27.904 194.617,-26.9175 186.046,-25.9449"/>
<polygon fill="midnightblue" stroke="midnightblue" points="211.579,-32.3646 221.91,-30.0146 212.368,-25.4093 211.579,-32.3646"/>
</g>
</g>
</svg>
