<?xml version="1.0" encoding="UTF-8" standalone="no"?>
<!DOCTYPE svg PUBLIC "-//W3C//DTD SVG 1.1//EN"
 "http://www.w3.org/Graphics/SVG/1.1/DTD/svg11.dtd">
<!-- Generated by graphviz version 2.38.0 (20140413.2041)
 -->
<!-- Title: Pinknose.DistributedWorkers.MessageTags.MessageTagCollection Pages: 1 -->
<svg width="240pt" height="259pt"
 viewBox="0.00 0.00 239.50 259.00" xmlns="http://www.w3.org/2000/svg" xmlns:xlink="http://www.w3.org/1999/xlink">
<g id="graph0" class="graph" transform="scale(1 1) rotate(0) translate(4 255)">
<title>Pinknose.DistributedWorkers.MessageTags.MessageTagCollection</title>
<polygon fill="white" stroke="none" points="-4,4 -4,-255 235.5,-255 235.5,4 -4,4"/>
<!-- Node1 -->
<g id="node1" class="node"><title>Node1</title>
<g id="a_node1"><a xlink:title=" ">
<polygon fill="#bfbfbf" stroke="black" points="44.5,-0.5 44.5,-156.5 223.5,-156.5 223.5,-0.5 44.5,-0.5"/>
<text text-anchor="start" x="52.5" y="-144.5" font-family="Helvetica,sans-Serif" font-size="10.00">Pinknose.DistributedWorkers.</text>
<text text-anchor="middle" x="134" y="-133.5" font-family="Helvetica,sans-Serif" font-size="10.00">MessageTags.MessageTagCollection</text>
<polyline fill="none" stroke="black" points="44.5,-126.5 223.5,-126.5 "/>
<text text-anchor="middle" x="134" y="-114.5" font-family="Helvetica,sans-Serif" font-size="10.00"> </text>
<polyline fill="none" stroke="black" points="44.5,-107.5 223.5,-107.5 "/>
<text text-anchor="start" x="52.5" y="-95.5" font-family="Helvetica,sans-Serif" font-size="10.00">+ MessageTagCollection()</text>
<text text-anchor="start" x="52.5" y="-84.5" font-family="Helvetica,sans-Serif" font-size="10.00">+ MessageTagCollection()</text>
<text text-anchor="start" x="52.5" y="-73.5" font-family="Helvetica,sans-Serif" font-size="10.00">+ Add()</text>
<text text-anchor="start" x="52.5" y="-62.5" font-family="Helvetica,sans-Serif" font-size="10.00">+ AddRange()</text>
<text text-anchor="start" x="52.5" y="-51.5" font-family="Helvetica,sans-Serif" font-size="10.00">+ ContainsTag()</text>
<text text-anchor="start" x="52.5" y="-40.5" font-family="Helvetica,sans-Serif" font-size="10.00">+ GetEnumerator()</text>
<text text-anchor="start" x="52.5" y="-29.5" font-family="Helvetica,sans-Serif" font-size="10.00">+ GetObjectData()</text>
<text text-anchor="start" x="52.5" y="-18.5" font-family="Helvetica,sans-Serif" font-size="10.00">+ operator|()</text>
<text text-anchor="start" x="52.5" y="-7.5" font-family="Helvetica,sans-Serif" font-size="10.00"># MessageTagCollection()</text>
</a>
</g>
</g>
<!-- Node2 -->
<g id="node2" class="node"><title>Node2</title>
<g id="a_node2"><a xlink:title=" ">
<polygon fill="white" stroke="#bfbfbf" points="0,-193.5 0,-250.5 144,-250.5 144,-193.5 0,-193.5"/>
<text text-anchor="middle" x="72" y="-238.5" font-family="Helvetica,sans-Serif" font-size="10.00">IEnumerable&lt; MessageTag &gt;</text>
<polyline fill="none" stroke="#bfbfbf" points="0,-231.5 144,-231.5 "/>
<text text-anchor="middle" x="72" y="-219.5" font-family="Helvetica,sans-Serif" font-size="10.00"> </text>
<polyline fill="none" stroke="#bfbfbf" points="0,-212.5 144,-212.5 "/>
<text text-anchor="middle" x="72" y="-200.5" font-family="Helvetica,sans-Serif" font-size="10.00"> </text>
</a>
</g>
</g>
<!-- Node2&#45;&gt;Node1 -->
<g id="edge1" class="edge"><title>Node2&#45;&gt;Node1</title>
<path fill="none" stroke="midnightblue" d="M88.1389,-184.167C91.8711,-175.649 95.9798,-166.272 100.158,-156.736"/>
<polygon fill="none" stroke="midnightblue" points="84.909,-182.817 84.1014,-193.381 91.3205,-185.627 84.909,-182.817"/>
</g>
<!-- Node3 -->
<g id="node3" class="node"><title>Node3</title>
<g id="a_node3"><a xlink:title=" ">
<polygon fill="white" stroke="#bfbfbf" points="162.5,-193.5 162.5,-250.5 231.5,-250.5 231.5,-193.5 162.5,-193.5"/>
<text text-anchor="middle" x="197" y="-238.5" font-family="Helvetica,sans-Serif" font-size="10.00">ISerializable</text>
<polyline fill="none" stroke="#bfbfbf" points="162.5,-231.5 231.5,-231.5 "/>
<text text-anchor="middle" x="197" y="-219.5" font-family="Helvetica,sans-Serif" font-size="10.00"> </text>
<polyline fill="none" stroke="#bfbfbf" points="162.5,-212.5 231.5,-212.5 "/>
<text text-anchor="middle" x="197" y="-200.5" font-family="Helvetica,sans-Serif" font-size="10.00"> </text>
</a>
</g>
</g>
<!-- Node3&#45;&gt;Node1 -->
<g id="edge2" class="edge"><title>Node3&#45;&gt;Node1</title>
<path fill="none" stroke="midnightblue" d="M180.601,-184.167C176.808,-175.649 172.633,-166.272 168.388,-156.736"/>
<polygon fill="none" stroke="midnightblue" points="177.439,-185.67 184.703,-193.381 183.833,-182.822 177.439,-185.67"/>
</g>
</g>
</svg>
