<?xml version="1.0" encoding="UTF-8" standalone="no"?>
<!DOCTYPE svg PUBLIC "-//W3C//DTD SVG 1.1//EN"
 "http://www.w3.org/Graphics/SVG/1.1/DTD/svg11.dtd">
<!-- Generated by graphviz version 2.38.0 (20140413.2041)
 -->
<!-- Title: Pinknose.DistributedWorkers.Configuration.MessageServerConfiguration Pages: 1 -->
<svg width="263pt" height="332pt"
 viewBox="0.00 0.00 262.50 332.00" xmlns="http://www.w3.org/2000/svg" xmlns:xlink="http://www.w3.org/1999/xlink">
<g id="graph0" class="graph" transform="scale(1 1) rotate(0) translate(4 328)">
<title>Pinknose.DistributedWorkers.Configuration.MessageServerConfiguration</title>
<polygon fill="white" stroke="none" points="-4,4 -4,-328 258.5,-328 258.5,4 -4,4"/>
<!-- Node1 -->
<g id="node1" class="node"><title>Node1</title>
<g id="a_node1"><a xlink:title=" ">
<polygon fill="#bfbfbf" stroke="black" points="10,-0.5 10,-101.5 209,-101.5 209,-0.5 10,-0.5"/>
<text text-anchor="start" x="18" y="-89.5" font-family="Helvetica,sans-Serif" font-size="10.00">Pinknose.DistributedWorkers.</text>
<text text-anchor="middle" x="109.5" y="-78.5" font-family="Helvetica,sans-Serif" font-size="10.00">Configuration.MessageServerConfiguration</text>
<polyline fill="none" stroke="black" points="10,-71.5 209,-71.5 "/>
<text text-anchor="middle" x="109.5" y="-59.5" font-family="Helvetica,sans-Serif" font-size="10.00"> </text>
<polyline fill="none" stroke="black" points="10,-52.5 209,-52.5 "/>
<text text-anchor="start" x="18" y="-40.5" font-family="Helvetica,sans-Serif" font-size="10.00">+ AddClientInfo()</text>
<text text-anchor="start" x="18" y="-29.5" font-family="Helvetica,sans-Serif" font-size="10.00">+ AddClientInfoRange()</text>
<text text-anchor="start" x="18" y="-18.5" font-family="Helvetica,sans-Serif" font-size="10.00">+ ServerInfo()</text>
<text text-anchor="start" x="18" y="-7.5" font-family="Helvetica,sans-Serif" font-size="10.00">+ CreateMessageServer()</text>
</a>
</g>
</g>
<!-- Node2 -->
<g id="node2" class="node"><title>Node2</title>
<g id="a_node2"><a xlink:href="class_pinknose_1_1_distributed_workers_1_1_configuration_1_1_message_client_configuration_base.html" target="_top" xlink:title=" ">
<polygon fill="white" stroke="black" points="19.5,-139.5 19.5,-207.5 199.5,-207.5 199.5,-139.5 19.5,-139.5"/>
<text text-anchor="start" x="27.5" y="-195.5" font-family="Helvetica,sans-Serif" font-size="10.00">MessageClientConfiguration</text>
<text text-anchor="middle" x="109.5" y="-184.5" font-family="Helvetica,sans-Serif" font-size="10.00">Base&lt; MessageServerConfiguration &gt;</text>
<polyline fill="none" stroke="black" points="19.5,-177.5 199.5,-177.5 "/>
<text text-anchor="middle" x="109.5" y="-165.5" font-family="Helvetica,sans-Serif" font-size="10.00"> </text>
<polyline fill="none" stroke="black" points="19.5,-158.5 199.5,-158.5 "/>
<text text-anchor="middle" x="109.5" y="-146.5" font-family="Helvetica,sans-Serif" font-size="10.00"> </text>
</a>
</g>
</g>
<!-- Node2&#45;&gt;Node1 -->
<g id="edge1" class="edge"><title>Node2&#45;&gt;Node1</title>
<path fill="none" stroke="midnightblue" d="M109.5,-129.151C109.5,-120.293 109.5,-110.906 109.5,-101.842"/>
<polygon fill="none" stroke="midnightblue" points="106,-129.254 109.5,-139.254 113,-129.254 106,-129.254"/>
</g>
<!-- Node3 -->
<g id="node3" class="node"><title>Node3</title>
<g id="a_node3"><a xlink:href="class_pinknose_1_1_distributed_workers_1_1_configuration_1_1_message_client_configuration_base.html" target="_top" xlink:title=" ">
<polygon fill="white" stroke="black" points="0,-255.5 0,-323.5 219,-323.5 219,-255.5 0,-255.5"/>
<text text-anchor="start" x="8" y="-311.5" font-family="Helvetica,sans-Serif" font-size="10.00">Pinknose.DistributedWorkers.</text>
<text text-anchor="middle" x="109.5" y="-300.5" font-family="Helvetica,sans-Serif" font-size="10.00">Configuration.MessageClientConfigurationBase</text>
<polyline fill="none" stroke="black" points="0,-293.5 219,-293.5 "/>
<text text-anchor="middle" x="109.5" y="-281.5" font-family="Helvetica,sans-Serif" font-size="10.00"> </text>
<polyline fill="none" stroke="black" points="0,-274.5 219,-274.5 "/>
<text text-anchor="middle" x="109.5" y="-262.5" font-family="Helvetica,sans-Serif" font-size="10.00"> </text>
</a>
</g>
</g>
<!-- Node3&#45;&gt;Node2 -->
<g id="edge2" class="edge"><title>Node3&#45;&gt;Node2</title>
<path fill="none" stroke="orange" d="M109.5,-245.06C109.5,-232.644 109.5,-219.316 109.5,-207.624"/>
<polygon fill="orange" stroke="orange" points="106,-245.22 109.5,-255.22 113,-245.22 106,-245.22"/>
<text text-anchor="middle" x="182" y="-229" font-family="Helvetica,sans-Serif" font-size="10.00"> &lt; MessageServerConfiguration &gt;</text>
</g>
</g>
</svg>
