<?xml version="1.0" encoding="UTF-8" standalone="no"?>
<!DOCTYPE svg PUBLIC "-//W3C//DTD SVG 1.1//EN"
 "http://www.w3.org/Graphics/SVG/1.1/DTD/svg11.dtd">
<!-- Generated by graphviz version 2.38.0 (20140413.2041)
 -->
<!-- Title: Pinknose.DistributedWorkers.Clients.MessageClientBase Pages: 1 -->
<svg width="753pt" height="160pt"
 viewBox="0.00 0.00 753.00 159.50" xmlns="http://www.w3.org/2000/svg" xmlns:xlink="http://www.w3.org/1999/xlink">
<g id="graph0" class="graph" transform="scale(1 1) rotate(0) translate(4 155.5)">
<title>Pinknose.DistributedWorkers.Clients.MessageClientBase</title>
<polygon fill="white" stroke="none" points="-4,4 -4,-155.5 749,-155.5 749,4 -4,4"/>
<!-- Node1 -->
<g id="node1" class="node"><title>Node1</title>
<g id="a_node1"><a xlink:title="The base class for message clients and servers.">
<polygon fill="#bfbfbf" stroke="black" points="104,-66 104,-96 250,-96 250,-66 104,-66"/>
<text text-anchor="start" x="112" y="-84" font-family="Helvetica,sans-Serif" font-size="10.00">Pinknose.DistributedWorkers.</text>
<text text-anchor="middle" x="177" y="-73" font-family="Helvetica,sans-Serif" font-size="10.00">Clients.MessageClientBase</text>
</a>
</g>
</g>
<!-- Node3 -->
<g id="node3" class="node"><title>Node3</title>
<g id="a_node3"><a xlink:href="class_message_client_base.html" target="_top" xlink:title=" ">
<polygon fill="white" stroke="black" points="434,-121 434,-151 544,-151 544,-121 434,-121"/>
<text text-anchor="start" x="442" y="-139" font-family="Helvetica,sans-Serif" font-size="10.00">MessageClientBase&lt;</text>
<text text-anchor="middle" x="489" y="-128" font-family="Helvetica,sans-Serif" font-size="10.00"> TServerQueue &gt;</text>
</a>
</g>
</g>
<!-- Node1&#45;&gt;Node3 -->
<g id="edge2" class="edge"><title>Node1&#45;&gt;Node3</title>
<path fill="none" stroke="midnightblue" d="M260.334,-95.6077C315.151,-105.333 385.641,-117.84 433.563,-126.342"/>
<polygon fill="midnightblue" stroke="midnightblue" points="260.748,-92.1265 250.29,-93.8256 259.525,-99.0188 260.748,-92.1265"/>
</g>
<!-- Node4 -->
<g id="node4" class="node"><title>Node4</title>
<g id="a_node4"><a xlink:href="class_pinknose_1_1_distributed_workers_1_1_clients_1_1_message_client_base.html" target="_top" xlink:title=" ">
<polygon fill="white" stroke="black" points="416,-60.5 416,-101.5 562,-101.5 562,-60.5 416,-60.5"/>
<text text-anchor="start" x="424" y="-89.5" font-family="Helvetica,sans-Serif" font-size="10.00">Pinknose.DistributedWorkers.</text>
<text text-anchor="start" x="424" y="-78.5" font-family="Helvetica,sans-Serif" font-size="10.00">Clients.MessageClientBase</text>
<text text-anchor="middle" x="489" y="-67.5" font-family="Helvetica,sans-Serif" font-size="10.00">&lt; ReadableMessageQueue &gt;</text>
</a>
</g>
</g>
<!-- Node1&#45;&gt;Node4 -->
<g id="edge3" class="edge"><title>Node1&#45;&gt;Node4</title>
<path fill="none" stroke="orange" stroke-dasharray="5,2" d="M260.42,-81C308.805,-81 369.377,-81 415.864,-81"/>
<polygon fill="orange" stroke="orange" points="260.29,-77.5001 250.29,-81 260.29,-84.5001 260.29,-77.5001"/>
<text text-anchor="middle" x="333" y="-84" font-family="Helvetica,sans-Serif" font-size="10.00"> &lt; ReadableMessageQueue &gt;</text>
</g>
<!-- Node6 -->
<g id="node6" class="node"><title>Node6</title>
<g id="a_node6"><a xlink:href="class_pinknose_1_1_distributed_workers_1_1_clients_1_1_message_client_base.html" target="_top" xlink:title=" ">
<polygon fill="white" stroke="black" points="416,-0.5 416,-41.5 562,-41.5 562,-0.5 416,-0.5"/>
<text text-anchor="start" x="424" y="-29.5" font-family="Helvetica,sans-Serif" font-size="10.00">Pinknose.DistributedWorkers.</text>
<text text-anchor="start" x="424" y="-18.5" font-family="Helvetica,sans-Serif" font-size="10.00">Clients.MessageClientBase</text>
<text text-anchor="middle" x="489" y="-7.5" font-family="Helvetica,sans-Serif" font-size="10.00">&lt; MessageQueue &gt;</text>
</a>
</g>
</g>
<!-- Node1&#45;&gt;Node6 -->
<g id="edge5" class="edge"><title>Node1&#45;&gt;Node6</title>
<path fill="none" stroke="orange" stroke-dasharray="5,2" d="M260.117,-65.1064C308.551,-55.732 369.28,-43.9781 415.864,-34.9618"/>
<polygon fill="orange" stroke="orange" points="259.443,-61.6719 250.29,-67.0084 260.773,-68.5443 259.443,-61.6719"/>
<text text-anchor="middle" x="333" y="-67" font-family="Helvetica,sans-Serif" font-size="10.00"> &lt; MessageQueue &gt;</text>
</g>
<!-- Node2 -->
<g id="node2" class="node"><title>Node2</title>
<g id="a_node2"><a xlink:title=" ">
<polygon fill="white" stroke="#bfbfbf" points="0,-71.5 0,-90.5 67,-90.5 67,-71.5 0,-71.5"/>
<text text-anchor="middle" x="33.5" y="-78.5" font-family="Helvetica,sans-Serif" font-size="10.00">IDisposable</text>
</a>
</g>
</g>
<!-- Node2&#45;&gt;Node1 -->
<g id="edge1" class="edge"><title>Node2&#45;&gt;Node1</title>
<path fill="none" stroke="midnightblue" d="M77.5517,-81C85.9247,-81 94.9124,-81 103.929,-81"/>
<polygon fill="midnightblue" stroke="midnightblue" points="77.3186,-77.5001 67.3186,-81 77.3186,-84.5001 77.3186,-77.5001"/>
</g>
<!-- Node5 -->
<g id="node5" class="node"><title>Node5</title>
<g id="a_node5"><a xlink:href="class_pinknose_1_1_distributed_workers_1_1_clients_1_1_message_server.html" target="_top" xlink:title=" ">
<polygon fill="white" stroke="black" points="599,-66 599,-96 745,-96 745,-66 599,-66"/>
<text text-anchor="start" x="607" y="-84" font-family="Helvetica,sans-Serif" font-size="10.00">Pinknose.DistributedWorkers.</text>
<text text-anchor="middle" x="672" y="-73" font-family="Helvetica,sans-Serif" font-size="10.00">Clients.MessageServer</text>
</a>
</g>
</g>
<!-- Node4&#45;&gt;Node5 -->
<g id="edge4" class="edge"><title>Node4&#45;&gt;Node5</title>
<path fill="none" stroke="midnightblue" d="M572.088,-81C581.031,-81 590.085,-81 598.896,-81"/>
<polygon fill="midnightblue" stroke="midnightblue" points="572.056,-77.5001 562.056,-81 572.056,-84.5001 572.056,-77.5001"/>
</g>
<!-- Node7 -->
<g id="node7" class="node"><title>Node7</title>
<g id="a_node7"><a xlink:href="class_pinknose_1_1_distributed_workers_1_1_clients_1_1_message_client.html" target="_top" xlink:title=" ">
<polygon fill="white" stroke="black" points="599,-6 599,-36 745,-36 745,-6 599,-6"/>
<text text-anchor="start" x="607" y="-24" font-family="Helvetica,sans-Serif" font-size="10.00">Pinknose.DistributedWorkers.</text>
<text text-anchor="middle" x="672" y="-13" font-family="Helvetica,sans-Serif" font-size="10.00">Clients.MessageClient</text>
</a>
</g>
</g>
<!-- Node6&#45;&gt;Node7 -->
<g id="edge6" class="edge"><title>Node6&#45;&gt;Node7</title>
<path fill="none" stroke="midnightblue" d="M572.088,-21C581.031,-21 590.085,-21 598.896,-21"/>
<polygon fill="midnightblue" stroke="midnightblue" points="572.056,-17.5001 562.056,-21 572.056,-24.5001 572.056,-17.5001"/>
</g>
</g>
</svg>
