<?xml version="1.0" encoding="UTF-8" standalone="no"?>
<!DOCTYPE svg PUBLIC "-//W3C//DTD SVG 1.1//EN"
 "http://www.w3.org/Graphics/SVG/1.1/DTD/svg11.dtd">
<!-- Generated by graphviz version 2.38.0 (20140413.2041)
 -->
<!-- Title: Pinknose.DistributedWorkers.Messages.PayloadMessage&lt; TPayload &gt; Pages: 1 -->
<svg width="154pt" height="106pt"
 viewBox="0.00 0.00 154.00 106.00" xmlns="http://www.w3.org/2000/svg" xmlns:xlink="http://www.w3.org/1999/xlink">
<g id="graph0" class="graph" transform="scale(1 1) rotate(0) translate(4 102)">
<title>Pinknose.DistributedWorkers.Messages.PayloadMessage&lt; TPayload &gt;</title>
<polygon fill="white" stroke="none" points="-4,4 -4,-102 150,-102 150,4 -4,4"/>
<!-- Node1 -->
<g id="node1" class="node"><title>Node1</title>
<g id="a_node1"><a xlink:title="A message that has a strongly&#45;typed payload. There are a variety of options for compression or serial...">
<polygon fill="#bfbfbf" stroke="black" points="0,-0.5 0,-41.5 146,-41.5 146,-0.5 0,-0.5"/>
<text text-anchor="start" x="8" y="-29.5" font-family="Helvetica,sans-Serif" font-size="10.00">Pinknose.DistributedWorkers.</text>
<text text-anchor="start" x="8" y="-18.5" font-family="Helvetica,sans-Serif" font-size="10.00">Messages.PayloadMessage</text>
<text text-anchor="middle" x="73" y="-7.5" font-family="Helvetica,sans-Serif" font-size="10.00">&lt; TPayload &gt;</text>
</a>
</g>
</g>
<!-- Node2 -->
<g id="node2" class="node"><title>Node2</title>
<g id="a_node2"><a xlink:href="class_pinknose_1_1_distributed_workers_1_1_messages_1_1_message_base.html" target="_top" xlink:title="A message which is passed between client and server.">
<polygon fill="white" stroke="black" points="33.5,-78.5 33.5,-97.5 112.5,-97.5 112.5,-78.5 33.5,-78.5"/>
<text text-anchor="middle" x="73" y="-85.5" font-family="Helvetica,sans-Serif" font-size="10.00">MessageBase</text>
</a>
</g>
</g>
<!-- Node2&#45;&gt;Node1 -->
<g id="edge1" class="edge"><title>Node2&#45;&gt;Node1</title>
<path fill="none" stroke="midnightblue" d="M73,-68.037C73,-59.7084 73,-49.9358 73,-41.5421"/>
<polygon fill="midnightblue" stroke="midnightblue" points="69.5001,-68.2338 73,-78.2338 76.5001,-68.2338 69.5001,-68.2338"/>
</g>
</g>
</svg>
