<?xml version="1.0" encoding="UTF-8" standalone="no"?>
<!DOCTYPE svg PUBLIC "-//W3C//DTD SVG 1.1//EN"
 "http://www.w3.org/Graphics/SVG/1.1/DTD/svg11.dtd">
<!-- Generated by graphviz version 2.38.0 (20140413.2041)
 -->
<!-- Title: Pinknose.DistributedWorkers.MessageTags.MessageTagCollection.Add Pages: 1 -->
<svg width="680pt" height="128pt"
 viewBox="0.00 0.00 680.00 127.50" xmlns="http://www.w3.org/2000/svg" xmlns:xlink="http://www.w3.org/1999/xlink">
<g id="graph0" class="graph" transform="scale(1 1) rotate(0) translate(4 123.5)">
<title>Pinknose.DistributedWorkers.MessageTags.MessageTagCollection.Add</title>
<polygon fill="white" stroke="none" points="-4,4 -4,-123.5 676,-123.5 676,4 -4,4"/>
<!-- Node1 -->
<g id="node1" class="node"><title>Node1</title>
<g id="a_node1"><a xlink:title=" ">
<polygon fill="#bfbfbf" stroke="black" points="473,-27.5 473,-57.5 672,-57.5 672,-27.5 473,-27.5"/>
<text text-anchor="start" x="481" y="-45.5" font-family="Helvetica,sans-Serif" font-size="10.00">Pinknose.DistributedWorkers.</text>
<text text-anchor="middle" x="572.5" y="-34.5" font-family="Helvetica,sans-Serif" font-size="10.00">MessageTags.MessageTagCollection.Add</text>
</a>
</g>
</g>
<!-- Node2 -->
<g id="node2" class="node"><title>Node2</title>
<g id="a_node2"><a xlink:href="class_pinknose_1_1_distributed_workers_1_1_message_tags_1_1_message_tag_collection.html#aed046f0bcb53545769e417eb13ff872c" target="_top" xlink:title=" ">
<polygon fill="white" stroke="black" points="255,-50 255,-91 437,-91 437,-50 255,-50"/>
<text text-anchor="start" x="263" y="-79" font-family="Helvetica,sans-Serif" font-size="10.00">Pinknose.DistributedWorkers.</text>
<text text-anchor="start" x="263" y="-68" font-family="Helvetica,sans-Serif" font-size="10.00">MessageTags.MessageTagCollection.</text>
<text text-anchor="middle" x="346" y="-57" font-family="Helvetica,sans-Serif" font-size="10.00">AddRange</text>
</a>
</g>
</g>
<!-- Node1&#45;&gt;Node2 -->
<g id="edge1" class="edge"><title>Node1&#45;&gt;Node2</title>
<path fill="none" stroke="midnightblue" d="M462.743,-56.0644C454.237,-57.1253 445.704,-58.1895 437.34,-59.2327"/>
<polygon fill="midnightblue" stroke="midnightblue" points="463.214,-59.5328 472.704,-54.822 462.348,-52.5866 463.214,-59.5328"/>
</g>
<!-- Node5 -->
<g id="node5" class="node"><title>Node5</title>
<g id="a_node5"><a xlink:href="class_pinknose_1_1_distributed_workers_1_1_message_tags_1_1_message_tag.html#aaee430cc68d8c4960e7170cf7857a460" target="_top" xlink:title=" ">
<polygon fill="white" stroke="black" points="258,-0.5 258,-30.5 434,-30.5 434,-0.5 258,-0.5"/>
<text text-anchor="start" x="266" y="-18.5" font-family="Helvetica,sans-Serif" font-size="10.00">Pinknose.DistributedWorkers.</text>
<text text-anchor="middle" x="346" y="-7.5" font-family="Helvetica,sans-Serif" font-size="10.00">MessageTags.MessageTag.operator|</text>
</a>
</g>
</g>
<!-- Node1&#45;&gt;Node5 -->
<g id="edge4" class="edge"><title>Node1&#45;&gt;Node5</title>
<path fill="none" stroke="midnightblue" d="M462.751,-29.4211C453.177,-28.2696 443.569,-27.1141 434.206,-25.988"/>
<polygon fill="midnightblue" stroke="midnightblue" points="462.358,-32.8989 472.704,-30.6181 463.194,-25.949 462.358,-32.8989"/>
</g>
<!-- Node3 -->
<g id="node3" class="node"><title>Node3</title>
<g id="a_node3"><a xlink:href="class_pinknose_1_1_distributed_workers_1_1_message_tags_1_1_message_tag_collection.html#af68d9b5c20b35ff6433be80e2f4dea1b" target="_top" xlink:title=" ">
<polygon fill="white" stroke="black" points="18.5,-78 18.5,-119 200.5,-119 200.5,-78 18.5,-78"/>
<text text-anchor="start" x="26.5" y="-107" font-family="Helvetica,sans-Serif" font-size="10.00">Pinknose.DistributedWorkers.</text>
<text text-anchor="start" x="26.5" y="-96" font-family="Helvetica,sans-Serif" font-size="10.00">MessageTags.MessageTagCollection.</text>
<text text-anchor="middle" x="109.5" y="-85" font-family="Helvetica,sans-Serif" font-size="10.00">MessageTagCollection</text>
</a>
</g>
</g>
<!-- Node2&#45;&gt;Node3 -->
<g id="edge2" class="edge"><title>Node2&#45;&gt;Node3</title>
<path fill="none" stroke="midnightblue" d="M244.649,-82.4822C230.074,-84.2225 215.142,-86.0054 200.782,-87.7201"/>
<polygon fill="midnightblue" stroke="midnightblue" points="245.157,-85.9465 254.672,-81.2855 244.327,-78.9959 245.157,-85.9465"/>
</g>
<!-- Node4 -->
<g id="node4" class="node"><title>Node4</title>
<g id="a_node4"><a xlink:href="class_pinknose_1_1_distributed_workers_1_1_message_tags_1_1_message_tag_collection.html#a77fe7cadb5c0b1b1dbe115fad30f0645" target="_top" xlink:title=" ">
<polygon fill="white" stroke="black" points="0,-28.5 0,-58.5 219,-58.5 219,-28.5 0,-28.5"/>
<text text-anchor="start" x="8" y="-46.5" font-family="Helvetica,sans-Serif" font-size="10.00">Pinknose.DistributedWorkers.</text>
<text text-anchor="middle" x="109.5" y="-35.5" font-family="Helvetica,sans-Serif" font-size="10.00">MessageTags.MessageTagCollection.operator|</text>
</a>
</g>
</g>
<!-- Node2&#45;&gt;Node4 -->
<g id="edge3" class="edge"><title>Node2&#45;&gt;Node4</title>
<path fill="none" stroke="midnightblue" d="M244.52,-58.9309C236.141,-57.9661 227.645,-56.9879 219.208,-56.0165"/>
<polygon fill="midnightblue" stroke="midnightblue" points="244.337,-62.4328 254.672,-60.0997 245.138,-55.4788 244.337,-62.4328"/>
</g>
</g>
</svg>
