<?xml version="1.0" encoding="UTF-8" standalone="no"?>
<!DOCTYPE svg PUBLIC "-//W3C//DTD SVG 1.1//EN"
 "http://www.w3.org/Graphics/SVG/1.1/DTD/svg11.dtd">
<!-- Generated by graphviz version 2.38.0 (20140413.2041)
 -->
<!-- Title: Pinknose.DistributedWorkers.Messages.MessageBase Pages: 1 -->
<!--zoomable 368 -->
<svg id="main" version="1.1" xmlns="http://www.w3.org/2000/svg" xmlns:xlink="http://www.w3.org/1999/xlink" xml:space="preserve" onload="init(evt)">
<style type="text/css"><![CDATA[
.edge:hover path { stroke: red; }
.edge:hover polygon { stroke: red; fill: red; }
]]></style>
<script type="text/javascript"><![CDATA[
var edges = document.getElementsByTagName('g');
if (edges && edges.length) {
  for (var i=0;i<edges.length;i++) {
    if (edges[i].id.substr(0,4)=='edge') {
      edges[i].setAttribute('class','edge');
    }
  }
}
]]></script>
        <defs>
                <circle id="rim" cx="0" cy="0" r="7"/>
                <circle id="rim2" cx="0" cy="0" r="3.5"/>
                <g id="zoomPlus">
                        <use xlink:href="#rim" fill="#404040">
                                <set attributeName="fill" to="#808080" begin="zoomplus.mouseover" end="zoomplus.mouseout"/>
                        </use>
                        <path d="M-4,0h8M0,-4v8" fill="none" stroke="white" stroke-width="1.5" pointer-events="none"/>
                </g>
                <g id="zoomMin">
                        <use xlink:href="#rim" fill="#404040">
                                <set attributeName="fill" to="#808080" begin="zoomminus.mouseover" end="zoomminus.mouseout"/>
                        </use>
                        <path d="M-4,0h8" fill="none" stroke="white" stroke-width="1.5" pointer-events="none"/>
                </g>
                <g id="dirArrow">
                        <path fill="none" stroke="white" stroke-width="1.5" d="M0,-3.0v7 M-2.5,-0.5L0,-3.0L2.5,-0.5"/>
                </g>
               <g id="resetDef">
                       <use xlink:href="#rim2" fill="#404040">
                               <set attributeName="fill" to="#808080" begin="reset.mouseover" end="reset.mouseout"/>
                       </use>
               </g>
        </defs>

<script type="text/javascript">
var viewWidth = 797;
var viewHeight = 368;
var sectionId = 'dynsection-0';
</script>
<script xlink:href="svgpan.js"/>
<svg id="graph" class="graph">
<g id="viewport">
<title>Pinknose.DistributedWorkers.Messages.MessageBase</title>
<polygon fill="white" stroke="none" points="-4,4 -4,-364 793,-364 793,4 -4,4"/>
<!-- Node1 -->
<g id="node1" class="node"><title>Node1</title>
<g id="a_node1"><a xlink:title="A message which is passed between client and server.">
<polygon fill="#bfbfbf" stroke="black" points="0,-159.5 0,-189.5 146,-189.5 146,-159.5 0,-159.5"/>
<text text-anchor="start" x="8" y="-177.5" font-family="Helvetica,sans-Serif" font-size="10.00">Pinknose.DistributedWorkers.</text>
<text text-anchor="middle" x="73" y="-166.5" font-family="Helvetica,sans-Serif" font-size="10.00">Messages.MessageBase</text>
</a>
</g>
</g>
<!-- Node2 -->
<g id="node2" class="node"><title>Node2</title>
<g id="a_node2"><a xlink:title=" ">
<polygon fill="white" stroke="#bfbfbf" points="186,-329.5 186,-359.5 359,-359.5 359,-329.5 186,-329.5"/>
<text text-anchor="start" x="194" y="-347.5" font-family="Helvetica,sans-Serif" font-size="10.00">Pinknose.DistributedWorkers.</text>
<text text-anchor="middle" x="272.5" y="-336.5" font-family="Helvetica,sans-Serif" font-size="10.00">Messages.ClientAnnounceMessage</text>
</a>
</g>
</g>
<!-- Node1&#45;&gt;Node2 -->
<g id="edge1" class="edge"><title>Node1&#45;&gt;Node2</title>
<path fill="none" stroke="midnightblue" d="M85.9398,-199.055C102.977,-231.504 137.326,-288.202 183,-319.5 188.663,-323.381 194.921,-326.663 201.414,-329.439"/>
<polygon fill="midnightblue" stroke="midnightblue" points="88.885,-197.127 81.2149,-189.818 82.653,-200.315 88.885,-197.127"/>
</g>
<!-- Node3 -->
<g id="node3" class="node"><title>Node3</title>
<g id="a_node3"><a xlink:title=" ">
<polygon fill="white" stroke="#bfbfbf" points="184.5,-269 184.5,-310 360.5,-310 360.5,-269 184.5,-269"/>
<text text-anchor="start" x="192.5" y="-298" font-family="Helvetica,sans-Serif" font-size="10.00">Pinknose.DistributedWorkers.</text>
<text text-anchor="start" x="192.5" y="-287" font-family="Helvetica,sans-Serif" font-size="10.00">Messages.ClientAnnounceResponse</text>
<text text-anchor="middle" x="272.5" y="-276" font-family="Helvetica,sans-Serif" font-size="10.00">Message</text>
</a>
</g>
</g>
<!-- Node1&#45;&gt;Node3 -->
<g id="edge2" class="edge"><title>Node1&#45;&gt;Node3</title>
<path fill="none" stroke="midnightblue" d="M97.2421,-196.423C118.268,-215.286 150.786,-242.128 183,-259.5 189.283,-262.888 196.02,-265.998 202.871,-268.825"/>
<polygon fill="midnightblue" stroke="midnightblue" points="99.5217,-193.765 89.771,-189.621 94.809,-198.941 99.5217,-193.765"/>
</g>
<!-- Node4 -->
<g id="node4" class="node"><title>Node4</title>
<g id="a_node4"><a xlink:title=" ">
<polygon fill="white" stroke="#bfbfbf" points="183,-209 183,-250 362,-250 362,-209 183,-209"/>
<text text-anchor="start" x="191" y="-238" font-family="Helvetica,sans-Serif" font-size="10.00">Pinknose.DistributedWorkers.</text>
<text text-anchor="start" x="191" y="-227" font-family="Helvetica,sans-Serif" font-size="10.00">Messages.ClientReannounceRequest</text>
<text text-anchor="middle" x="272.5" y="-216" font-family="Helvetica,sans-Serif" font-size="10.00">Message</text>
</a>
</g>
</g>
<!-- Node1&#45;&gt;Node4 -->
<g id="edge3" class="edge"><title>Node1&#45;&gt;Node4</title>
<path fill="none" stroke="midnightblue" d="M137.748,-192.253C156.835,-197.568 177.926,-203.441 197.607,-208.922"/>
<polygon fill="midnightblue" stroke="midnightblue" points="138.54,-188.84 127.968,-189.529 136.662,-195.583 138.54,-188.84"/>
</g>
<!-- Node5 -->
<g id="node5" class="node"><title>Node5</title>
<g id="a_node5"><a xlink:href="class_pinknose_1_1_distributed_workers_1_1_messages_1_1_heartbeat_message.html" target="_top" xlink:title=" ">
<polygon fill="white" stroke="black" points="199.5,-159.5 199.5,-189.5 345.5,-189.5 345.5,-159.5 199.5,-159.5"/>
<text text-anchor="start" x="207.5" y="-177.5" font-family="Helvetica,sans-Serif" font-size="10.00">Pinknose.DistributedWorkers.</text>
<text text-anchor="middle" x="272.5" y="-166.5" font-family="Helvetica,sans-Serif" font-size="10.00">Messages.HeartbeatMessage</text>
</a>
</g>
</g>
<!-- Node1&#45;&gt;Node5 -->
<g id="edge4" class="edge"><title>Node1&#45;&gt;Node5</title>
<path fill="none" stroke="midnightblue" d="M156.394,-174.5C170.614,-174.5 185.298,-174.5 199.225,-174.5"/>
<polygon fill="midnightblue" stroke="midnightblue" points="156.14,-171 146.14,-174.5 156.14,-178 156.14,-171"/>
</g>
<!-- Node6 -->
<g id="node6" class="node"><title>Node6</title>
<g id="a_node6"><a xlink:href="class_pinknose_1_1_distributed_workers_1_1_messages_1_1_payload_message.html" target="_top" xlink:title="A message that has a strongly&#45;typed payload. There are a variety of options for compression or serial...">
<polygon fill="white" stroke="black" points="199.5,-99 199.5,-140 345.5,-140 345.5,-99 199.5,-99"/>
<text text-anchor="start" x="207.5" y="-128" font-family="Helvetica,sans-Serif" font-size="10.00">Pinknose.DistributedWorkers.</text>
<text text-anchor="start" x="207.5" y="-117" font-family="Helvetica,sans-Serif" font-size="10.00">Messages.PayloadMessage</text>
<text text-anchor="middle" x="272.5" y="-106" font-family="Helvetica,sans-Serif" font-size="10.00">&lt; TPayload &gt;</text>
</a>
</g>
</g>
<!-- Node1&#45;&gt;Node6 -->
<g id="edge5" class="edge"><title>Node1&#45;&gt;Node6</title>
<path fill="none" stroke="midnightblue" d="M137.744,-156.749C157.428,-151.267 179.243,-145.192 199.447,-139.565"/>
<polygon fill="midnightblue" stroke="midnightblue" points="136.662,-153.417 127.968,-159.471 138.54,-160.16 136.662,-153.417"/>
</g>
<!-- Node9 -->
<g id="node9" class="node"><title>Node9</title>
<g id="a_node9"><a xlink:href="class_pinknose_1_1_distributed_workers_1_1_messages_1_1_public_key_update.html" target="_top" xlink:title=" ">
<polygon fill="white" stroke="black" points="199.5,-49.5 199.5,-79.5 345.5,-79.5 345.5,-49.5 199.5,-49.5"/>
<text text-anchor="start" x="207.5" y="-67.5" font-family="Helvetica,sans-Serif" font-size="10.00">Pinknose.DistributedWorkers.</text>
<text text-anchor="middle" x="272.5" y="-56.5" font-family="Helvetica,sans-Serif" font-size="10.00">Messages.PublicKeyUpdate</text>
</a>
</g>
</g>
<!-- Node1&#45;&gt;Node9 -->
<g id="edge8" class="edge"><title>Node1&#45;&gt;Node9</title>
<path fill="none" stroke="midnightblue" d="M96.6648,-152.5C117.538,-133.353 150.159,-106.133 183,-89.5 190.549,-85.6767 198.765,-82.3649 207.049,-79.5167"/>
<polygon fill="midnightblue" stroke="midnightblue" points="94.1889,-150.023 89.2644,-159.404 98.964,-155.142 94.1889,-150.023"/>
</g>
<!-- Node10 -->
<g id="node10" class="node"><title>Node10</title>
<g id="a_node10"><a xlink:href="class_pinknose_1_1_distributed_workers_1_1_messages_1_1_system_shared_key_update.html" target="_top" xlink:title=" ">
<polygon fill="white" stroke="black" points="184,-0.5 184,-30.5 361,-30.5 361,-0.5 184,-0.5"/>
<text text-anchor="start" x="192" y="-18.5" font-family="Helvetica,sans-Serif" font-size="10.00">Pinknose.DistributedWorkers.</text>
<text text-anchor="middle" x="272.5" y="-7.5" font-family="Helvetica,sans-Serif" font-size="10.00">Messages.SystemSharedKeyUpdate</text>
</a>
</g>
</g>
<!-- Node1&#45;&gt;Node10 -->
<g id="edge9" class="edge"><title>Node1&#45;&gt;Node10</title>
<path fill="none" stroke="midnightblue" d="M87.1041,-150.243C104.823,-119.769 139.294,-68.0215 183,-39.5 188.199,-36.107 193.869,-33.1907 199.744,-30.6848"/>
<polygon fill="midnightblue" stroke="midnightblue" points="83.8377,-148.908 81.9495,-159.333 89.9268,-152.36 83.8377,-148.908"/>
</g>
<!-- Node7 -->
<g id="node7" class="node"><title>Node7</title>
<g id="a_node7"><a xlink:href="class_pinknose_1_1_distributed_workers_1_1_messages_1_1_payload_message.html" target="_top" xlink:title=" ">
<polygon fill="white" stroke="black" points="459,-99 459,-140 605,-140 605,-99 459,-99"/>
<text text-anchor="start" x="467" y="-128" font-family="Helvetica,sans-Serif" font-size="10.00">Pinknose.DistributedWorkers.</text>
<text text-anchor="start" x="467" y="-117" font-family="Helvetica,sans-Serif" font-size="10.00">Messages.PayloadMessage</text>
<text text-anchor="middle" x="532" y="-106" font-family="Helvetica,sans-Serif" font-size="10.00">&lt; LogEvent &gt;</text>
</a>
</g>
</g>
<!-- Node6&#45;&gt;Node7 -->
<g id="edge6" class="edge"><title>Node6&#45;&gt;Node7</title>
<path fill="none" stroke="orange" stroke-dasharray="5,2" d="M355.706,-119.5C388.898,-119.5 426.858,-119.5 458.947,-119.5"/>
<polygon fill="orange" stroke="orange" points="355.571,-116 345.571,-119.5 355.57,-123 355.571,-116"/>
<text text-anchor="middle" x="410.5" y="-122.5" font-family="Helvetica,sans-Serif" font-size="10.00"> &lt; LogEvent &gt;</text>
</g>
<!-- Node8 -->
<g id="node8" class="node"><title>Node8</title>
<g id="a_node8"><a xlink:href="class_pinknose_1_1_distributed_workers_1_1_logging_1_1_serilog_event_message.html" target="_top" xlink:title=" ">
<polygon fill="white" stroke="black" points="642,-104.5 642,-134.5 789,-134.5 789,-104.5 642,-104.5"/>
<text text-anchor="start" x="650" y="-122.5" font-family="Helvetica,sans-Serif" font-size="10.00">Pinknose.DistributedWorkers.</text>
<text text-anchor="middle" x="715.5" y="-111.5" font-family="Helvetica,sans-Serif" font-size="10.00">Logging.SerilogEventMessage</text>
</a>
</g>
</g>
<!-- Node7&#45;&gt;Node8 -->
<g id="edge7" class="edge"><title>Node7&#45;&gt;Node8</title>
<path fill="none" stroke="midnightblue" d="M615.519,-119.5C624.32,-119.5 633.226,-119.5 641.9,-119.5"/>
<polygon fill="midnightblue" stroke="midnightblue" points="615.255,-116 605.255,-119.5 615.255,-123 615.255,-116"/>
</g>
</g>
</svg>
        <g id="navigator" transform="translate(0 0)" fill="#404254">
                <rect fill="#f2f5e9" fill-opacity="0.5" stroke="#606060" stroke-width=".5" x="0" y="0" width="60" height="60"/>
                <use id="zoomplus" xlink:href="#zoomPlus" x="17" y="9" onmousedown="handleZoom(evt,'in')"/>
                <use id="zoomminus" xlink:href="#zoomMin" x="42" y="9" onmousedown="handleZoom(evt,'out')"/>
                <use id="reset" xlink:href="#resetDef" x="30" y="36" onmousedown="handleReset()"/>
                <g id="arrowUp" xlink:href="#dirArrow" transform="translate(30 24)" onmousedown="handlePan(0,-1)">
                  <use xlink:href="#rim" fill="#404040">
                        <set attributeName="fill" to="#808080" begin="arrowUp.mouseover" end="arrowUp.mouseout"/>
                  </use>
                  <path fill="none" stroke="white" stroke-width="1.5" d="M0,-3.0v7 M-2.5,-0.5L0,-3.0L2.5,-0.5"/>
                </g>
                <g id="arrowRight" xlink:href="#dirArrow" transform="rotate(90) translate(36 -43)" onmousedown="handlePan(1,0)">
                  <use xlink:href="#rim" fill="#404040">
                        <set attributeName="fill" to="#808080" begin="arrowRight.mouseover" end="arrowRight.mouseout"/>
                  </use>
                  <path fill="none" stroke="white" stroke-width="1.5" d="M0,-3.0v7 M-2.5,-0.5L0,-3.0L2.5,-0.5"/>
                </g>
                <g id="arrowDown" xlink:href="#dirArrow" transform="rotate(180) translate(-30 -48)" onmousedown="handlePan(0,1)">
                  <use xlink:href="#rim" fill="#404040">
                        <set attributeName="fill" to="#808080" begin="arrowDown.mouseover" end="arrowDown.mouseout"/>
                  </use>
                  <path fill="none" stroke="white" stroke-width="1.5" d="M0,-3.0v7 M-2.5,-0.5L0,-3.0L2.5,-0.5"/>
                </g>
                <g id="arrowLeft" xlink:href="#dirArrow" transform="rotate(270) translate(-36 17)" onmousedown="handlePan(-1,0)">
                  <use xlink:href="#rim" fill="#404040">
                        <set attributeName="fill" to="#808080" begin="arrowLeft.mouseover" end="arrowLeft.mouseout"/>
                  </use>
                  <path fill="none" stroke="white" stroke-width="1.5" d="M0,-3.0v7 M-2.5,-0.5L0,-3.0L2.5,-0.5"/>
                </g>
        </g>
        <svg viewBox="0 0 15 15" width="100%" height="30px" preserveAspectRatio="xMaxYMin meet">
         <g id="arrow_out" transform="scale(0.3 0.3)">
          <a xlink:href="class_pinknose_1_1_distributed_workers_1_1_messages_1_1_message_base__inherit__graph_org.svg" target="_base">
           <rect id="button" ry="5" rx="5" y="6" x="6" height="38" width="38"
                fill="#f2f5e9" fill-opacity="0.5" stroke="#606060" stroke-width="1.0"/>
           <path id="arrow"
             d="M 11.500037,31.436501 C 11.940474,20.09759 22.043105,11.32322 32.158766,21.979434 L 37.068811,17.246167 C 37.068811,17.246167 37.088388,32 37.088388,32 L 22.160133,31.978069 C 22.160133,31.978069 26.997745,27.140456 26.997745,27.140456 C 18.528582,18.264221 13.291696,25.230495 11.500037,31.436501 z"
             style="fill:#404040;"/>
          </a>
         </g>
        </svg>
</svg>
