<?xml version="1.0" encoding="UTF-8" standalone="no"?>
<!DOCTYPE svg PUBLIC "-//W3C//DTD SVG 1.1//EN"
 "http://www.w3.org/Graphics/SVG/1.1/DTD/svg11.dtd">
<!-- Generated by graphviz version 2.38.0 (20140413.2041)
 -->
<!-- Title: Pinknose.DistributedWorkers.MessageQueues.ReadableMessageQueue Pages: 1 -->
<svg width="210pt" height="151pt"
 viewBox="0.00 0.00 210.00 151.00" xmlns="http://www.w3.org/2000/svg" xmlns:xlink="http://www.w3.org/1999/xlink">
<g id="graph0" class="graph" transform="scale(1 1) rotate(0) translate(4 147)">
<title>Pinknose.DistributedWorkers.MessageQueues.ReadableMessageQueue</title>
<polygon fill="white" stroke="none" points="-4,4 -4,-147 206,-147 206,4 -4,4"/>
<!-- Node1 -->
<g id="node1" class="node"><title>Node1</title>
<g id="a_node1"><a xlink:title="Abstraction of a RabbitMQ queue. This message queue can be written to and can be read from.">
<polygon fill="#bfbfbf" stroke="black" points="0,-0.5 0,-30.5 202,-30.5 202,-0.5 0,-0.5"/>
<text text-anchor="start" x="8" y="-18.5" font-family="Helvetica,sans-Serif" font-size="10.00">Pinknose.DistributedWorkers.</text>
<text text-anchor="middle" x="101" y="-7.5" font-family="Helvetica,sans-Serif" font-size="10.00">MessageQueues.ReadableMessageQueue</text>
</a>
</g>
</g>
<!-- Node2 -->
<g id="node2" class="node"><title>Node2</title>
<g id="a_node2"><a xlink:href="class_pinknose_1_1_distributed_workers_1_1_message_queues_1_1_message_queue.html" target="_top" xlink:title="Abstraction of a RabbitMQ queue. This message queue can be written to, but cannot be read from.">
<polygon fill="white" stroke="black" points="58.5,-67.5 58.5,-86.5 143.5,-86.5 143.5,-67.5 58.5,-67.5"/>
<text text-anchor="middle" x="101" y="-74.5" font-family="Helvetica,sans-Serif" font-size="10.00">MessageQueue</text>
</a>
</g>
</g>
<!-- Node2&#45;&gt;Node1 -->
<g id="edge1" class="edge"><title>Node2&#45;&gt;Node1</title>
<path fill="none" stroke="midnightblue" d="M101,-57.2349C101,-48.5864 101,-38.4969 101,-30.523"/>
<polygon fill="midnightblue" stroke="midnightblue" points="97.5001,-57.4751 101,-67.4751 104.5,-57.4751 97.5001,-57.4751"/>
</g>
<!-- Node3 -->
<g id="node3" class="node"><title>Node3</title>
<g id="a_node3"><a xlink:title=" ">
<polygon fill="white" stroke="#bfbfbf" points="67.5,-123.5 67.5,-142.5 134.5,-142.5 134.5,-123.5 67.5,-123.5"/>
<text text-anchor="middle" x="101" y="-130.5" font-family="Helvetica,sans-Serif" font-size="10.00">IDisposable</text>
</a>
</g>
</g>
<!-- Node3&#45;&gt;Node2 -->
<g id="edge2" class="edge"><title>Node3&#45;&gt;Node2</title>
<path fill="none" stroke="midnightblue" d="M101,-112.805C101,-103.91 101,-93.7798 101,-86.7511"/>
<polygon fill="midnightblue" stroke="midnightblue" points="97.5001,-113.083 101,-123.083 104.5,-113.083 97.5001,-113.083"/>
</g>
</g>
</svg>
