<?xml version="1.0" encoding="UTF-8" standalone="no"?>
<!DOCTYPE svg PUBLIC "-//W3C//DTD SVG 1.1//EN"
 "http://www.w3.org/Graphics/SVG/1.1/DTD/svg11.dtd">
<!-- Generated by graphviz version 2.38.0 (20140413.2041)
 -->
<!-- Title: Pinknose.DistributedWorkers.MessageTags.MessageTagValue Pages: 1 -->
<svg width="169pt" height="408pt"
 viewBox="0.00 0.00 169.00 408.00" xmlns="http://www.w3.org/2000/svg" xmlns:xlink="http://www.w3.org/1999/xlink">
<g id="graph0" class="graph" transform="scale(1 1) rotate(0) translate(4 404)">
<title>Pinknose.DistributedWorkers.MessageTags.MessageTagValue</title>
<polygon fill="white" stroke="none" points="-4,4 -4,-404 165,-404 165,4 -4,4"/>
<!-- Node1 -->
<g id="node1" class="node"><title>Node1</title>
<g id="a_node1"><a xlink:title=" ">
<polygon fill="#bfbfbf" stroke="black" points="0,-0.5 0,-79.5 161,-79.5 161,-0.5 0,-0.5"/>
<text text-anchor="start" x="8" y="-67.5" font-family="Helvetica,sans-Serif" font-size="10.00">Pinknose.DistributedWorkers.</text>
<text text-anchor="middle" x="80.5" y="-56.5" font-family="Helvetica,sans-Serif" font-size="10.00">MessageTags.MessageTagValue</text>
<polyline fill="none" stroke="black" points="0,-49.5 161,-49.5 "/>
<text text-anchor="start" x="8" y="-37.5" font-family="Helvetica,sans-Serif" font-size="10.00">+ Value</text>
<polyline fill="none" stroke="black" points="0,-30.5 161,-30.5 "/>
<text text-anchor="start" x="8" y="-18.5" font-family="Helvetica,sans-Serif" font-size="10.00">+ MessageTagValue()</text>
<text text-anchor="start" x="8" y="-7.5" font-family="Helvetica,sans-Serif" font-size="10.00">~ GetMangledTagAndValue()</text>
</a>
</g>
</g>
<!-- Node2 -->
<g id="node2" class="node"><title>Node2</title>
<g id="a_node2"><a xlink:href="class_pinknose_1_1_distributed_workers_1_1_message_tags_1_1_message_tag.html" target="_top" xlink:title="Represents a tag that can be used to subscribe to certain messages.">
<polygon fill="white" stroke="black" points="9.5,-116.5 9.5,-305.5 151.5,-305.5 151.5,-116.5 9.5,-116.5"/>
<text text-anchor="middle" x="80.5" y="-293.5" font-family="Helvetica,sans-Serif" font-size="10.00">MessageTag</text>
<polyline fill="none" stroke="black" points="9.5,-286.5 151.5,-286.5 "/>
<text text-anchor="start" x="17.5" y="-274.5" font-family="Helvetica,sans-Serif" font-size="10.00">+ TagName</text>
<polyline fill="none" stroke="black" points="9.5,-267.5 151.5,-267.5 "/>
<text text-anchor="start" x="17.5" y="-255.5" font-family="Helvetica,sans-Serif" font-size="10.00">+ MessageTag()</text>
<text text-anchor="start" x="17.5" y="-244.5" font-family="Helvetica,sans-Serif" font-size="10.00">+ Equals()</text>
<text text-anchor="start" x="17.5" y="-233.5" font-family="Helvetica,sans-Serif" font-size="10.00">+ Equals()</text>
<text text-anchor="start" x="17.5" y="-222.5" font-family="Helvetica,sans-Serif" font-size="10.00">+ GetHashCode()</text>
<text text-anchor="start" x="17.5" y="-211.5" font-family="Helvetica,sans-Serif" font-size="10.00">+ ToString()</text>
<text text-anchor="start" x="17.5" y="-200.5" font-family="Helvetica,sans-Serif" font-size="10.00">+ operator!=()</text>
<text text-anchor="start" x="17.5" y="-189.5" font-family="Helvetica,sans-Serif" font-size="10.00">+ operator==()</text>
<text text-anchor="start" x="17.5" y="-178.5" font-family="Helvetica,sans-Serif" font-size="10.00">+ operator|()</text>
<text text-anchor="start" x="17.5" y="-167.5" font-family="Helvetica,sans-Serif" font-size="10.00">+ operator|()</text>
<text text-anchor="start" x="17.5" y="-156.5" font-family="Helvetica,sans-Serif" font-size="10.00">~ GetMangledTagAndValue()</text>
<text text-anchor="start" x="17.5" y="-145.5" font-family="Helvetica,sans-Serif" font-size="10.00">~ GetMangledTagName()</text>
<text text-anchor="start" x="17.5" y="-134.5" font-family="Helvetica,sans-Serif" font-size="10.00">~ MangleTag()</text>
<text text-anchor="start" x="17.5" y="-123.5" font-family="Helvetica,sans-Serif" font-size="10.00">~ DemangleTag()</text>
</a>
</g>
</g>
<!-- Node2&#45;&gt;Node1 -->
<g id="edge1" class="edge"><title>Node2&#45;&gt;Node1</title>
<path fill="none" stroke="midnightblue" d="M80.5,-106.022C80.5,-96.8234 80.5,-87.95 80.5,-79.8714"/>
<polygon fill="none" stroke="midnightblue" points="77.0001,-106.11 80.5,-116.11 84.0001,-106.11 77.0001,-106.11"/>
</g>
<!-- Node3 -->
<g id="node3" class="node"><title>Node3</title>
<g id="a_node3"><a xlink:title=" ">
<polygon fill="white" stroke="#bfbfbf" points="12.5,-342.5 12.5,-399.5 148.5,-399.5 148.5,-342.5 12.5,-342.5"/>
<text text-anchor="middle" x="80.5" y="-387.5" font-family="Helvetica,sans-Serif" font-size="10.00">IEquatable&lt; MessageTag &gt;</text>
<polyline fill="none" stroke="#bfbfbf" points="12.5,-380.5 148.5,-380.5 "/>
<text text-anchor="middle" x="80.5" y="-368.5" font-family="Helvetica,sans-Serif" font-size="10.00"> </text>
<polyline fill="none" stroke="#bfbfbf" points="12.5,-361.5 148.5,-361.5 "/>
<text text-anchor="middle" x="80.5" y="-349.5" font-family="Helvetica,sans-Serif" font-size="10.00"> </text>
</a>
</g>
</g>
<!-- Node3&#45;&gt;Node2 -->
<g id="edge2" class="edge"><title>Node3&#45;&gt;Node2</title>
<path fill="none" stroke="midnightblue" d="M80.5,-332.215C80.5,-324.012 80.5,-314.986 80.5,-305.678"/>
<polygon fill="none" stroke="midnightblue" points="77.0001,-332.478 80.5,-342.479 84.0001,-332.479 77.0001,-332.478"/>
</g>
</g>
</svg>
