<?xml version="1.0" encoding="UTF-8" standalone="no"?>
<!DOCTYPE svg PUBLIC "-//W3C//DTD SVG 1.1//EN"
 "http://www.w3.org/Graphics/SVG/1.1/DTD/svg11.dtd">
<!-- Generated by graphviz version 2.38.0 (20140413.2041)
 -->
<!-- Title: Pinknose.DistributedWorkers.Messages.PayloadMessage&lt; TPayload &gt; Pages: 1 -->
<svg width="155pt" height="264pt"
 viewBox="0.00 0.00 155.00 264.00" xmlns="http://www.w3.org/2000/svg" xmlns:xlink="http://www.w3.org/1999/xlink">
<g id="graph0" class="graph" transform="scale(1 1) rotate(0) translate(4 260)">
<title>Pinknose.DistributedWorkers.Messages.PayloadMessage&lt; TPayload &gt;</title>
<polygon fill="white" stroke="none" points="-4,4 -4,-260 151,-260 151,4 -4,4"/>
<!-- Node1 -->
<g id="node1" class="node"><title>Node1</title>
<g id="a_node1"><a xlink:title="A message that has a strongly&#45;typed payload. There are a variety of options for compression or serial...">
<polygon fill="#bfbfbf" stroke="black" points="0.5,-157.5 0.5,-198.5 146.5,-198.5 146.5,-157.5 0.5,-157.5"/>
<text text-anchor="start" x="8.5" y="-186.5" font-family="Helvetica,sans-Serif" font-size="10.00">Pinknose.DistributedWorkers.</text>
<text text-anchor="start" x="8.5" y="-175.5" font-family="Helvetica,sans-Serif" font-size="10.00">Messages.PayloadMessage</text>
<text text-anchor="middle" x="73.5" y="-164.5" font-family="Helvetica,sans-Serif" font-size="10.00">&lt; TPayload &gt;</text>
</a>
</g>
</g>
<!-- Node3 -->
<g id="node3" class="node"><title>Node3</title>
<g id="a_node3"><a xlink:href="class_pinknose_1_1_distributed_workers_1_1_messages_1_1_payload_message.html" target="_top" xlink:title=" ">
<polygon fill="white" stroke="black" points="0.5,-68.5 0.5,-109.5 146.5,-109.5 146.5,-68.5 0.5,-68.5"/>
<text text-anchor="start" x="8.5" y="-97.5" font-family="Helvetica,sans-Serif" font-size="10.00">Pinknose.DistributedWorkers.</text>
<text text-anchor="start" x="8.5" y="-86.5" font-family="Helvetica,sans-Serif" font-size="10.00">Messages.PayloadMessage</text>
<text text-anchor="middle" x="73.5" y="-75.5" font-family="Helvetica,sans-Serif" font-size="10.00">&lt; LogEvent &gt;</text>
</a>
</g>
</g>
<!-- Node1&#45;&gt;Node3 -->
<g id="edge2" class="edge"><title>Node1&#45;&gt;Node3</title>
<path fill="none" stroke="orange" stroke-dasharray="5,2" d="M73.5,-146.941C73.5,-134.601 73.5,-120.662 73.5,-109.664"/>
<polygon fill="orange" stroke="orange" points="70.0001,-147.258 73.5,-157.258 77.0001,-147.258 70.0001,-147.258"/>
<text text-anchor="middle" x="104" y="-131" font-family="Helvetica,sans-Serif" font-size="10.00"> &lt; LogEvent &gt;</text>
</g>
<!-- Node2 -->
<g id="node2" class="node"><title>Node2</title>
<g id="a_node2"><a xlink:href="class_pinknose_1_1_distributed_workers_1_1_messages_1_1_message_base.html" target="_top" xlink:title="A message which is passed between client and server.">
<polygon fill="white" stroke="black" points="34,-236.5 34,-255.5 113,-255.5 113,-236.5 34,-236.5"/>
<text text-anchor="middle" x="73.5" y="-243.5" font-family="Helvetica,sans-Serif" font-size="10.00">MessageBase</text>
</a>
</g>
</g>
<!-- Node2&#45;&gt;Node1 -->
<g id="edge1" class="edge"><title>Node2&#45;&gt;Node1</title>
<path fill="none" stroke="midnightblue" d="M73.5,-226.246C73.5,-217.647 73.5,-207.451 73.5,-198.735"/>
<polygon fill="midnightblue" stroke="midnightblue" points="70.0001,-226.372 73.5,-236.372 77.0001,-226.372 70.0001,-226.372"/>
</g>
<!-- Node4 -->
<g id="node4" class="node"><title>Node4</title>
<g id="a_node4"><a xlink:href="class_pinknose_1_1_distributed_workers_1_1_logging_1_1_serilog_event_message.html" target="_top" xlink:title=" ">
<polygon fill="white" stroke="black" points="0,-0.5 0,-30.5 147,-30.5 147,-0.5 0,-0.5"/>
<text text-anchor="start" x="8" y="-18.5" font-family="Helvetica,sans-Serif" font-size="10.00">Pinknose.DistributedWorkers.</text>
<text text-anchor="middle" x="73.5" y="-7.5" font-family="Helvetica,sans-Serif" font-size="10.00">Logging.SerilogEventMessage</text>
</a>
</g>
</g>
<!-- Node3&#45;&gt;Node4 -->
<g id="edge3" class="edge"><title>Node3&#45;&gt;Node4</title>
<path fill="none" stroke="midnightblue" d="M73.5,-58.1581C73.5,-48.6872 73.5,-38.6473 73.5,-30.7972"/>
<polygon fill="midnightblue" stroke="midnightblue" points="70.0001,-58.4623 73.5,-68.4623 77.0001,-58.4623 70.0001,-58.4623"/>
</g>
</g>
</svg>
