<?xml version="1.0" encoding="UTF-8" standalone="no"?>
<!DOCTYPE svg PUBLIC "-//W3C//DTD SVG 1.1//EN"
 "http://www.w3.org/Graphics/SVG/1.1/DTD/svg11.dtd">
<!-- Generated by graphviz version 2.38.0 (20140413.2041)
 -->
<!-- Title: Pinknose.DistributedWorkers.MessageTags.MessageTagCollection.AddRange Pages: 1 -->
<svg width="445pt" height="100pt"
 viewBox="0.00 0.00 445.00 99.50" xmlns="http://www.w3.org/2000/svg" xmlns:xlink="http://www.w3.org/1999/xlink">
<g id="graph0" class="graph" transform="scale(1 1) rotate(0) translate(4 95.5)">
<title>Pinknose.DistributedWorkers.MessageTags.MessageTagCollection.AddRange</title>
<polygon fill="white" stroke="none" points="-4,4 -4,-95.5 441,-95.5 441,4 -4,4"/>
<!-- Node1 -->
<g id="node1" class="node"><title>Node1</title>
<g id="a_node1"><a xlink:title=" ">
<polygon fill="#bfbfbf" stroke="black" points="255,-22 255,-63 437,-63 437,-22 255,-22"/>
<text text-anchor="start" x="263" y="-51" font-family="Helvetica,sans-Serif" font-size="10.00">Pinknose.DistributedWorkers.</text>
<text text-anchor="start" x="263" y="-40" font-family="Helvetica,sans-Serif" font-size="10.00">MessageTags.MessageTagCollection.</text>
<text text-anchor="middle" x="346" y="-29" font-family="Helvetica,sans-Serif" font-size="10.00">AddRange</text>
</a>
</g>
</g>
<!-- Node2 -->
<g id="node2" class="node"><title>Node2</title>
<g id="a_node2"><a xlink:href="class_pinknose_1_1_distributed_workers_1_1_message_tags_1_1_message_tag_collection.html#af68d9b5c20b35ff6433be80e2f4dea1b" target="_top" xlink:title=" ">
<polygon fill="white" stroke="black" points="18.5,-50 18.5,-91 200.5,-91 200.5,-50 18.5,-50"/>
<text text-anchor="start" x="26.5" y="-79" font-family="Helvetica,sans-Serif" font-size="10.00">Pinknose.DistributedWorkers.</text>
<text text-anchor="start" x="26.5" y="-68" font-family="Helvetica,sans-Serif" font-size="10.00">MessageTags.MessageTagCollection.</text>
<text text-anchor="middle" x="109.5" y="-57" font-family="Helvetica,sans-Serif" font-size="10.00">MessageTagCollection</text>
</a>
</g>
</g>
<!-- Node1&#45;&gt;Node2 -->
<g id="edge1" class="edge"><title>Node1&#45;&gt;Node2</title>
<path fill="none" stroke="midnightblue" d="M244.649,-54.4822C230.074,-56.2225 215.142,-58.0054 200.782,-59.7201"/>
<polygon fill="midnightblue" stroke="midnightblue" points="245.157,-57.9465 254.672,-53.2855 244.327,-50.9959 245.157,-57.9465"/>
</g>
<!-- Node3 -->
<g id="node3" class="node"><title>Node3</title>
<g id="a_node3"><a xlink:href="class_pinknose_1_1_distributed_workers_1_1_message_tags_1_1_message_tag_collection.html#a77fe7cadb5c0b1b1dbe115fad30f0645" target="_top" xlink:title=" ">
<polygon fill="white" stroke="black" points="0,-0.5 0,-30.5 219,-30.5 219,-0.5 0,-0.5"/>
<text text-anchor="start" x="8" y="-18.5" font-family="Helvetica,sans-Serif" font-size="10.00">Pinknose.DistributedWorkers.</text>
<text text-anchor="middle" x="109.5" y="-7.5" font-family="Helvetica,sans-Serif" font-size="10.00">MessageTags.MessageTagCollection.operator|</text>
</a>
</g>
</g>
<!-- Node1&#45;&gt;Node3 -->
<g id="edge2" class="edge"><title>Node1&#45;&gt;Node3</title>
<path fill="none" stroke="midnightblue" d="M244.52,-30.9309C236.141,-29.9661 227.645,-28.9879 219.208,-28.0165"/>
<polygon fill="midnightblue" stroke="midnightblue" points="244.337,-34.4328 254.672,-32.0997 245.138,-27.4788 244.337,-34.4328"/>
</g>
</g>
</svg>
