<?xml version="1.0" encoding="UTF-8" standalone="no"?>
<!DOCTYPE svg PUBLIC "-//W3C//DTD SVG 1.1//EN"
 "http://www.w3.org/Graphics/SVG/1.1/DTD/svg11.dtd">
<!-- Generated by graphviz version 2.38.0 (20140413.2041)
 -->
<!-- Title: Pinknose.DistributedWorkers.Clients.MessageClientBase.CreateClientKey Pages: 1 -->
<svg width="373pt" height="110pt"
 viewBox="0.00 0.00 373.00 110.00" xmlns="http://www.w3.org/2000/svg" xmlns:xlink="http://www.w3.org/1999/xlink">
<g id="graph0" class="graph" transform="scale(1 1) rotate(0) translate(4 106)">
<title>Pinknose.DistributedWorkers.Clients.MessageClientBase.CreateClientKey</title>
<polygon fill="white" stroke="none" points="-4,4 -4,-106 369,-106 369,4 -4,4"/>
<!-- Node1 -->
<g id="node1" class="node"><title>Node1</title>
<g id="a_node1"><a xlink:title=" ">
<polygon fill="#bfbfbf" stroke="black" points="197,-30.5 197,-71.5 365,-71.5 365,-30.5 197,-30.5"/>
<text text-anchor="start" x="205" y="-59.5" font-family="Helvetica,sans-Serif" font-size="10.00">Pinknose.DistributedWorkers.</text>
<text text-anchor="start" x="205" y="-48.5" font-family="Helvetica,sans-Serif" font-size="10.00">Clients.MessageClientBase.Create</text>
<text text-anchor="middle" x="281" y="-37.5" font-family="Helvetica,sans-Serif" font-size="10.00">ClientKey</text>
</a>
</g>
</g>
<!-- Node2 -->
<g id="node2" class="node"><title>Node2</title>
<g id="a_node2"><a xlink:href="class_pinknose_1_1_distributed_workers_1_1_clients_1_1_message_client_info.html#a2ccd557bbd79b7480209e69add267f66" target="_top" xlink:title=" ">
<polygon fill="white" stroke="black" points="0,-60.5 0,-101.5 161,-101.5 161,-60.5 0,-60.5"/>
<text text-anchor="start" x="8" y="-89.5" font-family="Helvetica,sans-Serif" font-size="10.00">Pinknose.DistributedWorkers.</text>
<text text-anchor="start" x="8" y="-78.5" font-family="Helvetica,sans-Serif" font-size="10.00">Clients.MessageClientInfo.Create</text>
<text text-anchor="middle" x="80.5" y="-67.5" font-family="Helvetica,sans-Serif" font-size="10.00">ClientInfo</text>
</a>
</g>
</g>
<!-- Node1&#45;&gt;Node2 -->
<g id="edge1" class="edge"><title>Node1&#45;&gt;Node2</title>
<path fill="none" stroke="midnightblue" d="M186.869,-65.0753C178.228,-66.3812 169.524,-67.6966 161.022,-68.9815"/>
<polygon fill="midnightblue" stroke="midnightblue" points="187.604,-68.504 196.968,-63.5489 186.558,-61.5826 187.604,-68.504"/>
</g>
<!-- Node3 -->
<g id="node3" class="node"><title>Node3</title>
<g id="a_node3"><a xlink:href="class_pinknose_1_1_distributed_workers_1_1_clients_1_1_message_client_info.html#a8c6099eb025238ddc363f47c4cb3ac43" target="_top" xlink:title=" ">
<polygon fill="white" stroke="black" points="0,-0.5 0,-41.5 161,-41.5 161,-0.5 0,-0.5"/>
<text text-anchor="start" x="8" y="-29.5" font-family="Helvetica,sans-Serif" font-size="10.00">Pinknose.DistributedWorkers.</text>
<text text-anchor="start" x="8" y="-18.5" font-family="Helvetica,sans-Serif" font-size="10.00">Clients.MessageClientInfo.Create</text>
<text text-anchor="middle" x="80.5" y="-7.5" font-family="Helvetica,sans-Serif" font-size="10.00">ServerInfo</text>
</a>
</g>
</g>
<!-- Node1&#45;&gt;Node3 -->
<g id="edge2" class="edge"><title>Node1&#45;&gt;Node3</title>
<path fill="none" stroke="midnightblue" d="M186.869,-36.9247C178.228,-35.6188 169.524,-34.3034 161.022,-33.0185"/>
<polygon fill="midnightblue" stroke="midnightblue" points="186.558,-40.4174 196.968,-38.4511 187.604,-33.496 186.558,-40.4174"/>
</g>
</g>
</svg>
