<?xml version="1.0" encoding="UTF-8" standalone="no"?>
<!DOCTYPE svg PUBLIC "-//W3C//DTD SVG 1.1//EN"
 "http://www.w3.org/Graphics/SVG/1.1/DTD/svg11.dtd">
<!-- Generated by graphviz version 2.38.0 (20140413.2041)
 -->
<!-- Title: Pinknose.DistributedWorkers.Clients.MessageClient Pages: 1 -->
<svg width="171pt" height="242pt"
 viewBox="0.00 0.00 171.00 242.00" xmlns="http://www.w3.org/2000/svg" xmlns:xlink="http://www.w3.org/1999/xlink">
<g id="graph0" class="graph" transform="scale(1 1) rotate(0) translate(4 238)">
<title>Pinknose.DistributedWorkers.Clients.MessageClient</title>
<polygon fill="white" stroke="none" points="-4,4 -4,-238 167,-238 167,4 -4,4"/>
<!-- Node1 -->
<g id="node1" class="node"><title>Node1</title>
<g id="a_node1"><a xlink:title=" ">
<polygon fill="#bfbfbf" stroke="black" points="0,-0.5 0,-30.5 146,-30.5 146,-0.5 0,-0.5"/>
<text text-anchor="start" x="8" y="-18.5" font-family="Helvetica,sans-Serif" font-size="10.00">Pinknose.DistributedWorkers.</text>
<text text-anchor="middle" x="73" y="-7.5" font-family="Helvetica,sans-Serif" font-size="10.00">Clients.MessageClient</text>
</a>
</g>
</g>
<!-- Node2 -->
<g id="node2" class="node"><title>Node2</title>
<g id="a_node2"><a xlink:href="class_pinknose_1_1_distributed_workers_1_1_clients_1_1_message_client_base.html" target="_top" xlink:title=" ">
<polygon fill="white" stroke="black" points="18,-68.5 18,-98.5 128,-98.5 128,-68.5 18,-68.5"/>
<text text-anchor="start" x="26" y="-86.5" font-family="Helvetica,sans-Serif" font-size="10.00">MessageClientBase&lt;</text>
<text text-anchor="middle" x="73" y="-75.5" font-family="Helvetica,sans-Serif" font-size="10.00"> MessageQueue &gt;</text>
</a>
</g>
</g>
<!-- Node2&#45;&gt;Node1 -->
<g id="edge1" class="edge"><title>Node2&#45;&gt;Node1</title>
<path fill="none" stroke="midnightblue" d="M73,-58.0322C73,-48.8606 73,-38.7449 73,-30.7931"/>
<polygon fill="midnightblue" stroke="midnightblue" points="69.5001,-58.1789 73,-68.179 76.5001,-58.179 69.5001,-58.1789"/>
</g>
<!-- Node3 -->
<g id="node3" class="node"><title>Node3</title>
<g id="a_node3"><a xlink:href="class_pinknose_1_1_distributed_workers_1_1_clients_1_1_message_client_base.html" target="_top" xlink:title="The base class for message clients and servers.">
<polygon fill="white" stroke="black" points="0,-146.5 0,-176.5 146,-176.5 146,-146.5 0,-146.5"/>
<text text-anchor="start" x="8" y="-164.5" font-family="Helvetica,sans-Serif" font-size="10.00">Pinknose.DistributedWorkers.</text>
<text text-anchor="middle" x="73" y="-153.5" font-family="Helvetica,sans-Serif" font-size="10.00">Clients.MessageClientBase</text>
</a>
</g>
</g>
<!-- Node3&#45;&gt;Node2 -->
<g id="edge2" class="edge"><title>Node3&#45;&gt;Node2</title>
<path fill="none" stroke="orange" stroke-dasharray="5,2" d="M73,-136.09C73,-123.757 73,-109.224 73,-98.7309"/>
<polygon fill="orange" stroke="orange" points="69.5001,-136.205 73,-146.205 76.5001,-136.205 69.5001,-136.205"/>
<text text-anchor="middle" x="118" y="-120" font-family="Helvetica,sans-Serif" font-size="10.00"> &lt; MessageQueue &gt;</text>
</g>
<!-- Node4 -->
<g id="node4" class="node"><title>Node4</title>
<g id="a_node4"><a xlink:title=" ">
<polygon fill="white" stroke="#bfbfbf" points="39.5,-214.5 39.5,-233.5 106.5,-233.5 106.5,-214.5 39.5,-214.5"/>
<text text-anchor="middle" x="73" y="-221.5" font-family="Helvetica,sans-Serif" font-size="10.00">IDisposable</text>
</a>
</g>
</g>
<!-- Node4&#45;&gt;Node3 -->
<g id="edge3" class="edge"><title>Node4&#45;&gt;Node3</title>
<path fill="none" stroke="midnightblue" d="M73,-204.215C73,-195.356 73,-184.958 73,-176.759"/>
<polygon fill="midnightblue" stroke="midnightblue" points="69.5001,-204.332 73,-214.332 76.5001,-204.332 69.5001,-204.332"/>
</g>
</g>
</svg>
