<?xml version="1.0" encoding="UTF-8" standalone="no"?>
<!DOCTYPE svg PUBLIC "-//W3C//DTD SVG 1.1//EN"
 "http://www.w3.org/Graphics/SVG/1.1/DTD/svg11.dtd">
<!-- Generated by graphviz version 2.38.0 (20140413.2041)
 -->
<!-- Title: Pinknose.DistributedWorkers.MessageQueues.MessageQueue.RespondToMessage Pages: 1 -->
<svg width="456pt" height="88pt"
 viewBox="0.00 0.00 456.00 88.00" xmlns="http://www.w3.org/2000/svg" xmlns:xlink="http://www.w3.org/1999/xlink">
<g id="graph0" class="graph" transform="scale(1 1) rotate(0) translate(4 84)">
<title>Pinknose.DistributedWorkers.MessageQueues.MessageQueue.RespondToMessage</title>
<polygon fill="white" stroke="none" points="-4,4 -4,-84 452,-84 452,4 -4,4"/>
<!-- Node1 -->
<g id="node1" class="node"><title>Node1</title>
<g id="a_node1"><a xlink:title=" ">
<polygon fill="#bfbfbf" stroke="black" points="0,-19 0,-60 203,-60 203,-19 0,-19"/>
<text text-anchor="start" x="8" y="-48" font-family="Helvetica,sans-Serif" font-size="10.00">Pinknose.DistributedWorkers.</text>
<text text-anchor="start" x="8" y="-37" font-family="Helvetica,sans-Serif" font-size="10.00">MessageQueues.MessageQueue.Respond</text>
<text text-anchor="middle" x="101.5" y="-26" font-family="Helvetica,sans-Serif" font-size="10.00">ToMessage</text>
</a>
</g>
</g>
<!-- Node2 -->
<g id="node2" class="node"><title>Node2</title>
<g id="a_node2"><a xlink:href="class_pinknose_1_1_distributed_workers_1_1_messages_1_1_message_envelope.html#a46bb595543bfc2a7c3e68cb92bd1619d" target="_top" xlink:title=" ">
<polygon fill="white" stroke="black" points="251.5,-49.5 251.5,-79.5 435.5,-79.5 435.5,-49.5 251.5,-49.5"/>
<text text-anchor="start" x="259.5" y="-67.5" font-family="Helvetica,sans-Serif" font-size="10.00">Pinknose.DistributedWorkers.</text>
<text text-anchor="middle" x="343.5" y="-56.5" font-family="Helvetica,sans-Serif" font-size="10.00">Messages.MessageEnvelope.Serialize</text>
</a>
</g>
</g>
<!-- Node1&#45;&gt;Node2 -->
<g id="edge1" class="edge"><title>Node1&#45;&gt;Node2</title>
<path fill="none" stroke="midnightblue" d="M203.238,-49.9936C215.79,-51.301 228.63,-52.6385 241.189,-53.9468"/>
<polygon fill="midnightblue" stroke="midnightblue" points="240.883,-57.4337 251.191,-54.9887 241.608,-50.4714 240.883,-57.4337"/>
</g>
<!-- Node3 -->
<g id="node3" class="node"><title>Node3</title>
<g id="a_node3"><a xlink:href="class_pinknose_1_1_distributed_workers_1_1_messages_1_1_message_envelope.html#a8cc1874ec52c984bff293f3ab7688f3d" target="_top" xlink:title=" ">
<polygon fill="white" stroke="black" points="239,-0.5 239,-30.5 448,-30.5 448,-0.5 239,-0.5"/>
<text text-anchor="start" x="247" y="-18.5" font-family="Helvetica,sans-Serif" font-size="10.00">Pinknose.DistributedWorkers.</text>
<text text-anchor="middle" x="343.5" y="-7.5" font-family="Helvetica,sans-Serif" font-size="10.00">Messages.MessageEnvelope.WrapMessage</text>
</a>
</g>
</g>
<!-- Node1&#45;&gt;Node3 -->
<g id="edge2" class="edge"><title>Node1&#45;&gt;Node3</title>
<path fill="none" stroke="midnightblue" d="M203.238,-29.4262C211.721,-28.5779 220.335,-27.7165 228.906,-26.8594"/>
<polygon fill="midnightblue" stroke="midnightblue" points="229.334,-30.3341 238.936,-25.8564 228.638,-23.3689 229.334,-30.3341"/>
</g>
</g>
</svg>
