<?xml version="1.0" encoding="UTF-8" standalone="no"?>
<!DOCTYPE svg PUBLIC "-//W3C//DTD SVG 1.1//EN"
 "http://www.w3.org/Graphics/SVG/1.1/DTD/svg11.dtd">
<!-- Generated by graphviz version 2.38.0 (20140413.2041)
 -->
<!-- Title: Pinknose.DistributedWorkers.MessageTags.MessageTagCollection Pages: 1 -->
<svg width="240pt" height="95pt"
 viewBox="0.00 0.00 239.50 95.00" xmlns="http://www.w3.org/2000/svg" xmlns:xlink="http://www.w3.org/1999/xlink">
<g id="graph0" class="graph" transform="scale(1 1) rotate(0) translate(4 91)">
<title>Pinknose.DistributedWorkers.MessageTags.MessageTagCollection</title>
<polygon fill="white" stroke="none" points="-4,4 -4,-91 235.5,-91 235.5,4 -4,4"/>
<!-- Node1 -->
<g id="node1" class="node"><title>Node1</title>
<g id="a_node1"><a xlink:title=" ">
<polygon fill="#bfbfbf" stroke="black" points="44.5,-0.5 44.5,-30.5 223.5,-30.5 223.5,-0.5 44.5,-0.5"/>
<text text-anchor="start" x="52.5" y="-18.5" font-family="Helvetica,sans-Serif" font-size="10.00">Pinknose.DistributedWorkers.</text>
<text text-anchor="middle" x="134" y="-7.5" font-family="Helvetica,sans-Serif" font-size="10.00">MessageTags.MessageTagCollection</text>
</a>
</g>
</g>
<!-- Node2 -->
<g id="node2" class="node"><title>Node2</title>
<g id="a_node2"><a xlink:title=" ">
<polygon fill="white" stroke="#bfbfbf" points="0,-67.5 0,-86.5 144,-86.5 144,-67.5 0,-67.5"/>
<text text-anchor="middle" x="72" y="-74.5" font-family="Helvetica,sans-Serif" font-size="10.00">IEnumerable&lt; MessageTag &gt;</text>
</a>
</g>
</g>
<!-- Node2&#45;&gt;Node1 -->
<g id="edge1" class="edge"><title>Node2&#45;&gt;Node1</title>
<path fill="none" stroke="midnightblue" d="M88.2878,-60.369C97.933,-51.1127 110.052,-39.4824 119.388,-30.523"/>
<polygon fill="midnightblue" stroke="midnightblue" points="85.6747,-58.0257 80.8831,-67.4751 90.5216,-63.0762 85.6747,-58.0257"/>
</g>
<!-- Node3 -->
<g id="node3" class="node"><title>Node3</title>
<g id="a_node3"><a xlink:title=" ">
<polygon fill="white" stroke="#bfbfbf" points="162.5,-67.5 162.5,-86.5 231.5,-86.5 231.5,-67.5 162.5,-67.5"/>
<text text-anchor="middle" x="197" y="-74.5" font-family="Helvetica,sans-Serif" font-size="10.00">ISerializable</text>
</a>
</g>
</g>
<!-- Node3&#45;&gt;Node1 -->
<g id="edge2" class="edge"><title>Node3&#45;&gt;Node1</title>
<path fill="none" stroke="midnightblue" d="M180.45,-60.369C170.649,-51.1127 158.334,-39.4824 148.848,-30.523"/>
<polygon fill="midnightblue" stroke="midnightblue" points="178.3,-63.1534 187.974,-67.4751 183.107,-58.0643 178.3,-63.1534"/>
</g>
</g>
</svg>
