<?xml version="1.0" encoding="UTF-8" standalone="no"?>
<!DOCTYPE svg PUBLIC "-//W3C//DTD SVG 1.1//EN"
 "http://www.w3.org/Graphics/SVG/1.1/DTD/svg11.dtd">
<!-- Generated by graphviz version 2.38.0 (20140413.2041)
 -->
<!-- Title: Pinknose.DistributedWorkers.JsonShouldSerializeContractResolver Pages: 1 -->
<svg width="250pt" height="172pt"
 viewBox="0.00 0.00 250.00 172.00" xmlns="http://www.w3.org/2000/svg" xmlns:xlink="http://www.w3.org/1999/xlink">
<g id="graph0" class="graph" transform="scale(1 1) rotate(0) translate(4 168)">
<title>Pinknose.DistributedWorkers.JsonShouldSerializeContractResolver</title>
<polygon fill="white" stroke="none" points="-4,4 -4,-168 246,-168 246,4 -4,4"/>
<!-- Node1 -->
<g id="node1" class="node"><title>Node1</title>
<g id="a_node1"><a xlink:title=" ">
<polygon fill="#bfbfbf" stroke="black" points="0,-0.5 0,-68.5 178,-68.5 178,-0.5 0,-0.5"/>
<text text-anchor="start" x="8" y="-56.5" font-family="Helvetica,sans-Serif" font-size="10.00">Pinknose.DistributedWorkers.</text>
<text text-anchor="middle" x="89" y="-45.5" font-family="Helvetica,sans-Serif" font-size="10.00">JsonShouldSerializeContractResolver</text>
<polyline fill="none" stroke="black" points="0,-38.5 178,-38.5 "/>
<text text-anchor="middle" x="89" y="-26.5" font-family="Helvetica,sans-Serif" font-size="10.00"> </text>
<polyline fill="none" stroke="black" points="0,-19.5 178,-19.5 "/>
<text text-anchor="start" x="8" y="-7.5" font-family="Helvetica,sans-Serif" font-size="10.00"># CreateProperty()</text>
</a>
</g>
</g>
<!-- Node1&#45;&gt;Node1 -->
<g id="edge2" class="edge"><title>Node1&#45;&gt;Node1</title>
<path fill="none" stroke="#404040" d="M178.367,-42.8789C189.034,-41.3555 196,-38.5625 196,-34.5 196,-32.2783 193.917,-30.4363 190.284,-28.974"/>
<polygon fill="none" stroke="#404040" points="190.037,-28.915 183.271,-31.4081 178.367,-26.1211 185.133,-23.628 190.037,-28.915"/>
<text text-anchor="middle" x="219" y="-32" font-family="Helvetica,sans-Serif" font-size="10.00"> +Instance</text>
</g>
<!-- Node2 -->
<g id="node2" class="node"><title>Node2</title>
<g id="a_node2"><a xlink:title=" ">
<polygon fill="white" stroke="#bfbfbf" points="29,-106.5 29,-163.5 149,-163.5 149,-106.5 29,-106.5"/>
<text text-anchor="middle" x="89" y="-151.5" font-family="Helvetica,sans-Serif" font-size="10.00">DefaultContractResolver</text>
<polyline fill="none" stroke="#bfbfbf" points="29,-144.5 149,-144.5 "/>
<text text-anchor="middle" x="89" y="-132.5" font-family="Helvetica,sans-Serif" font-size="10.00"> </text>
<polyline fill="none" stroke="#bfbfbf" points="29,-125.5 149,-125.5 "/>
<text text-anchor="middle" x="89" y="-113.5" font-family="Helvetica,sans-Serif" font-size="10.00"> </text>
</a>
</g>
</g>
<!-- Node2&#45;&gt;Node1 -->
<g id="edge1" class="edge"><title>Node2&#45;&gt;Node1</title>
<path fill="none" stroke="midnightblue" d="M89,-96.0069C89,-86.9624 89,-77.3826 89,-68.5784"/>
<polygon fill="none" stroke="midnightblue" points="85.5001,-96.3001 89,-106.3 92.5001,-96.3002 85.5001,-96.3001"/>
</g>
</g>
</svg>
