<?xml version="1.0" encoding="UTF-8" standalone="no"?>
<!DOCTYPE svg PUBLIC "-//W3C//DTD SVG 1.1//EN"
 "http://www.w3.org/Graphics/SVG/1.1/DTD/svg11.dtd">
<!-- Generated by graphviz version 2.38.0 (20140413.2041)
 -->
<!-- Title: Pinknose.DistributedWorkers.Configuration.MessageClientConfiguration Pages: 1 -->
<svg width="260pt" height="321pt"
 viewBox="0.00 0.00 259.50 321.00" xmlns="http://www.w3.org/2000/svg" xmlns:xlink="http://www.w3.org/1999/xlink">
<g id="graph0" class="graph" transform="scale(1 1) rotate(0) translate(4 317)">
<title>Pinknose.DistributedWorkers.Configuration.MessageClientConfiguration</title>
<polygon fill="white" stroke="none" points="-4,4 -4,-317 255.5,-317 255.5,4 -4,4"/>
<!-- Node1 -->
<g id="node1" class="node"><title>Node1</title>
<g id="a_node1"><a xlink:title=" ">
<polygon fill="#bfbfbf" stroke="black" points="11,-0.5 11,-90.5 208,-90.5 208,-0.5 11,-0.5"/>
<text text-anchor="start" x="19" y="-78.5" font-family="Helvetica,sans-Serif" font-size="10.00">Pinknose.DistributedWorkers.</text>
<text text-anchor="middle" x="109.5" y="-67.5" font-family="Helvetica,sans-Serif" font-size="10.00">Configuration.MessageClientConfiguration</text>
<polyline fill="none" stroke="black" points="11,-60.5 208,-60.5 "/>
<text text-anchor="middle" x="109.5" y="-48.5" font-family="Helvetica,sans-Serif" font-size="10.00"> </text>
<polyline fill="none" stroke="black" points="11,-41.5 208,-41.5 "/>
<text text-anchor="start" x="19" y="-29.5" font-family="Helvetica,sans-Serif" font-size="10.00">+ ClientInfo()</text>
<text text-anchor="start" x="19" y="-18.5" font-family="Helvetica,sans-Serif" font-size="10.00">+ ServerInfo()</text>
<text text-anchor="start" x="19" y="-7.5" font-family="Helvetica,sans-Serif" font-size="10.00">+ CreateMessageClient()</text>
</a>
</g>
</g>
<!-- Node2 -->
<g id="node2" class="node"><title>Node2</title>
<g id="a_node2"><a xlink:href="class_pinknose_1_1_distributed_workers_1_1_configuration_1_1_message_client_configuration_base.html" target="_top" xlink:title=" ">
<polygon fill="white" stroke="black" points="20.5,-128.5 20.5,-196.5 198.5,-196.5 198.5,-128.5 20.5,-128.5"/>
<text text-anchor="start" x="28.5" y="-184.5" font-family="Helvetica,sans-Serif" font-size="10.00">MessageClientConfiguration</text>
<text text-anchor="middle" x="109.5" y="-173.5" font-family="Helvetica,sans-Serif" font-size="10.00">Base&lt; MessageClientConfiguration &gt;</text>
<polyline fill="none" stroke="black" points="20.5,-166.5 198.5,-166.5 "/>
<text text-anchor="middle" x="109.5" y="-154.5" font-family="Helvetica,sans-Serif" font-size="10.00"> </text>
<polyline fill="none" stroke="black" points="20.5,-147.5 198.5,-147.5 "/>
<text text-anchor="middle" x="109.5" y="-135.5" font-family="Helvetica,sans-Serif" font-size="10.00"> </text>
</a>
</g>
</g>
<!-- Node2&#45;&gt;Node1 -->
<g id="edge1" class="edge"><title>Node2&#45;&gt;Node1</title>
<path fill="none" stroke="midnightblue" d="M109.5,-118.055C109.5,-109.146 109.5,-99.7573 109.5,-90.8181"/>
<polygon fill="none" stroke="midnightblue" points="106,-118.237 109.5,-128.237 113,-118.237 106,-118.237"/>
</g>
<!-- Node3 -->
<g id="node3" class="node"><title>Node3</title>
<g id="a_node3"><a xlink:href="class_pinknose_1_1_distributed_workers_1_1_configuration_1_1_message_client_configuration_base.html" target="_top" xlink:title=" ">
<polygon fill="white" stroke="black" points="0,-244.5 0,-312.5 219,-312.5 219,-244.5 0,-244.5"/>
<text text-anchor="start" x="8" y="-300.5" font-family="Helvetica,sans-Serif" font-size="10.00">Pinknose.DistributedWorkers.</text>
<text text-anchor="middle" x="109.5" y="-289.5" font-family="Helvetica,sans-Serif" font-size="10.00">Configuration.MessageClientConfigurationBase</text>
<polyline fill="none" stroke="black" points="0,-282.5 219,-282.5 "/>
<text text-anchor="middle" x="109.5" y="-270.5" font-family="Helvetica,sans-Serif" font-size="10.00"> </text>
<polyline fill="none" stroke="black" points="0,-263.5 219,-263.5 "/>
<text text-anchor="middle" x="109.5" y="-251.5" font-family="Helvetica,sans-Serif" font-size="10.00"> </text>
</a>
</g>
</g>
<!-- Node3&#45;&gt;Node2 -->
<g id="edge2" class="edge"><title>Node3&#45;&gt;Node2</title>
<path fill="none" stroke="orange" d="M109.5,-234.06C109.5,-221.644 109.5,-208.316 109.5,-196.624"/>
<polygon fill="orange" stroke="orange" points="106,-234.22 109.5,-244.22 113,-234.22 106,-234.22"/>
<text text-anchor="middle" x="180.5" y="-218" font-family="Helvetica,sans-Serif" font-size="10.00"> &lt; MessageClientConfiguration &gt;</text>
</g>
</g>
</svg>
