<?xml version="1.0" encoding="UTF-8" standalone="no"?>
<!DOCTYPE svg PUBLIC "-//W3C//DTD SVG 1.1//EN"
 "http://www.w3.org/Graphics/SVG/1.1/DTD/svg11.dtd">
<!-- Generated by graphviz version 2.38.0 (20140413.2041)
 -->
<!-- Title: Pinknose.DistributedWorkers.Clients.MessageClient.WriteToServer Pages: 1 -->
<svg width="389pt" height="50pt"
 viewBox="0.00 0.00 389.00 50.00" xmlns="http://www.w3.org/2000/svg" xmlns:xlink="http://www.w3.org/1999/xlink">
<g id="graph0" class="graph" transform="scale(1 1) rotate(0) translate(4 46)">
<title>Pinknose.DistributedWorkers.Clients.MessageClient.WriteToServer</title>
<polygon fill="white" stroke="none" points="-4,4 -4,-46 385,-46 385,4 -4,4"/>
<!-- Node1 -->
<g id="node1" class="node"><title>Node1</title>
<g id="a_node1"><a xlink:title=" ">
<polygon fill="#bfbfbf" stroke="black" points="0,-6 0,-36 178,-36 178,-6 0,-6"/>
<text text-anchor="start" x="8" y="-24" font-family="Helvetica,sans-Serif" font-size="10.00">Pinknose.DistributedWorkers.</text>
<text text-anchor="middle" x="89" y="-13" font-family="Helvetica,sans-Serif" font-size="10.00">Clients.MessageClient.WriteToServer</text>
</a>
</g>
</g>
<!-- Node2 -->
<g id="node2" class="node"><title>Node2</title>
<g id="a_node2"><a xlink:href="class_pinknose_1_1_distributed_workers_1_1_clients_1_1_message_client_base.html#abed3275764e2fbcd3dfaaa9bf4c301fd" target="_top" xlink:title=" ">
<polygon fill="white" stroke="black" points="214,-0.5 214,-41.5 381,-41.5 381,-0.5 214,-0.5"/>
<text text-anchor="start" x="222" y="-29.5" font-family="Helvetica,sans-Serif" font-size="10.00">Pinknose.DistributedWorkers.</text>
<text text-anchor="start" x="222" y="-18.5" font-family="Helvetica,sans-Serif" font-size="10.00">Clients.MessageClientBase</text>
<text text-anchor="middle" x="297.5" y="-7.5" font-family="Helvetica,sans-Serif" font-size="10.00">&lt; MessageQueue &gt;::WriteToClient</text>
</a>
</g>
</g>
<!-- Node1&#45;&gt;Node2 -->
<g id="edge1" class="edge"><title>Node1&#45;&gt;Node2</title>
<path fill="none" stroke="midnightblue" d="M178.174,-21C186.59,-21 195.144,-21 203.604,-21"/>
<polygon fill="midnightblue" stroke="midnightblue" points="203.861,-24.5001 213.861,-21 203.861,-17.5001 203.861,-24.5001"/>
</g>
</g>
</svg>
