<?xml version="1.0" encoding="UTF-8" standalone="no"?>
<!DOCTYPE svg PUBLIC "-//W3C//DTD SVG 1.1//EN"
 "http://www.w3.org/Graphics/SVG/1.1/DTD/svg11.dtd">
<!-- Generated by graphviz version 2.38.0 (20140413.2041)
 -->
<!-- Title: Pinknose.DistributedWorkers.Logging.DistributedWorkersSerilogSink.Emit Pages: 1 -->
<svg width="374pt" height="50pt"
 viewBox="0.00 0.00 374.00 50.00" xmlns="http://www.w3.org/2000/svg" xmlns:xlink="http://www.w3.org/1999/xlink">
<g id="graph0" class="graph" transform="scale(1 1) rotate(0) translate(4 46)">
<title>Pinknose.DistributedWorkers.Logging.DistributedWorkersSerilogSink.Emit</title>
<polygon fill="white" stroke="none" points="-4,4 -4,-46 370,-46 370,4 -4,4"/>
<!-- Node1 -->
<g id="node1" class="node"><title>Node1</title>
<g id="a_node1"><a xlink:title=" ">
<polygon fill="#bfbfbf" stroke="black" points="0,-0.5 0,-41.5 167,-41.5 167,-0.5 0,-0.5"/>
<text text-anchor="start" x="8" y="-29.5" font-family="Helvetica,sans-Serif" font-size="10.00">Pinknose.DistributedWorkers.</text>
<text text-anchor="start" x="8" y="-18.5" font-family="Helvetica,sans-Serif" font-size="10.00">Logging.DistributedWorkersSerilog</text>
<text text-anchor="middle" x="83.5" y="-7.5" font-family="Helvetica,sans-Serif" font-size="10.00">Sink.Emit</text>
</a>
</g>
</g>
<!-- Node2 -->
<g id="node2" class="node"><title>Node2</title>
<g id="a_node2"><a xlink:href="class_pinknose_1_1_distributed_workers_1_1_clients_1_1_message_client_base.html#afb29672b18b9036ca37b64e0bc9af3e7" target="_top" xlink:title=" ">
<polygon fill="white" stroke="black" points="203,-0.5 203,-41.5 366,-41.5 366,-0.5 203,-0.5"/>
<text text-anchor="start" x="211" y="-29.5" font-family="Helvetica,sans-Serif" font-size="10.00">Pinknose.DistributedWorkers.</text>
<text text-anchor="start" x="211" y="-18.5" font-family="Helvetica,sans-Serif" font-size="10.00">Clients.MessageClientBase.Write</text>
<text text-anchor="middle" x="284.5" y="-7.5" font-family="Helvetica,sans-Serif" font-size="10.00">ToSubscriptionQueues</text>
</a>
</g>
</g>
<!-- Node1&#45;&gt;Node2 -->
<g id="edge1" class="edge"><title>Node1&#45;&gt;Node2</title>
<path fill="none" stroke="midnightblue" d="M167.165,-21C175.516,-21 184.03,-21 192.463,-21"/>
<polygon fill="midnightblue" stroke="midnightblue" points="192.691,-24.5001 202.691,-21 192.691,-17.5001 192.691,-24.5001"/>
</g>
</g>
</svg>
