<?xml version="1.0" encoding="UTF-8" standalone="no"?>
<!DOCTYPE svg PUBLIC "-//W3C//DTD SVG 1.1//EN"
 "http://www.w3.org/Graphics/SVG/1.1/DTD/svg11.dtd">
<!-- Generated by graphviz version 2.38.0 (20140413.2041)
 -->
<!-- Title: Pinknose.DistributedWorkers.Configuration.MessageClientConfigurationBase Pages: 1 -->
<svg width="841pt" height="170pt"
 viewBox="0.00 0.00 841.00 170.00" xmlns="http://www.w3.org/2000/svg" xmlns:xlink="http://www.w3.org/1999/xlink">
<g id="graph0" class="graph" transform="scale(1 1) rotate(0) translate(4 166)">
<title>Pinknose.DistributedWorkers.Configuration.MessageClientConfigurationBase</title>
<polygon fill="white" stroke="none" points="-4,4 -4,-166 837,-166 837,4 -4,4"/>
<!-- Node1 -->
<g id="node1" class="node"><title>Node1</title>
<g id="a_node1"><a xlink:title=" ">
<polygon fill="#bfbfbf" stroke="black" points="0,-66 0,-96 219,-96 219,-66 0,-66"/>
<text text-anchor="start" x="8" y="-84" font-family="Helvetica,sans-Serif" font-size="10.00">Pinknose.DistributedWorkers.</text>
<text text-anchor="middle" x="109.5" y="-73" font-family="Helvetica,sans-Serif" font-size="10.00">Configuration.MessageClientConfigurationBase</text>
</a>
</g>
</g>
<!-- Node2 -->
<g id="node2" class="node"><title>Node2</title>
<g id="a_node2"><a xlink:href="class_pinknose_1_1_distributed_workers_1_1_configuration_1_1_message_client_configuration_base.html" target="_top" xlink:title=" ">
<polygon fill="white" stroke="black" points="400,-120.5 400,-161.5 597,-161.5 597,-120.5 400,-120.5"/>
<text text-anchor="start" x="408" y="-149.5" font-family="Helvetica,sans-Serif" font-size="10.00">Pinknose.DistributedWorkers.</text>
<text text-anchor="start" x="408" y="-138.5" font-family="Helvetica,sans-Serif" font-size="10.00">Configuration.MessageClientConfiguration</text>
<text text-anchor="middle" x="498.5" y="-127.5" font-family="Helvetica,sans-Serif" font-size="10.00">Base&lt; TConfigType &gt;</text>
</a>
</g>
</g>
<!-- Node1&#45;&gt;Node2 -->
<g id="edge1" class="edge"><title>Node1&#45;&gt;Node2</title>
<path fill="none" stroke="midnightblue" d="M217.791,-97.6343C274.841,-106.479 344.458,-117.273 399.967,-125.879"/>
<polygon fill="midnightblue" stroke="midnightblue" points="218.075,-94.1366 207.657,-96.0631 217.003,-101.054 218.075,-94.1366"/>
</g>
<!-- Node3 -->
<g id="node3" class="node"><title>Node3</title>
<g id="a_node3"><a xlink:href="class_pinknose_1_1_distributed_workers_1_1_configuration_1_1_message_client_configuration_base.html" target="_top" xlink:title=" ">
<polygon fill="white" stroke="black" points="400,-60.5 400,-101.5 597,-101.5 597,-60.5 400,-60.5"/>
<text text-anchor="start" x="408" y="-89.5" font-family="Helvetica,sans-Serif" font-size="10.00">Pinknose.DistributedWorkers.</text>
<text text-anchor="start" x="408" y="-78.5" font-family="Helvetica,sans-Serif" font-size="10.00">Configuration.MessageClientConfiguration</text>
<text text-anchor="middle" x="498.5" y="-67.5" font-family="Helvetica,sans-Serif" font-size="10.00">Base&lt; MessageServerConfiguration &gt;</text>
</a>
</g>
</g>
<!-- Node1&#45;&gt;Node3 -->
<g id="edge2" class="edge"><title>Node1&#45;&gt;Node3</title>
<path fill="none" stroke="orange" stroke-dasharray="5,2" d="M229.176,-81C283.899,-81 348.059,-81 399.917,-81"/>
<polygon fill="orange" stroke="orange" points="229.073,-77.5001 219.073,-81 229.073,-84.5001 229.073,-77.5001"/>
<text text-anchor="middle" x="309.5" y="-84" font-family="Helvetica,sans-Serif" font-size="10.00"> &lt; MessageServerConfiguration &gt;</text>
</g>
<!-- Node5 -->
<g id="node5" class="node"><title>Node5</title>
<g id="a_node5"><a xlink:href="class_pinknose_1_1_distributed_workers_1_1_configuration_1_1_message_client_configuration_base.html" target="_top" xlink:title=" ">
<polygon fill="white" stroke="black" points="400,-0.5 400,-41.5 597,-41.5 597,-0.5 400,-0.5"/>
<text text-anchor="start" x="408" y="-29.5" font-family="Helvetica,sans-Serif" font-size="10.00">Pinknose.DistributedWorkers.</text>
<text text-anchor="start" x="408" y="-18.5" font-family="Helvetica,sans-Serif" font-size="10.00">Configuration.MessageClientConfiguration</text>
<text text-anchor="middle" x="498.5" y="-7.5" font-family="Helvetica,sans-Serif" font-size="10.00">Base&lt; MessageClientConfiguration &gt;</text>
</a>
</g>
</g>
<!-- Node1&#45;&gt;Node5 -->
<g id="edge4" class="edge"><title>Node1&#45;&gt;Node5</title>
<path fill="none" stroke="orange" stroke-dasharray="5,2" d="M217.791,-64.3657C274.841,-55.5207 344.458,-44.7274 399.967,-36.1214"/>
<polygon fill="orange" stroke="orange" points="217.003,-60.9461 207.657,-65.9369 218.075,-67.8634 217.003,-60.9461"/>
<text text-anchor="middle" x="309.5" y="-62" font-family="Helvetica,sans-Serif" font-size="10.00"> &lt; MessageClientConfiguration &gt;</text>
</g>
<!-- Node4 -->
<g id="node4" class="node"><title>Node4</title>
<g id="a_node4"><a xlink:href="class_pinknose_1_1_distributed_workers_1_1_configuration_1_1_message_server_configuration.html" target="_top" xlink:title=" ">
<polygon fill="white" stroke="black" points="634,-66 634,-96 833,-96 833,-66 634,-66"/>
<text text-anchor="start" x="642" y="-84" font-family="Helvetica,sans-Serif" font-size="10.00">Pinknose.DistributedWorkers.</text>
<text text-anchor="middle" x="733.5" y="-73" font-family="Helvetica,sans-Serif" font-size="10.00">Configuration.MessageServerConfiguration</text>
</a>
</g>
</g>
<!-- Node3&#45;&gt;Node4 -->
<g id="edge3" class="edge"><title>Node3&#45;&gt;Node4</title>
<path fill="none" stroke="midnightblue" d="M607.546,-81C616.31,-81 625.137,-81 633.829,-81"/>
<polygon fill="midnightblue" stroke="midnightblue" points="607.3,-77.5001 597.3,-81 607.3,-84.5001 607.3,-77.5001"/>
</g>
<!-- Node6 -->
<g id="node6" class="node"><title>Node6</title>
<g id="a_node6"><a xlink:href="class_pinknose_1_1_distributed_workers_1_1_configuration_1_1_message_client_configuration.html" target="_top" xlink:title=" ">
<polygon fill="white" stroke="black" points="635,-6 635,-36 832,-36 832,-6 635,-6"/>
<text text-anchor="start" x="643" y="-24" font-family="Helvetica,sans-Serif" font-size="10.00">Pinknose.DistributedWorkers.</text>
<text text-anchor="middle" x="733.5" y="-13" font-family="Helvetica,sans-Serif" font-size="10.00">Configuration.MessageClientConfiguration</text>
</a>
</g>
</g>
<!-- Node5&#45;&gt;Node6 -->
<g id="edge5" class="edge"><title>Node5&#45;&gt;Node6</title>
<path fill="none" stroke="midnightblue" d="M607.57,-21C616.702,-21 625.905,-21 634.95,-21"/>
<polygon fill="midnightblue" stroke="midnightblue" points="607.3,-17.5001 597.3,-21 607.3,-24.5001 607.3,-17.5001"/>
</g>
</g>
</svg>
