<?xml version="1.0" encoding="UTF-8" standalone="no"?>
<!DOCTYPE svg PUBLIC "-//W3C//DTD SVG 1.1//EN"
 "http://www.w3.org/Graphics/SVG/1.1/DTD/svg11.dtd">
<!-- Generated by graphviz version 2.38.0 (20140413.2041)
 -->
<!-- Title: Pinknose.DistributedWorkers.Clients.MessageServer.Connect Pages: 1 -->
<svg width="362pt" height="132pt"
 viewBox="0.00 0.00 362.00 132.00" xmlns="http://www.w3.org/2000/svg" xmlns:xlink="http://www.w3.org/1999/xlink">
<g id="graph0" class="graph" transform="scale(1 1) rotate(0) translate(4 128)">
<title>Pinknose.DistributedWorkers.Clients.MessageServer.Connect</title>
<polygon fill="white" stroke="none" points="-4,4 -4,-128 358,-128 358,4 -4,4"/>
<!-- Node1 -->
<g id="node1" class="node"><title>Node1</title>
<g id="a_node1"><a xlink:title=" ">
<polygon fill="#bfbfbf" stroke="black" points="0,-46.5 0,-76.5 155,-76.5 155,-46.5 0,-46.5"/>
<text text-anchor="start" x="8" y="-64.5" font-family="Helvetica,sans-Serif" font-size="10.00">Pinknose.DistributedWorkers.</text>
<text text-anchor="middle" x="77.5" y="-53.5" font-family="Helvetica,sans-Serif" font-size="10.00">Clients.MessageServer.Connect</text>
</a>
</g>
</g>
<!-- Node2 -->
<g id="node2" class="node"><title>Node2</title>
<g id="a_node2"><a xlink:href="class_pinknose_1_1_distributed_workers_1_1_clients_1_1_message_client_base.html#ac1d7f74700056901cf455a2d3e0a0bd2" target="_top" xlink:title=" ">
<polygon fill="white" stroke="black" points="191,-71.5 191,-123.5 354,-123.5 354,-71.5 191,-71.5"/>
<text text-anchor="start" x="199" y="-111.5" font-family="Helvetica,sans-Serif" font-size="10.00">Pinknose.DistributedWorkers.</text>
<text text-anchor="start" x="199" y="-100.5" font-family="Helvetica,sans-Serif" font-size="10.00">Clients.MessageClientBase</text>
<text text-anchor="start" x="199" y="-89.5" font-family="Helvetica,sans-Serif" font-size="10.00">&lt; ReadableMessageQueue &gt;::</text>
<text text-anchor="middle" x="272.5" y="-78.5" font-family="Helvetica,sans-Serif" font-size="10.00">FireAsynchronousExceptionEvent</text>
</a>
</g>
</g>
<!-- Node1&#45;&gt;Node2 -->
<g id="edge1" class="edge"><title>Node1&#45;&gt;Node2</title>
<path fill="none" stroke="midnightblue" d="M155.056,-75.7799C163.528,-77.3601 172.214,-78.9804 180.839,-80.5891"/>
<polygon fill="midnightblue" stroke="midnightblue" points="180.445,-84.0759 190.917,-82.469 181.729,-77.1946 180.445,-84.0759"/>
</g>
<!-- Node3 -->
<g id="node3" class="node"><title>Node3</title>
<g id="a_node3"><a xlink:href="class_pinknose_1_1_distributed_workers_1_1_clients_1_1_message_client_base.html#af87b6b124d241c687ba271dec13a595e" target="_top" xlink:title=" ">
<polygon fill="white" stroke="black" points="198,-0.5 198,-52.5 347,-52.5 347,-0.5 198,-0.5"/>
<text text-anchor="start" x="206" y="-40.5" font-family="Helvetica,sans-Serif" font-size="10.00">Pinknose.DistributedWorkers.</text>
<text text-anchor="start" x="206" y="-29.5" font-family="Helvetica,sans-Serif" font-size="10.00">Clients.MessageClientBase</text>
<text text-anchor="start" x="206" y="-18.5" font-family="Helvetica,sans-Serif" font-size="10.00">&lt; ReadableMessageQueue &gt;::</text>
<text text-anchor="middle" x="272.5" y="-7.5" font-family="Helvetica,sans-Serif" font-size="10.00">SetupConnections</text>
</a>
</g>
</g>
<!-- Node1&#45;&gt;Node3 -->
<g id="edge2" class="edge"><title>Node1&#45;&gt;Node3</title>
<path fill="none" stroke="midnightblue" d="M155.056,-47.6168C165.853,-45.6587 176.999,-43.6375 187.92,-41.6571"/>
<polygon fill="midnightblue" stroke="midnightblue" points="188.654,-45.081 197.869,-39.8527 187.405,-38.1933 188.654,-45.081"/>
</g>
</g>
</svg>
