<?xml version="1.0" encoding="UTF-8" standalone="no"?>
<!DOCTYPE svg PUBLIC "-//W3C//DTD SVG 1.1//EN"
 "http://www.w3.org/Graphics/SVG/1.1/DTD/svg11.dtd">
<!-- Generated by graphviz version 2.38.0 (20140413.2041)
 -->
<!-- Title: Graphical Class Hierarchy Pages: 1 -->
<svg width="652pt" height="39pt"
 viewBox="0.00 0.00 652.00 39.00" xmlns="http://www.w3.org/2000/svg" xmlns:xlink="http://www.w3.org/1999/xlink">
<g id="graph0" class="graph" transform="scale(1 1) rotate(0) translate(4 35)">
<title>Graphical Class Hierarchy</title>
<polygon fill="white" stroke="none" points="-4,4 -4,-35 648,-35 648,4 -4,4"/>
<!-- Node24 -->
<g id="node1" class="node"><title>Node24</title>
<g id="a_node1"><a xlink:title=" ">
<polygon fill="white" stroke="#bfbfbf" points="0,-6 0,-25 62,-25 62,-6 0,-6"/>
<text text-anchor="middle" x="31" y="-13" font-family="Helvetica,sans-Serif" font-size="10.00">IEquatable</text>
</a>
</g>
</g>
<!-- Node0 -->
<g id="node2" class="node"><title>Node0</title>
<g id="a_node2"><a xlink:href="class_pinknose_1_1_distributed_workers_1_1_message_tags_1_1_message_tag.html" target="_top" xlink:title="Represents a tag that can be used to subscribe to certain messages.">
<polygon fill="white" stroke="black" points="98,-0.5 98,-30.5 244,-30.5 244,-0.5 98,-0.5"/>
<text text-anchor="start" x="106" y="-18.5" font-family="Helvetica,sans-Serif" font-size="10.00">Pinknose.DistributedWorkers.</text>
<text text-anchor="middle" x="171" y="-7.5" font-family="Helvetica,sans-Serif" font-size="10.00">MessageTags.MessageTag</text>
</a>
</g>
</g>
<!-- Node24&#45;&gt;Node0 -->
<g id="edge1" class="edge"><title>Node24&#45;&gt;Node0</title>
<path fill="none" stroke="midnightblue" d="M72.4602,-15.5C80.5125,-15.5 89.1943,-15.5 97.9418,-15.5"/>
<polygon fill="midnightblue" stroke="midnightblue" points="72.2847,-12.0001 62.2847,-15.5 72.2847,-19.0001 72.2847,-12.0001"/>
</g>
<!-- Node1 -->
<g id="node3" class="node"><title>Node1</title>
<g id="a_node3"><a xlink:href="class_pinknose_1_1_distributed_workers_1_1_message_tags_1_1_message_tag_value.html" target="_top" xlink:title=" ">
<polygon fill="white" stroke="black" points="280,-0.5 280,-30.5 441,-30.5 441,-0.5 280,-0.5"/>
<text text-anchor="start" x="288" y="-18.5" font-family="Helvetica,sans-Serif" font-size="10.00">Pinknose.DistributedWorkers.</text>
<text text-anchor="middle" x="360.5" y="-7.5" font-family="Helvetica,sans-Serif" font-size="10.00">MessageTags.MessageTagValue</text>
</a>
</g>
</g>
<!-- Node0&#45;&gt;Node1 -->
<g id="edge2" class="edge"><title>Node0&#45;&gt;Node1</title>
<path fill="none" stroke="midnightblue" d="M254.432,-15.5C262.867,-15.5 271.426,-15.5 279.83,-15.5"/>
<polygon fill="midnightblue" stroke="midnightblue" points="254.224,-12.0001 244.224,-15.5 254.224,-19.0001 254.224,-12.0001"/>
</g>
<!-- Node2 -->
<g id="node4" class="node"><title>Node2</title>
<g id="a_node4"><a xlink:href="class_pinknose_1_1_distributed_workers_1_1_message_tags_1_1_message_sender_tag.html" target="_top" xlink:title=" ">
<polygon fill="white" stroke="black" points="477,-0.5 477,-30.5 644,-30.5 644,-0.5 477,-0.5"/>
<text text-anchor="start" x="485" y="-18.5" font-family="Helvetica,sans-Serif" font-size="10.00">Pinknose.DistributedWorkers.</text>
<text text-anchor="middle" x="560.5" y="-7.5" font-family="Helvetica,sans-Serif" font-size="10.00">MessageTags.MessageSenderTag</text>
</a>
</g>
</g>
<!-- Node1&#45;&gt;Node2 -->
<g id="edge3" class="edge"><title>Node1&#45;&gt;Node2</title>
<path fill="none" stroke="midnightblue" d="M451.413,-15.5C459.854,-15.5 468.383,-15.5 476.753,-15.5"/>
<polygon fill="midnightblue" stroke="midnightblue" points="451.178,-12.0001 441.178,-15.5 451.178,-19.0001 451.178,-12.0001"/>
</g>
</g>
</svg>
