<?xml version="1.0" encoding="UTF-8" standalone="no"?>
<!DOCTYPE svg PUBLIC "-//W3C//DTD SVG 1.1//EN"
 "http://www.w3.org/Graphics/SVG/1.1/DTD/svg11.dtd">
<!-- Generated by graphviz version 2.38.0 (20140413.2041)
 -->
<!-- Title: Graphical Class Hierarchy Pages: 1 -->
<svg width="367pt" height="198pt"
 viewBox="0.00 0.00 367.00 198.00" xmlns="http://www.w3.org/2000/svg" xmlns:xlink="http://www.w3.org/1999/xlink">
<g id="graph0" class="graph" transform="scale(1 1) rotate(0) translate(4 194)">
<title>Graphical Class Hierarchy</title>
<polygon fill="white" stroke="none" points="-4,4 -4,-194 363,-194 363,4 -4,4"/>
<!-- Node0 -->
<g id="node1" class="node"><title>Node0</title>
<g id="a_node1"><a xlink:href="class_pinknose_1_1_distributed_workers_1_1_messages_1_1_message_base.html" target="_top" xlink:title="A message which is passed between client and server.">
<polygon fill="white" stroke="black" points="0,-76.5 0,-106.5 146,-106.5 146,-76.5 0,-76.5"/>
<text text-anchor="start" x="8" y="-94.5" font-family="Helvetica,sans-Serif" font-size="10.00">Pinknose.DistributedWorkers.</text>
<text text-anchor="middle" x="73" y="-83.5" font-family="Helvetica,sans-Serif" font-size="10.00">Messages.MessageBase</text>
</a>
</g>
</g>
<!-- Node1 -->
<g id="node2" class="node"><title>Node1</title>
<g id="a_node2"><a xlink:href="class_pinknose_1_1_distributed_workers_1_1_messages_1_1_heartbeat_message.html" target="_top" xlink:title=" ">
<polygon fill="white" stroke="black" points="197.5,-159.5 197.5,-189.5 343.5,-189.5 343.5,-159.5 197.5,-159.5"/>
<text text-anchor="start" x="205.5" y="-177.5" font-family="Helvetica,sans-Serif" font-size="10.00">Pinknose.DistributedWorkers.</text>
<text text-anchor="middle" x="270.5" y="-166.5" font-family="Helvetica,sans-Serif" font-size="10.00">Messages.HeartbeatMessage</text>
</a>
</g>
</g>
<!-- Node0&#45;&gt;Node1 -->
<g id="edge1" class="edge"><title>Node0&#45;&gt;Node1</title>
<path fill="none" stroke="midnightblue" d="M107.369,-111.833C128.265,-123.951 156.061,-138.972 182,-149.5 190.93,-153.124 200.572,-156.441 210.08,-159.391"/>
<polygon fill="midnightblue" stroke="midnightblue" points="108.969,-108.714 98.5736,-106.668 105.424,-114.75 108.969,-108.714"/>
</g>
<!-- Node2 -->
<g id="node3" class="node"><title>Node2</title>
<g id="a_node3"><a xlink:href="class_pinknose_1_1_distributed_workers_1_1_messages_1_1_payload_message.html" target="_top" xlink:title="A message that has a strongly&#45;typed payload. There are a variety of options for compression or serial...">
<polygon fill="white" stroke="black" points="197.5,-99 197.5,-140 343.5,-140 343.5,-99 197.5,-99"/>
<text text-anchor="start" x="205.5" y="-128" font-family="Helvetica,sans-Serif" font-size="10.00">Pinknose.DistributedWorkers.</text>
<text text-anchor="start" x="205.5" y="-117" font-family="Helvetica,sans-Serif" font-size="10.00">Messages.PayloadMessage</text>
<text text-anchor="middle" x="270.5" y="-106" font-family="Helvetica,sans-Serif" font-size="10.00">&lt; TPayload &gt;</text>
</a>
</g>
</g>
<!-- Node0&#45;&gt;Node2 -->
<g id="edge2" class="edge"><title>Node0&#45;&gt;Node2</title>
<path fill="none" stroke="midnightblue" d="M156.496,-103.315C170.031,-105.254 183.967,-107.25 197.229,-109.149"/>
<polygon fill="midnightblue" stroke="midnightblue" points="156.637,-99.7998 146.242,-101.847 155.644,-106.729 156.637,-99.7998"/>
</g>
<!-- Node3 -->
<g id="node4" class="node"><title>Node3</title>
<g id="a_node4"><a xlink:href="class_pinknose_1_1_distributed_workers_1_1_messages_1_1_public_key_update.html" target="_top" xlink:title=" ">
<polygon fill="white" stroke="black" points="197.5,-49.5 197.5,-79.5 343.5,-79.5 343.5,-49.5 197.5,-49.5"/>
<text text-anchor="start" x="205.5" y="-67.5" font-family="Helvetica,sans-Serif" font-size="10.00">Pinknose.DistributedWorkers.</text>
<text text-anchor="middle" x="270.5" y="-56.5" font-family="Helvetica,sans-Serif" font-size="10.00">Messages.PublicKeyUpdate</text>
</a>
</g>
</g>
<!-- Node0&#45;&gt;Node3 -->
<g id="edge3" class="edge"><title>Node0&#45;&gt;Node3</title>
<path fill="none" stroke="midnightblue" d="M156.496,-80.1067C170.031,-78.2373 183.967,-76.3128 197.229,-74.4811"/>
<polygon fill="midnightblue" stroke="midnightblue" points="155.669,-76.6876 146.242,-81.5229 156.626,-83.6218 155.669,-76.6876"/>
</g>
<!-- Node4 -->
<g id="node5" class="node"><title>Node4</title>
<g id="a_node5"><a xlink:href="class_pinknose_1_1_distributed_workers_1_1_messages_1_1_system_shared_key_update.html" target="_top" xlink:title=" ">
<polygon fill="white" stroke="black" points="182,-0.5 182,-30.5 359,-30.5 359,-0.5 182,-0.5"/>
<text text-anchor="start" x="190" y="-18.5" font-family="Helvetica,sans-Serif" font-size="10.00">Pinknose.DistributedWorkers.</text>
<text text-anchor="middle" x="270.5" y="-7.5" font-family="Helvetica,sans-Serif" font-size="10.00">Messages.SystemSharedKeyUpdate</text>
</a>
</g>
</g>
<!-- Node0&#45;&gt;Node4 -->
<g id="edge4" class="edge"><title>Node0&#45;&gt;Node4</title>
<path fill="none" stroke="midnightblue" d="M111.762,-71.8117C132.205,-61.6302 158.101,-49.4887 182,-40.5 191.464,-36.9405 201.665,-33.5983 211.642,-30.5871"/>
<polygon fill="midnightblue" stroke="midnightblue" points="110.139,-68.7105 102.781,-76.3333 113.286,-74.9629 110.139,-68.7105"/>
</g>
</g>
</svg>
