<?xml version="1.0" encoding="UTF-8" standalone="no"?>
<!DOCTYPE svg PUBLIC "-//W3C//DTD SVG 1.1//EN"
 "http://www.w3.org/Graphics/SVG/1.1/DTD/svg11.dtd">
<!-- Generated by graphviz version 2.38.0 (20140413.2041)
 -->
<!-- Title: Graphical Class Hierarchy Pages: 1 -->
<svg width="321pt" height="100pt"
 viewBox="0.00 0.00 321.00 99.50" xmlns="http://www.w3.org/2000/svg" xmlns:xlink="http://www.w3.org/1999/xlink">
<g id="graph0" class="graph" transform="scale(1 1) rotate(0) translate(4 95.5)">
<title>Graphical Class Hierarchy</title>
<polygon fill="white" stroke="none" points="-4,4 -4,-95.5 317,-95.5 317,4 -4,4"/>
<!-- Node38 -->
<g id="node1" class="node"><title>Node38</title>
<g id="a_node1"><a xlink:title=" ">
<polygon fill="white" stroke="#bfbfbf" points="0,-33 0,-52 61,-52 61,-33 0,-33"/>
<text text-anchor="middle" x="30.5" y="-40" font-family="Helvetica,sans-Serif" font-size="10.00">EventArgs</text>
</a>
</g>
</g>
<!-- Node0 -->
<g id="node2" class="node"><title>Node0</title>
<g id="a_node2"><a xlink:href="class_pinknose_1_1_distributed_workers_1_1_exceptions_1_1_asynchronous_exception_event_args.html" target="_top" xlink:title=" ">
<polygon fill="white" stroke="black" points="118,-50 118,-91 292,-91 292,-50 118,-50"/>
<text text-anchor="start" x="126" y="-79" font-family="Helvetica,sans-Serif" font-size="10.00">Pinknose.DistributedWorkers.</text>
<text text-anchor="start" x="126" y="-68" font-family="Helvetica,sans-Serif" font-size="10.00">Exceptions.AsynchronousException</text>
<text text-anchor="middle" x="205" y="-57" font-family="Helvetica,sans-Serif" font-size="10.00">EventArgs</text>
</a>
</g>
</g>
<!-- Node38&#45;&gt;Node0 -->
<g id="edge1" class="edge"><title>Node38&#45;&gt;Node0</title>
<path fill="none" stroke="midnightblue" d="M71.369,-48.9715C85.3694,-51.244 101.691,-53.8932 118,-56.5405"/>
<polygon fill="midnightblue" stroke="midnightblue" points="71.5854,-45.4609 61.1538,-47.3134 70.4638,-52.3705 71.5854,-45.4609"/>
</g>
<!-- Node40 -->
<g id="node3" class="node"><title>Node40</title>
<g id="a_node3"><a xlink:href="class_pinknose_1_1_distributed_workers_1_1_message_queues_1_1_message_received_event_args.html" target="_top" xlink:title=" ">
<polygon fill="white" stroke="black" points="97,-0.5 97,-30.5 313,-30.5 313,-0.5 97,-0.5"/>
<text text-anchor="start" x="105" y="-18.5" font-family="Helvetica,sans-Serif" font-size="10.00">Pinknose.DistributedWorkers.</text>
<text text-anchor="middle" x="205" y="-7.5" font-family="Helvetica,sans-Serif" font-size="10.00">MessageQueues.MessageReceivedEventArgs</text>
</a>
</g>
</g>
<!-- Node38&#45;&gt;Node40 -->
<g id="edge2" class="edge"><title>Node38&#45;&gt;Node40</title>
<path fill="none" stroke="midnightblue" d="M71.339,-36.2643C82.4718,-34.5218 95.0738,-32.5493 107.971,-30.5306"/>
<polygon fill="midnightblue" stroke="midnightblue" points="70.4923,-32.8542 61.1538,-37.8585 71.5748,-39.77 70.4923,-32.8542"/>
</g>
</g>
</svg>
